NotoSerifTamil-ExtraBold.ufo
<glyph name="exclam" format="2">
  <advance width="401.71428571428567"/>
  <unicode hex="0021"/>
  <outline>
    <contour>
      <point x="171.21428571428572" y="238.95238095238096" type="line"/>
      <point x="231.04761904761904" y="238.95238095238096" type="line"/>
      <point x="299.9047619047619" y="714.0" type="line"/>
      <point x="102.35714285714286" y="714.0" type="line"/>
    </contour>
    <contour>
      <point x="202.4047619047619" y="-8.547619047619047" type="curve" smooth="yes"/>
      <point x="250.23809523809524" y="-8.547619047619047"/>
      <point x="292.0714285714286" y="12.547619047619047"/>
      <point x="292.0714285714286" y="76.3809523809524" type="curve" smooth="yes"/>
      <point x="292.0714285714286" y="141.21428571428572"/>
      <point x="250.23809523809524" y="161.3095238095238"/>
      <point x="202.4047619047619" y="161.3095238095238" type="curve" smooth="yes"/>
      <point x="152.02380952380952" y="161.3095238095238"/>
      <point x="112.73809523809524" y="141.21428571428572"/>
      <point x="112.73809523809524" y="76.3809523809524" type="curve" smooth="yes"/>
      <point x="112.73809523809524" y="12.547619047619047"/>
      <point x="152.02380952380952" y="-8.547619047619047"/>
    </contour>
  </outline>
</glyph>
<glyph name="quotedbl" format="2">
  <advance width="548.5238095238095"/>
  <unicode hex="0022"/>
  <outline>
    <contour>
      <point x="365.73809523809524" y="423.11904761904765" type="line"/>
      <point x="439.95238095238096" y="423.11904761904765" type="line"/>
      <point x="477.14285714285717" y="714.0" type="line"/>
      <point x="300.88095238095235" y="714.0" type="line"/>
    </contour>
    <contour>
      <point x="121.85714285714286" y="423.11904761904765" type="line"/>
      <point x="196.07142857142858" y="423.11904761904765" type="line"/>
      <point x="247.0952380952381" y="714.0" type="line"/>
      <point x="70.83333333333333" y="714.0" type="line"/>
    </contour>
  </outline>
</glyph>
<glyph name="numbersign" format="2">
  <advance width="559.0"/>
  <unicode hex="0023"/>
  <outline>
    <contour>
      <point x="88.90476190476191" y="0.0" type="line"/>
      <point x="164.2857142857143" y="0.0" type="line"/>
      <point x="202.2857142857143" y="198.9047619047619" type="line"/>
      <point x="297.5238095238096" y="198.9047619047619" type="line"/>
      <point x="261.07142857142856" y="0.0" type="line"/>
      <point x="336.45238095238096" y="0.0" type="line"/>
      <point x="372.90476190476187" y="198.9047619047619" type="line"/>
      <point x="497.9047619047619" y="198.9047619047619" type="line"/>
      <point x="497.9047619047619" y="271.73809523809524" type="line"/>
      <point x="388.0" y="271.73809523809524" type="line"/>
      <point x="420.9047619047619" y="446.7142857142857" type="line"/>
      <point x="529.9047619047619" y="446.7142857142857" type="line"/>
      <point x="529.9047619047619" y="521.0952380952381" type="line"/>
      <point x="434.45238095238096" y="521.0952380952381" type="line"/>
      <point x="471.45238095238096" y="714.0" type="line"/>
      <point x="396.07142857142856" y="714.0" type="line"/>
      <point x="359.07142857142856" y="521.0952380952381" type="line"/>
      <point x="263.8333333333333" y="521.0952380952381" type="line"/>
      <point x="299.2857142857143" y="714.0" type="line"/>
      <point x="222.9047619047619" y="714.0" type="line"/>
      <point x="188.45238095238093" y="521.0952380952381" type="line"/>
      <point x="61.095238095238095" y="521.0952380952381" type="line"/>
      <point x="61.095238095238095" y="446.7142857142857" type="line"/>
      <point x="174.35714285714286" y="446.7142857142857" type="line"/>
      <point x="140.45238095238096" y="271.73809523809524" type="line"/>
      <point x="29.095238095238095" y="271.73809523809524" type="line"/>
      <point x="29.095238095238095" y="198.9047619047619" type="line"/>
      <point x="126.90476190476191" y="198.9047619047619" type="line"/>
    </contour>
    <contour>
      <point x="215.83333333333334" y="271.73809523809524" type="line"/>
      <point x="250.28571428571428" y="446.7142857142857" type="line"/>
      <point x="346.5238095238096" y="446.7142857142857" type="line"/>
      <point x="312.6190476190476" y="271.73809523809524" type="line"/>
    </contour>
  </outline>
</glyph>
<glyph name="percent" format="2">
  <advance width="909.8333333333334"/>
  <unicode hex="0025"/>
  <outline>
    <contour>
      <point x="242.19047619047618" y="0.0" type="line"/>
      <point x="325.11904761904765" y="0.0" type="line"/>
      <point x="664.1904761904763" y="714.0" type="line"/>
      <point x="582.2619047619048" y="714.0" type="line"/>
    </contour>
    <contour>
      <point x="216.19047619047618" y="280.0" type="curve" smooth="yes"/>
      <point x="341.57142857142856" y="280.0"/>
      <point x="402.76190476190476" y="369.0"/>
      <point x="402.76190476190476" y="503.0" type="curve"/>
      <point x="402.76190476190476" y="637.0"/>
      <point x="341.57142857142856" y="724.0"/>
      <point x="217.19047619047618" y="724.0" type="curve" smooth="yes"/>
      <point x="84.26190476190476" y="724.0"/>
      <point x="29.619047619047617" y="637.0"/>
      <point x="29.619047619047617" y="503.0" type="curve" smooth="yes"/>
      <point x="29.619047619047617" y="369.0"/>
      <point x="84.26190476190476" y="280.0"/>
    </contour>
    <contour>
      <point x="216.19047619047618" y="333.8333333333333" type="curve" smooth="yes"/>
      <point x="169.38095238095238" y="333.8333333333333"/>
      <point x="151.92857142857142" y="396.1904761904762"/>
      <point x="151.92857142857142" y="503.0" type="curve"/>
      <point x="151.92857142857142" y="607.8095238095239"/>
      <point x="169.38095238095238" y="669.1666666666666"/>
      <point x="217.19047619047618" y="669.1666666666666" type="curve" smooth="yes"/>
      <point x="264.0" y="669.1666666666666"/>
      <point x="279.4523809523809" y="607.8095238095239"/>
      <point x="279.4523809523809" y="503.0" type="curve" smooth="yes"/>
      <point x="279.4523809523809" y="396.1904761904762"/>
      <point x="264.0" y="333.8333333333333"/>
    </contour>
    <contour>
      <point x="694.1904761904763" y="-10.0" type="curve" smooth="yes"/>
      <point x="819.5714285714286" y="-10.0"/>
      <point x="880.7619047619048" y="79.0"/>
      <point x="880.7619047619048" y="213.0" type="curve" smooth="yes"/>
      <point x="880.7619047619048" y="347.0"/>
      <point x="819.5714285714286" y="434.0"/>
      <point x="695.1904761904763" y="434.0" type="curve" smooth="yes"/>
      <point x="562.2619047619048" y="434.0"/>
      <point x="507.6190476190476" y="347.0"/>
      <point x="507.6190476190476" y="213.0" type="curve" smooth="yes"/>
      <point x="507.6190476190476" y="79.0"/>
      <point x="562.2619047619048" y="-10.0"/>
    </contour>
    <contour>
      <point x="694.1904761904763" y="43.833333333333336" type="curve" smooth="yes"/>
      <point x="647.3809523809524" y="43.833333333333336"/>
      <point x="629.9285714285714" y="106.19047619047619"/>
      <point x="629.9285714285714" y="213.0" type="curve" smooth="yes"/>
      <point x="629.9285714285714" y="317.8095238095238"/>
      <point x="647.3809523809524" y="379.1666666666667"/>
      <point x="695.1904761904763" y="379.1666666666667" type="curve" smooth="yes"/>
      <point x="742.0" y="379.1666666666667"/>
      <point x="757.452380952381" y="317.8095238095238"/>
      <point x="757.452380952381" y="213.0" type="curve" smooth="yes"/>
      <point x="757.452380952381" y="106.19047619047619"/>
      <point x="742.0" y="43.833333333333336"/>
    </contour>
  </outline>
</glyph>
<glyph name="quotesingle" format="2">
  <advance width="318.4761904761905"/>
  <unicode hex="0027"/>
  <outline>
    <contour>
      <point x="121.85714285714286" y="423.11904761904765" type="line"/>
      <point x="196.07142857142858" y="423.11904761904765" type="line"/>
      <point x="247.0952380952381" y="714.0" type="line"/>
      <point x="70.83333333333333" y="714.0" type="line"/>
    </contour>
  </outline>
</glyph>
<glyph name="parenleft" format="2">
  <advance width="421.9047619047619"/>
  <unicode hex="0028"/>
  <outline>
    <contour>
      <point x="389.9047619047619" y="-143.38095238095238" type="curve"/>
      <point x="389.9047619047619" y="-72.26190476190476" type="line"/>
      <point x="270.8333333333333" y="9.190476190476192"/>
      <point x="241.0" y="159.54761904761907"/>
      <point x="241.0" y="318.54761904761904" type="curve" smooth="yes"/>
      <point x="241.0" y="476.0"/>
      <point x="270.8333333333333" y="624.8095238095237"/>
      <point x="389.9047619047619" y="706.8095238095239" type="curve"/>
      <point x="389.9047619047619" y="776.9285714285714" type="line"/>
      <point x="151.02380952380952" y="681.3571428571428"/>
      <point x="57.0" y="523.1428571428571"/>
      <point x="57.0" y="318.54761904761904" type="curve" smooth="yes"/>
      <point x="57.0" y="112.40476190476191"/>
      <point x="151.02380952380952" y="-47.80952380952381"/>
    </contour>
  </outline>
</glyph>
<glyph name="parenright" format="2">
  <advance width="421.9047619047619"/>
  <unicode hex="0029"/>
  <outline>
    <contour>
      <point x="32.0" y="-143.38095238095238" type="line"/>
      <point x="270.8809523809524" y="-47.80952380952381"/>
      <point x="364.9047619047619" y="112.40476190476191"/>
      <point x="364.9047619047619" y="318.54761904761904" type="curve" smooth="yes"/>
      <point x="364.9047619047619" y="523.1428571428571"/>
      <point x="270.8809523809524" y="681.3571428571428"/>
      <point x="32.0" y="776.9285714285714" type="curve"/>
      <point x="32.0" y="706.8095238095239" type="line"/>
      <point x="150.52380952380952" y="624.8095238095237"/>
      <point x="180.9047619047619" y="476.0"/>
      <point x="180.9047619047619" y="318.54761904761904" type="curve" smooth="yes"/>
      <point x="180.9047619047619" y="159.54761904761907"/>
      <point x="150.52380952380952" y="9.190476190476192"/>
      <point x="32.0" y="-72.26190476190476" type="curve"/>
    </contour>
  </outline>
</glyph>
<glyph name="asterisk" format="2">
  <advance width="502.5476190476191"/>
  <unicode hex="002A"/>
  <outline>
    <contour>
      <point x="193.26190476190476" y="362.6190476190476" type="line"/>
      <point x="313.57142857142856" y="362.6190476190476" type="line"/>
      <point x="275.8333333333333" y="526.2619047619048" type="line"/>
      <point x="423.6428571428571" y="417.88095238095235" type="line"/>
      <point x="473.0238095238095" y="525.6428571428572" type="line"/>
      <point x="321.95238095238096" y="561.8095238095237" type="line"/>
      <point x="473.0238095238095" y="596.9761904761904" type="line"/>
      <point x="423.6428571428571" y="705.7380952380952" type="line"/>
      <point x="275.8333333333333" y="597.9047619047619" type="line"/>
      <point x="315.11904761904765" y="760.0" type="line"/>
      <point x="193.26190476190476" y="760.0" type="line"/>
      <point x="229.0" y="595.3571428571428" type="line"/>
      <point x="81.64285714285714" y="707.7380952380952" type="line"/>
      <point x="32.80952380952381" y="597.9761904761904" type="line"/>
      <point x="183.88095238095238" y="561.8095238095237" type="line"/>
      <point x="32.80952380952381" y="524.6428571428572" type="line"/>
      <point x="81.64285714285714" y="416.88095238095235" type="line"/>
      <point x="228.0" y="527.8095238095239" type="line"/>
    </contour>
  </outline>
</glyph>
<glyph name="comma" format="2">
  <advance width="311.5238095238096"/>
  <unicode hex="002C"/>
  <outline>
    <contour>
      <point x="51.023809523809526" y="-154.0" type="line"/>
      <point x="185.4047619047619" y="-119.0"/>
      <point x="236.04761904761904" y="-43.0"/>
      <point x="236.04761904761904" y="42.0" type="curve" smooth="yes"/>
      <point x="236.04761904761904" y="114.92857142857143"/>
      <point x="203.33333333333331" y="161.3095238095238"/>
      <point x="141.3095238095238" y="161.3095238095238" type="curve" smooth="yes"/>
      <point x="98.66666666666667" y="161.3095238095238"/>
      <point x="63.28571428571429" y="136.21428571428572"/>
      <point x="63.28571428571429" y="88.47619047619048" type="curve" smooth="yes"/>
      <point x="63.28571428571429" y="0.8095238095238084"/>
      <point x="136.28571428571428" y="12.357142857142856"/>
      <point x="136.28571428571428" y="-24.547619047619047" type="curve" smooth="yes"/>
      <point x="136.28571428571428" y="-61.904761904761905"/>
      <point x="106.28571428571429" y="-77.16666666666667"/>
      <point x="51.023809523809526" y="-98.16666666666667" type="curve"/>
    </contour>
  </outline>
</glyph>
<glyph name="hyphen" format="2">
  <advance width="310.0"/>
  <unicode hex="002D"/>
  <outline>
    <contour>
      <point x="25.0" y="213.97619047619048" type="line"/>
      <point x="285.0" y="213.97619047619048" type="line"/>
      <point x="285.0" y="331.0238095238095" type="line"/>
      <point x="25.0" y="331.0238095238095" type="line"/>
    </contour>
  </outline>
</glyph>
<glyph name="period" format="2">
  <advance width="311.5238095238096"/>
  <unicode hex="002E"/>
  <outline>
    <contour>
      <point x="155.7619047619048" y="-8.547619047619047" type="curve" smooth="yes"/>
      <point x="203.5952380952381" y="-8.547619047619047"/>
      <point x="245.42857142857144" y="12.547619047619047"/>
      <point x="245.42857142857144" y="76.3809523809524" type="curve" smooth="yes"/>
      <point x="245.42857142857144" y="141.21428571428572"/>
      <point x="203.5952380952381" y="161.3095238095238"/>
      <point x="155.7619047619048" y="161.3095238095238" type="curve" smooth="yes"/>
      <point x="105.3809523809524" y="161.3095238095238"/>
      <point x="66.09523809523809" y="141.21428571428572"/>
      <point x="66.09523809523809" y="76.3809523809524" type="curve" smooth="yes"/>
      <point x="66.09523809523809" y="12.547619047619047"/>
      <point x="105.3809523809524" y="-8.547619047619047"/>
    </contour>
  </outline>
</glyph>
<glyph name="slash" format="2">
  <advance width="288.0"/>
  <unicode hex="002F"/>
  <outline>
    <contour>
      <point x="0.0" y="-121.0" type="line"/>
      <point x="77.47619047619048" y="-121.0" type="line"/>
      <point x="288.0" y="760.0" type="line"/>
      <point x="213.07142857142858" y="760.0" type="line"/>
    </contour>
  </outline>
</glyph>
<glyph name="zero" format="2">
  <advance width="559.0"/>
  <unicode hex="0030"/>
  <outline>
    <contour>
      <point x="280.0" y="-10.0" type="curve" smooth="yes"/>
      <point x="461.11904761904765" y="-10.0"/>
      <point x="529.3809523809524" y="137.0"/>
      <point x="529.3809523809524" y="358.0" type="curve" smooth="yes"/>
      <point x="529.3809523809524" y="580.0"/>
      <point x="461.11904761904765" y="724.0"/>
      <point x="281.0" y="724.0" type="curve" smooth="yes"/>
      <point x="89.88095238095238" y="724.0"/>
      <point x="29.619047619047617" y="580.0"/>
      <point x="29.619047619047617" y="359.0" type="curve" smooth="yes"/>
      <point x="29.619047619047617" y="137.0"/>
      <point x="89.88095238095238" y="-10.0"/>
    </contour>
    <contour>
      <point x="280.0" y="59.38095238095238" type="curve" smooth="yes"/>
      <point x="214.76190476190476" y="59.38095238095238"/>
      <point x="204.88095238095238" y="169.73809523809524"/>
      <point x="204.88095238095238" y="358.0" type="curve" smooth="yes"/>
      <point x="204.88095238095238" y="546.2619047619048"/>
      <point x="214.76190476190476" y="654.6190476190476"/>
      <point x="281.0" y="654.6190476190476" type="curve" smooth="yes"/>
      <point x="344.69047619047615" y="654.6190476190476"/>
      <point x="353.57142857142856" y="546.2619047619048"/>
      <point x="353.57142857142856" y="358.0" type="curve" smooth="yes"/>
      <point x="353.57142857142856" y="169.73809523809524"/>
      <point x="344.69047619047615" y="59.38095238095238"/>
    </contour>
  </outline>
</glyph>
<glyph name="one" format="2">
  <advance width="559.0"/>
  <unicode hex="0031"/>
  <outline>
    <contour>
      <point x="86.04761904761904" y="0.0" type="line"/>
      <point x="517.6666666666667" y="0.0" type="line"/>
      <point x="517.6666666666667" y="57.38095238095238" type="line"/>
      <point x="439.95238095238096" y="57.38095238095238" type="line" smooth="yes"/>
      <point x="399.5952380952381" y="57.38095238095238"/>
      <point x="390.59523809523813" y="85.85714285714286"/>
      <point x="390.59523809523813" y="119.64285714285714" type="curve" smooth="yes"/>
      <point x="390.59523809523813" y="718.0" type="line"/>
      <point x="259.42857142857144" y="718.0" type="line"/>
      <point x="189.42857142857142" y="666.0" type="line" smooth="yes"/>
      <point x="123.42857142857142" y="617.0"/>
      <point x="72.14285714285714" y="599.0"/>
      <point x="32.14285714285714" y="589.0" type="curve"/>
      <point x="32.14285714285714" y="538.5238095238095"/>
      <point x="60.333333333333336" y="506.7857142857143"/>
      <point x="93.42857142857142" y="506.7857142857143" type="curve" smooth="yes"/>
      <point x="133.42857142857142" y="506.7857142857143"/>
      <point x="171.42857142857142" y="548.7857142857143"/>
      <point x="222.42857142857142" y="610.7857142857143" type="curve"/>
      <point x="222.42857142857142" y="119.64285714285714" type="line" smooth="yes"/>
      <point x="222.42857142857142" y="75.11904761904762"/>
      <point x="206.97619047619048" y="57.38095238095238"/>
      <point x="174.07142857142858" y="57.38095238095238" type="curve" smooth="yes"/>
      <point x="86.04761904761904" y="57.38095238095238" type="line"/>
    </contour>
  </outline>
</glyph>
<glyph name="two" format="2">
  <advance width="559.0"/>
  <unicode hex="0032"/>
  <outline>
    <contour>
      <point x="30.61904761904762" y="0.0" type="line"/>
      <point x="518.952380952381" y="0.0" type="line"/>
      <point x="523.952380952381" y="224.7857142857143" type="line"/>
      <point x="457.8333333333333" y="224.7857142857143" type="line"/>
      <point x="448.1904761904762" y="188.85714285714286" type="line" smooth="yes"/>
      <point x="435.6428571428571" y="142.11904761904762"/>
      <point x="399.07142857142856" y="122.04761904761905"/>
      <point x="365.73809523809524" y="122.04761904761905" type="curve" smooth="yes"/>
      <point x="143.14285714285714" y="122.04761904761905" type="line"/>
      <point x="206.99999999999997" y="179.8095238095238" type="line" smooth="yes"/>
      <point x="453.54761904761904" y="390.0714285714286"/>
      <point x="498.95238095238096" y="460.07142857142856"/>
      <point x="498.95238095238096" y="553.0714285714286" type="curve" smooth="yes"/>
      <point x="498.95238095238096" y="656.6190476190477"/>
      <point x="417.85714285714283" y="724.0"/>
      <point x="259.54761904761904" y="724.0" type="curve" smooth="yes"/>
      <point x="106.42857142857142" y="724.0"/>
      <point x="32.42857142857143" y="652.7857142857143"/>
      <point x="32.42857142857143" y="582.4285714285714" type="curve" smooth="yes"/>
      <point x="32.42857142857143" y="504.40476190476187"/>
      <point x="95.38095238095238" y="480.6904761904762"/>
      <point x="173.02380952380955" y="480.6904761904762" type="curve"/>
      <point x="173.02380952380955" y="608.9285714285714"/>
      <point x="200.85714285714286" y="658.6190476190476"/>
      <point x="259.54761904761904" y="658.6190476190476" type="curve" smooth="yes"/>
      <point x="298.23809523809524" y="658.6190476190476"/>
      <point x="327.69047619047615" y="631.1904761904761"/>
      <point x="327.69047619047615" y="551.3571428571428" type="curve" smooth="yes"/>
      <point x="327.69047619047615" y="447.8095238095238"/>
      <point x="296.69047619047615" y="378.3571428571429"/>
      <point x="168.76190476190476" y="249.07142857142856" type="curve" smooth="yes"/>
      <point x="30.61904761904762" y="109.57142857142858" type="line"/>
    </contour>
  </outline>
</glyph>
<glyph name="three" format="2">
  <advance width="559.0"/>
  <unicode hex="0033"/>
  <outline>
    <contour>
      <point x="243.0" y="-10.0" type="curve" smooth="yes"/>
      <point x="390.3095238095238" y="-10.0"/>
      <point x="523.4047619047619" y="43.0"/>
      <point x="523.4047619047619" y="206.54761904761904" type="curve" smooth="yes"/>
      <point x="523.4047619047619" y="314.9761904761905"/>
      <point x="430.88095238095235" y="363.26190476190476"/>
      <point x="348.1428571428571" y="381.0" type="curve"/>
      <point x="432.95238095238096" y="412.73809523809524"/>
      <point x="498.4047619047619" y="469.3571428571429"/>
      <point x="498.4047619047619" y="559.3571428571428" type="curve" smooth="yes"/>
      <point x="498.4047619047619" y="664.452380952381"/>
      <point x="407.2142857142857" y="724.0"/>
      <point x="258.64285714285717" y="724.0" type="curve" smooth="yes"/>
      <point x="106.07142857142857" y="724.0"/>
      <point x="32.16666666666666" y="660.8809523809524"/>
      <point x="32.16666666666666" y="592.0714285714286" type="curve" smooth="yes"/>
      <point x="32.16666666666666" y="527.2380952380952"/>
      <point x="84.64285714285714" y="500.8809523809524"/>
      <point x="169.28571428571428" y="500.8809523809524" type="curve"/>
      <point x="169.28571428571428" y="578.8809523809524"/>
      <point x="187.66666666666666" y="658.6190476190476"/>
      <point x="252.00000000000003" y="658.6190476190476" type="curve" smooth="yes"/>
      <point x="296.6904761904762" y="658.6190476190476"/>
      <point x="325.1428571428571" y="615.1666666666666"/>
      <point x="325.1428571428571" y="545.9047619047619" type="curve" smooth="yes"/>
      <point x="325.1428571428571" y="460.6428571428571"/>
      <point x="295.64285714285717" y="402.1904761904762"/>
      <point x="210.19047619047618" y="402.1904761904762" type="curve"/>
      <point x="135.97619047619048" y="402.1904761904762" type="line"/>
      <point x="135.97619047619048" y="335.8095238095238" type="line"/>
      <point x="204.54761904761907" y="335.8095238095238" type="line" smooth="yes"/>
      <point x="299.61904761904765" y="335.8095238095238"/>
      <point x="349.1428571428571" y="280.8095238095238"/>
      <point x="349.1428571428571" y="207.54761904761904" type="curve" smooth="yes"/>
      <point x="349.1428571428571" y="94.73809523809524"/>
      <point x="296.07142857142856" y="66.57142857142857"/>
      <point x="236.54761904761907" y="66.57142857142857" type="curve" smooth="yes"/>
      <point x="166.83333333333334" y="66.57142857142857"/>
      <point x="115.19047619047619" y="111.76190476190476"/>
      <point x="115.19047619047619" y="202.78571428571428" type="curve"/>
      <point x="65.9047619047619" y="202.78571428571428"/>
      <point x="21.428571428571423" y="174.69047619047618"/>
      <point x="21.428571428571423" y="119.30952380952381" type="curve" smooth="yes"/>
      <point x="21.428571428571423" y="47.547619047619044"/>
      <point x="84.33333333333334" y="-10.0"/>
    </contour>
  </outline>
</glyph>
<glyph name="four" format="2">
  <advance width="559.0"/>
  <unicode hex="0034"/>
  <outline>
    <contour>
      <point x="165.76190476190476" y="0.0" type="line"/>
      <point x="537.0238095238096" y="0.0" type="line"/>
      <point x="537.0238095238096" y="57.38095238095238" type="line"/>
      <point x="524.0238095238095" y="57.38095238095238" type="line" smooth="yes"/>
      <point x="479.0238095238095" y="57.38095238095238"/>
      <point x="442.0238095238095" y="66.38095238095238"/>
      <point x="442.0238095238095" y="129.38095238095238" type="curve" smooth="yes"/>
      <point x="442.0238095238095" y="182.16666666666666" type="line"/>
      <point x="537.8095238095237" y="182.16666666666666" type="line"/>
      <point x="537.8095238095237" y="252.0" type="line"/>
      <point x="442.0238095238095" y="252.0" type="line"/>
      <point x="442.0238095238095" y="714.0" type="line"/>
      <point x="285.5" y="714.0" type="line"/>
      <point x="11.357142857142858" y="250.83333333333334" type="line"/>
      <point x="11.357142857142858" y="182.16666666666666" type="line"/>
      <point x="275.76190476190476" y="182.16666666666666" type="line"/>
      <point x="275.76190476190476" y="129.38095238095238" type="line" smooth="yes"/>
      <point x="275.76190476190476" y="66.38095238095238"/>
      <point x="238.76190476190476" y="57.38095238095238"/>
      <point x="193.76190476190476" y="57.38095238095238" type="curve" smooth="yes"/>
      <point x="165.76190476190476" y="57.38095238095238" type="line"/>
    </contour>
    <contour>
      <point x="88.47619047619048" y="252.0" type="line"/>
      <point x="210.88095238095238" y="466.7857142857143" type="line" smooth="yes"/>
      <point x="222.59523809523807" y="487.4047619047619"/>
      <point x="270.3095238095238" y="576.5"/>
      <point x="283.3095238095238" y="609.1428571428571" type="curve"/>
      <point x="278.3095238095238" y="547.1428571428571"/>
      <point x="276.3095238095238" y="481.1666666666667"/>
      <point x="276.3095238095238" y="423.1666666666667" type="curve" smooth="yes"/>
      <point x="276.3095238095238" y="252.0" type="line"/>
    </contour>
  </outline>
</glyph>
<glyph name="five" format="2">
  <advance width="559.0"/>
  <unicode hex="0035"/>
  <outline>
    <contour>
      <point x="245.54761904761907" y="-10.0" type="curve" smooth="yes"/>
      <point x="353.4047619047619" y="-10.0"/>
      <point x="514.2142857142857" y="32.76190476190476"/>
      <point x="514.2142857142857" y="220.54761904761904" type="curve" smooth="yes"/>
      <point x="514.2142857142857" y="364.6428571428571"/>
      <point x="412.11904761904765" y="436.1904761904762"/>
      <point x="246.71428571428572" y="436.1904761904762" type="curve" smooth="yes"/>
      <point x="212.83333333333334" y="436.1904761904762"/>
      <point x="161.0" y="429.73809523809524"/>
      <point x="139.45238095238093" y="421.1904761904762" type="curve"/>
      <point x="154.35714285714286" y="592.5" type="line"/>
      <point x="367.8333333333333" y="592.5" type="line" smooth="yes"/>
      <point x="396.0" y="592.5"/>
      <point x="405.0952380952381" y="578.5"/>
      <point x="411.09523809523813" y="555.5952380952382" type="curve" smooth="yes"/>
      <point x="420.1904761904762" y="519.952380952381" type="line"/>
      <point x="483.76190476190476" y="519.952380952381" type="line"/>
      <point x="478.76190476190476" y="714.547619047619" type="line"/>
      <point x="91.45238095238096" y="714.547619047619" type="line"/>
      <point x="59.452380952380956" y="371.8333333333333" type="line"/>
      <point x="105.45238095238095" y="349.4523809523809" type="line"/>
      <point x="137.64285714285714" y="357.3571428571429"/>
      <point x="168.19047619047618" y="365.8095238095238"/>
      <point x="211.52380952380952" y="365.8095238095238" type="curve" smooth="yes"/>
      <point x="295.33333333333337" y="365.8095238095238"/>
      <point x="341.5" y="318.9047619047619"/>
      <point x="341.5" y="220.54761904761904" type="curve" smooth="yes"/>
      <point x="341.5" y="99.19047619047619"/>
      <point x="286.14285714285717" y="64.38095238095238"/>
      <point x="226.16666666666666" y="64.38095238095238" type="curve" smooth="yes"/>
      <point x="144.16666666666666" y="64.38095238095238"/>
      <point x="121.09523809523809" y="135.04761904761907"/>
      <point x="121.09523809523809" y="192.04761904761904" type="curve"/>
      <point x="70.9047619047619" y="192.04761904761904"/>
      <point x="33.976190476190474" y="168.5"/>
      <point x="33.976190476190474" y="119.21428571428571" type="curve" smooth="yes"/>
      <point x="33.976190476190474" y="50.095238095238095"/>
      <point x="94.45238095238095" y="-10.0"/>
    </contour>
  </outline>
</glyph>
<glyph name="six" format="2">
  <advance width="559.0"/>
  <unicode hex="0036"/>
  <outline>
    <contour>
      <point x="293.0" y="-10.0" type="curve" smooth="yes"/>
      <point x="451.57142857142856" y="-10.0"/>
      <point x="530.5714285714286" y="88.0"/>
      <point x="530.5714285714286" y="231.54761904761904" type="curve" smooth="yes"/>
      <point x="530.5714285714286" y="362.6428571428571"/>
      <point x="451.57142857142856" y="439.6428571428571"/>
      <point x="330.5714285714286" y="439.6428571428571" type="curve" smooth="yes"/>
      <point x="261.4761904761905" y="439.6428571428571"/>
      <point x="226.6904761904762" y="420.64285714285717"/>
      <point x="198.5952380952381" y="404.8333333333333" type="curve"/>
      <point x="207.14285714285714" y="563.9761904761904"/>
      <point x="245.83333333333331" y="660.6190476190476"/>
      <point x="316.07142857142856" y="660.6190476190476" type="curve" smooth="yes"/>
      <point x="364.69047619047615" y="660.6190476190476"/>
      <point x="383.16666666666663" y="593.8095238095239"/>
      <point x="383.16666666666663" y="526.6904761904761" type="curve"/>
      <point x="478.2857142857143" y="526.6904761904761"/>
      <point x="511.92857142857144" y="566.4285714285714"/>
      <point x="511.92857142857144" y="611.8095238095237" type="curve" smooth="yes"/>
      <point x="511.92857142857144" y="670.452380952381"/>
      <point x="459.54761904761904" y="724.0"/>
      <point x="323.4285714285714" y="724.0" type="curve" smooth="yes"/>
      <point x="132.61904761904762" y="724.0"/>
      <point x="38.42857142857143" y="562.047619047619"/>
      <point x="38.42857142857143" y="329.45238095238096" type="curve" smooth="yes"/>
      <point x="38.42857142857143" y="97.0"/>
      <point x="138.97619047619048" y="-10.0"/>
    </contour>
    <contour>
      <point x="296.0" y="60.38095238095238" type="curve" smooth="yes"/>
      <point x="242.66666666666669" y="60.38095238095238"/>
      <point x="199.5952380952381" y="141.92857142857142"/>
      <point x="199.14285714285714" y="330.6428571428571" type="curve"/>
      <point x="219.42857142857144" y="352.54761904761904"/>
      <point x="257.57142857142856" y="372.07142857142856"/>
      <point x="287.0" y="372.07142857142856" type="curve" smooth="yes"/>
      <point x="335.7857142857143" y="372.07142857142856"/>
      <point x="368.04761904761904" y="327.3571428571429"/>
      <point x="368.04761904761904" y="221.54761904761904" type="curve" smooth="yes"/>
      <point x="368.04761904761904" y="109.28571428571429"/>
      <point x="338.7857142857143" y="60.38095238095238"/>
    </contour>
  </outline>
</glyph>
<glyph name="seven" format="2">
  <advance width="559.0"/>
  <unicode hex="0037"/>
  <outline>
    <contour>
      <point x="151.85714285714286" y="0.0" type="line"/>
      <point x="251.64285714285714" y="0.0" type="line"/>
      <point x="523.2619047619048" y="657.3333333333334" type="line"/>
      <point x="523.2619047619048" y="714.547619047619" type="line"/>
      <point x="47.357142857142854" y="714.547619047619" type="line"/>
      <point x="42.357142857142854" y="492.5" type="line"/>
      <point x="109.47619047619048" y="492.5" type="line"/>
      <point x="116.57142857142857" y="542.5" type="line" smooth="yes"/>
      <point x="121.11904761904762" y="575.5"/>
      <point x="138.57142857142858" y="593.5"/>
      <point x="174.57142857142858" y="593.5" type="curve" smooth="yes"/>
      <point x="424.42857142857144" y="593.5" type="line"/>
    </contour>
  </outline>
</glyph>
<glyph name="eight" format="2">
  <advance width="559.0"/>
  <unicode hex="0038"/>
  <outline>
    <contour>
      <point x="273.0" y="-10.0" type="curve" smooth="yes"/>
      <point x="440.0238095238095" y="-10.0"/>
      <point x="535.5714285714286" y="67.92857142857143"/>
      <point x="535.5714285714286" y="188.45238095238096" type="curve" smooth="yes"/>
      <point x="535.5714285714286" y="277.6666666666667"/>
      <point x="491.76190476190476" y="332.2857142857143"/>
      <point x="373.95238095238096" y="390.8333333333333" type="curve"/>
      <point x="457.50000000000006" y="430.0"/>
      <point x="507.8571428571429" y="471.73809523809524"/>
      <point x="507.8571428571429" y="555.5714285714286" type="curve" smooth="yes"/>
      <point x="507.8571428571429" y="649.452380952381"/>
      <point x="433.6666666666667" y="724.0"/>
      <point x="286.0952380952381" y="724.0" type="curve" smooth="yes"/>
      <point x="111.35714285714286" y="724.0"/>
      <point x="46.42857142857143" y="638.2857142857142"/>
      <point x="46.42857142857143" y="540.9047619047619" type="curve" smooth="yes"/>
      <point x="46.42857142857143" y="456.3333333333333"/>
      <point x="94.26190476190476" y="403.7142857142857"/>
      <point x="173.71428571428572" y="359.90476190476187" type="curve"/>
      <point x="86.26190476190476" y="323.5714285714286"/>
      <point x="23.42857142857143" y="274.0238095238095"/>
      <point x="23.42857142857143" y="177.61904761904762" type="curve" smooth="yes"/>
      <point x="23.42857142857143" y="76.54761904761904"/>
      <point x="98.88095238095238" y="-10.0"/>
    </contour>
    <contour>
      <point x="278.0" y="52.47619047619048" type="curve" smooth="yes"/>
      <point x="218.21428571428572" y="52.47619047619048"/>
      <point x="173.7619047619048" y="97.80952380952381"/>
      <point x="173.7619047619048" y="181.83333333333334" type="curve" smooth="yes"/>
      <point x="173.7619047619048" y="247.45238095238096"/>
      <point x="200.0952380952381" y="289.8095238095238"/>
      <point x="239.07142857142858" y="319.35714285714283" type="curve"/>
      <point x="328.38095238095235" y="276.1904761904762"/>
      <point x="373.57142857142856" y="232.61904761904762"/>
      <point x="373.57142857142856" y="168.71428571428572" type="curve" smooth="yes"/>
      <point x="373.57142857142856" y="97.35714285714286"/>
      <point x="335.04761904761904" y="52.47619047619048"/>
    </contour>
    <contour>
      <point x="306.38095238095235" y="425.92857142857144" type="curve"/>
      <point x="244.04761904761904" y="454.09523809523813"/>
      <point x="206.5952380952381" y="490.4761904761905"/>
      <point x="206.5952380952381" y="558.3809523809523" type="curve" smooth="yes"/>
      <point x="206.5952380952381" y="620.1904761904763"/>
      <point x="232.21428571428572" y="661.6190476190476"/>
      <point x="281.73809523809524" y="661.6190476190476" type="curve" smooth="yes"/>
      <point x="333.9761904761904" y="661.6190476190476"/>
      <point x="363.7857142857143" y="611.8333333333334"/>
      <point x="363.7857142857143" y="553.7380952380952" type="curve" smooth="yes"/>
      <point x="363.7857142857143" y="485.54761904761904"/>
      <point x="342.23809523809524" y="449.54761904761904"/>
    </contour>
  </outline>
</glyph>
<glyph name="nine" format="2">
  <advance width="559.0"/>
  <unicode hex="0039"/>
  <outline>
    <contour>
      <point x="227.0" y="-9.452380952380953" type="curve"/>
      <point x="436.3809523809524" y="-9.452380952380953"/>
      <point x="520.5714285714286" y="164.16666666666666"/>
      <point x="520.5714285714286" y="388.0" type="curve"/>
      <point x="520.5714285714286" y="623.0"/>
      <point x="412.2857142857143" y="724.0"/>
      <point x="263.45238095238096" y="724.0" type="curve" smooth="yes"/>
      <point x="116.61904761904762" y="724.0"/>
      <point x="28.42857142857143" y="627.6428571428572"/>
      <point x="28.42857142857143" y="483.6428571428571" type="curve" smooth="yes"/>
      <point x="28.42857142857143" y="348.6428571428571"/>
      <point x="109.42857142857142" y="275.0"/>
      <point x="223.88095238095238" y="275.0" type="curve" smooth="yes"/>
      <point x="292.88095238095235" y="275.0"/>
      <point x="333.95238095238096" y="302.3571428571429"/>
      <point x="366.04761904761904" y="343.0" type="curve"/>
      <point x="359.04761904761904" y="154.83333333333334"/>
      <point x="314.88095238095235" y="56.833333333333336"/>
      <point x="233.64285714285714" y="56.833333333333336" type="curve" smooth="yes"/>
      <point x="165.0" y="56.833333333333336"/>
      <point x="135.92857142857144" y="110.95238095238095"/>
      <point x="116.38095238095238" y="178.07142857142858" type="curve"/>
      <point x="72.52380952380953" y="170.52380952380952"/>
      <point x="55.333333333333336" y="140.21428571428572"/>
      <point x="55.333333333333336" y="109.57142857142857" type="curve" smooth="yes"/>
      <point x="55.333333333333336" y="46.54761904761905"/>
      <point x="102.71428571428571" y="-9.452380952380953"/>
    </contour>
    <contour>
      <point x="275.6428571428571" y="352.4761904761904" type="curve" smooth="yes"/>
      <point x="219.66666666666669" y="352.4761904761904"/>
      <point x="190.4047619047619" y="403.11904761904765"/>
      <point x="190.4047619047619" y="488.0" type="curve" smooth="yes"/>
      <point x="190.4047619047619" y="597.8095238095237"/>
      <point x="220.11904761904762" y="652.0714285714286"/>
      <point x="272.1904761904762" y="652.0714285714286" type="curve" smooth="yes"/>
      <point x="329.1666666666667" y="652.0714285714286"/>
      <point x="364.04761904761904" y="580.1666666666666"/>
      <point x="365.5" y="413.45238095238096" type="curve"/>
      <point x="344.4047619047619" y="374.5476190476191"/>
      <point x="313.23809523809524" y="352.4761904761904"/>
    </contour>
  </outline>
</glyph>
<glyph name="colon" format="2">
  <advance width="311.11904761904765"/>
  <unicode hex="003A"/>
  <outline>
    <contour>
      <point x="155.28571428571428" y="376.7857142857143" type="curve" smooth="yes"/>
      <point x="203.11904761904762" y="376.7857142857143"/>
      <point x="244.95238095238096" y="397.88095238095235"/>
      <point x="244.95238095238096" y="461.7142857142857" type="curve" smooth="yes"/>
      <point x="244.95238095238096" y="526.547619047619"/>
      <point x="203.11904761904762" y="546.6428571428572"/>
      <point x="155.28571428571428" y="546.6428571428572" type="curve" smooth="yes"/>
      <point x="104.9047619047619" y="546.6428571428572"/>
      <point x="65.6190476190476" y="526.547619047619"/>
      <point x="65.6190476190476" y="461.7142857142857" type="curve" smooth="yes"/>
      <point x="65.6190476190476" y="397.88095238095235"/>
      <point x="104.9047619047619" y="376.7857142857143"/>
    </contour>
    <contour>
      <point x="155.28571428571428" y="-8.547619047619047" type="curve" smooth="yes"/>
      <point x="203.11904761904762" y="-8.547619047619047"/>
      <point x="244.95238095238096" y="12.547619047619047"/>
      <point x="244.95238095238096" y="76.3809523809524" type="curve" smooth="yes"/>
      <point x="244.95238095238096" y="141.21428571428572"/>
      <point x="203.11904761904762" y="161.3095238095238"/>
      <point x="155.28571428571428" y="161.3095238095238" type="curve" smooth="yes"/>
      <point x="104.9047619047619" y="161.3095238095238"/>
      <point x="65.6190476190476" y="141.21428571428572"/>
      <point x="65.6190476190476" y="76.3809523809524" type="curve" smooth="yes"/>
      <point x="65.6190476190476" y="12.547619047619047"/>
      <point x="104.9047619047619" y="-8.547619047619047"/>
    </contour>
  </outline>
</glyph>
<glyph name="semicolon" format="2">
  <advance width="311.11904761904765"/>
  <unicode hex="003B"/>
  <outline>
    <contour>
      <point x="56.64285714285714" y="-154.0" type="line"/>
      <point x="191.02380952380952" y="-119.0"/>
      <point x="241.66666666666669" y="-43.0"/>
      <point x="241.66666666666669" y="42.0" type="curve" smooth="yes"/>
      <point x="241.66666666666669" y="114.92857142857143"/>
      <point x="208.95238095238096" y="161.3095238095238"/>
      <point x="146.92857142857142" y="161.3095238095238" type="curve" smooth="yes"/>
      <point x="104.28571428571429" y="161.3095238095238"/>
      <point x="68.9047619047619" y="136.21428571428572"/>
      <point x="68.9047619047619" y="88.47619047619048" type="curve" smooth="yes"/>
      <point x="68.9047619047619" y="0.8095238095238084"/>
      <point x="141.9047619047619" y="12.357142857142856"/>
      <point x="141.9047619047619" y="-24.547619047619047" type="curve" smooth="yes"/>
      <point x="141.9047619047619" y="-63.0"/>
      <point x="111.9047619047619" y="-77.16666666666667"/>
      <point x="56.64285714285714" y="-98.16666666666667" type="curve"/>
    </contour>
    <contour>
      <point x="155.28571428571428" y="376.7857142857143" type="curve" smooth="yes"/>
      <point x="203.11904761904762" y="376.7857142857143"/>
      <point x="244.95238095238096" y="397.88095238095235"/>
      <point x="244.95238095238096" y="461.7142857142857" type="curve" smooth="yes"/>
      <point x="244.95238095238096" y="526.547619047619"/>
      <point x="203.11904761904762" y="546.6428571428572"/>
      <point x="155.28571428571428" y="546.6428571428572" type="curve" smooth="yes"/>
      <point x="104.9047619047619" y="546.6428571428572"/>
      <point x="65.6190476190476" y="526.547619047619"/>
      <point x="65.6190476190476" y="461.7142857142857" type="curve" smooth="yes"/>
      <point x="65.6190476190476" y="397.88095238095235"/>
      <point x="104.9047619047619" y="376.7857142857143"/>
    </contour>
  </outline>
</glyph>
<glyph name="less" format="2">
  <advance width="559.0"/>
  <unicode hex="003C"/>
  <outline>
    <contour>
      <point x="494.0" y="101.80952380952381" type="line"/>
      <point x="494.0" y="185.1904761904762" type="line"/>
      <point x="177.47619047619048" y="357.0" type="line"/>
      <point x="494.0" y="530.8095238095239" type="line"/>
      <point x="494.0" y="614.1904761904761" type="line"/>
      <point x="65.0" y="379.0952380952381" type="line"/>
      <point x="65.0" y="335.9047619047619" type="line"/>
    </contour>
  </outline>
</glyph>
<glyph name="equal" format="2">
  <advance width="559.0"/>
  <unicode hex="003D"/>
  <outline>
    <contour>
      <point x="62.452380952380956" y="416.26190476190476" type="line"/>
      <point x="497.09523809523813" y="416.26190476190476" type="line"/>
      <point x="497.09523809523813" y="490.6428571428571" type="line"/>
      <point x="62.452380952380956" y="490.6428571428571" type="line"/>
    </contour>
    <contour>
      <point x="62.452380952380956" y="223.35714285714286" type="line"/>
      <point x="497.09523809523813" y="223.35714285714286" type="line"/>
      <point x="497.09523809523813" y="297.73809523809524" type="line"/>
      <point x="62.452380952380956" y="297.73809523809524" type="line"/>
    </contour>
  </outline>
</glyph>
<glyph name="greater" format="2">
  <advance width="559.0"/>
  <unicode hex="003E"/>
  <outline>
    <contour>
      <point x="65.0" y="101.80952380952381" type="line"/>
      <point x="494.0" y="335.9047619047619" type="line"/>
      <point x="494.0" y="379.0952380952381" type="line"/>
      <point x="65.0" y="614.1904761904761" type="line"/>
      <point x="65.0" y="530.8095238095239" type="line"/>
      <point x="381.5238095238095" y="357.0" type="line"/>
      <point x="65.0" y="185.1904761904762" type="line"/>
    </contour>
  </outline>
</glyph>
<glyph name="question" format="2">
  <advance width="570.2619047619047"/>
  <unicode hex="003F"/>
  <outline>
    <contour>
      <point x="223.76190476190476" y="233.47619047619048" type="line"/>
      <point x="284.76190476190476" y="233.47619047619048" type="line"/>
      <point x="312.9761904761905" y="321.1904761904762" type="line"/>
      <point x="449.26190476190476" y="377.8333333333333"/>
      <point x="513.6190476190476" y="433.0"/>
      <point x="513.6190476190476" y="538.9047619047619" type="curve" smooth="yes"/>
      <point x="513.6190476190476" y="655.452380952381"/>
      <point x="410.7142857142857" y="724.0"/>
      <point x="258.2142857142857" y="724.0" type="curve" smooth="yes"/>
      <point x="104.09523809523809" y="724.0"/>
      <point x="34.80952380952381" y="665.8809523809523"/>
      <point x="34.80952380952381" y="603.6190476190476" type="curve" smooth="yes"/>
      <point x="34.80952380952381" y="546.2142857142858"/>
      <point x="94.35714285714286" y="525.952380952381"/>
      <point x="190.04761904761904" y="525.952380952381" type="curve"/>
      <point x="190.04761904761904" y="606.547619047619"/>
      <point x="211.69047619047618" y="659.6190476190476"/>
      <point x="262.38095238095235" y="659.6190476190476" type="curve" smooth="yes"/>
      <point x="308.6190476190476" y="659.6190476190476"/>
      <point x="331.6190476190476" y="616.1666666666666"/>
      <point x="331.6190476190476" y="554.3571428571428" type="curve" smooth="yes"/>
      <point x="331.6190476190476" y="475.9047619047619"/>
      <point x="309.0" y="395.9047619047619"/>
      <point x="195.54761904761907" y="350.4523809523809" type="curve"/>
    </contour>
    <contour>
      <point x="252.21428571428572" y="-8.547619047619047" type="curve" smooth="yes"/>
      <point x="300.04761904761904" y="-8.547619047619047"/>
      <point x="341.88095238095235" y="12.547619047619047"/>
      <point x="341.88095238095235" y="76.3809523809524" type="curve" smooth="yes"/>
      <point x="341.88095238095235" y="141.21428571428572"/>
      <point x="300.04761904761904" y="161.3095238095238"/>
      <point x="252.21428571428572" y="161.3095238095238" type="curve" smooth="yes"/>
      <point x="201.83333333333334" y="161.3095238095238"/>
      <point x="162.54761904761904" y="141.21428571428572"/>
      <point x="162.54761904761904" y="76.3809523809524" type="curve" smooth="yes"/>
      <point x="162.54761904761904" y="12.547619047619047"/>
      <point x="201.83333333333334" y="-8.547619047619047"/>
    </contour>
  </outline>
</glyph>
<glyph name="bracketleft" format="2">
  <advance width="435.9047619047619"/>
  <unicode hex="005B"/>
  <outline>
    <contour>
      <point x="100.0" y="-128.0" type="line"/>
      <point x="398.9047619047619" y="-128.0" type="line"/>
      <point x="398.9047619047619" y="-70.6190476190476" type="line"/>
      <point x="355.9047619047619" y="-70.6190476190476" type="line" smooth="yes"/>
      <point x="310.9047619047619" y="-70.6190476190476"/>
      <point x="273.9047619047619" y="-61.619047619047606"/>
      <point x="273.9047619047619" y="1.3809523809523832" type="curve" smooth="yes"/>
      <point x="273.9047619047619" y="630.6190476190476" type="line" smooth="yes"/>
      <point x="273.9047619047619" y="693.6190476190476"/>
      <point x="310.9047619047619" y="702.6190476190476"/>
      <point x="355.9047619047619" y="702.6190476190476" type="curve" smooth="yes"/>
      <point x="398.9047619047619" y="702.6190476190476" type="line"/>
      <point x="398.9047619047619" y="760.0" type="line"/>
      <point x="100.0" y="760.0" type="line"/>
    </contour>
  </outline>
</glyph>
<glyph name="backslash" format="2">
  <advance width="288.0"/>
  <unicode hex="005C"/>
  <outline>
    <contour>
      <point x="210.52380952380952" y="-121.0" type="line"/>
      <point x="288.0" y="-121.0" type="line"/>
      <point x="76.47619047619048" y="760.0" type="line"/>
      <point x="0.0" y="760.0" type="line"/>
    </contour>
  </outline>
</glyph>
<glyph name="bracketright" format="2">
  <advance width="435.9047619047619"/>
  <unicode hex="005D"/>
  <outline>
    <contour>
      <point x="37.0" y="-128.0" type="line"/>
      <point x="335.9047619047619" y="-128.0" type="line"/>
      <point x="335.9047619047619" y="760.0" type="line"/>
      <point x="37.0" y="760.0" type="line"/>
      <point x="37.0" y="702.6190476190476" type="line"/>
      <point x="80.0" y="702.6190476190476" type="line" smooth="yes"/>
      <point x="125.0" y="702.6190476190476"/>
      <point x="162.0" y="693.6190476190476"/>
      <point x="162.0" y="630.6190476190476" type="curve" smooth="yes"/>
      <point x="162.0" y="1.3809523809523832" type="line" smooth="yes"/>
      <point x="162.0" y="-61.619047619047606"/>
      <point x="125.0" y="-70.6190476190476"/>
      <point x="80.0" y="-70.6190476190476" type="curve" smooth="yes"/>
      <point x="37.0" y="-70.6190476190476" type="line"/>
    </contour>
  </outline>
</glyph>
<glyph name="asciicircum" format="2">
  <advance width="559.0"/>
  <unicode hex="005E"/>
  <outline>
    <contour>
      <point x="43.80952380952381" y="260.3571428571429" type="line"/>
      <point x="126.19047619047619" y="260.3571428571429" type="line"/>
      <point x="278.0" y="597.8809523809524" type="line"/>
      <point x="431.26190476190476" y="260.3571428571429" type="line"/>
      <point x="513.6428571428571" y="260.3571428571429" type="line"/>
      <point x="301.6428571428571" y="714.0" type="line"/>
      <point x="255.35714285714286" y="714.0" type="line"/>
    </contour>
  </outline>
</glyph>
<glyph name="braceleft" format="2">
  <advance width="447.4761904761905"/>
  <unicode hex="007B"/>
  <outline>
    <contour>
      <point x="318.64285714285717" y="-123.9047619047619" type="curve" smooth="yes"/>
      <point x="425.69047619047615" y="-123.9047619047619" type="line"/>
      <point x="425.69047619047615" y="-66.52380952380952" type="line"/>
      <point x="382.85714285714283" y="-66.52380952380952" type="line" smooth="yes"/>
      <point x="326.95238095238096" y="-66.52380952380952"/>
      <point x="316.23809523809524" y="-32.61904761904762"/>
      <point x="316.23809523809524" y="28.190476190476193" type="curve" smooth="yes"/>
      <point x="316.23809523809524" y="198.64285714285714" type="line" smooth="yes"/>
      <point x="316.23809523809524" y="256.4523809523809"/>
      <point x="282.7857142857143" y="292.7142857142857"/>
      <point x="206.7857142857143" y="314.4523809523809" type="curve"/>
      <point x="206.7857142857143" y="325.1904761904762" type="line"/>
      <point x="284.88095238095235" y="345.3809523809524"/>
      <point x="316.23809523809524" y="381.6428571428571"/>
      <point x="316.23809523809524" y="439.45238095238096" type="curve" smooth="yes"/>
      <point x="316.23809523809524" y="609.452380952381" type="line" smooth="yes"/>
      <point x="316.23809523809524" y="669.7142857142858"/>
      <point x="326.95238095238096" y="703.1666666666666"/>
      <point x="382.85714285714283" y="703.1666666666666" type="curve" smooth="yes"/>
      <point x="425.69047619047615" y="703.1666666666666" type="line"/>
      <point x="425.69047619047615" y="760.0" type="line"/>
      <point x="318.64285714285717" y="760.0" type="line" smooth="yes"/>
      <point x="199.52380952380952" y="760.0"/>
      <point x="137.2380952380952" y="706.452380952381"/>
      <point x="137.2380952380952" y="612.9047619047619" type="curve" smooth="yes"/>
      <point x="137.2380952380952" y="441.45238095238096" type="line" smooth="yes"/>
      <point x="137.2380952380952" y="369.1904761904762"/>
      <point x="86.23809523809524" y="355.3809523809524"/>
      <point x="21.785714285714285" y="353.3809523809524" type="curve"/>
      <point x="21.785714285714285" y="284.7142857142857" type="line"/>
      <point x="86.23809523809524" y="281.7142857142857"/>
      <point x="137.2380952380952" y="269.4523809523809"/>
      <point x="137.2380952380952" y="195.64285714285714" type="curve" smooth="yes"/>
      <point x="137.2380952380952" y="25.738095238095237" type="line" smooth="yes"/>
      <point x="137.2380952380952" y="-66.35714285714286"/>
      <point x="199.52380952380952" y="-123.9047619047619"/>
    </contour>
  </outline>
</glyph>
<glyph name="bar" format="2">
  <advance width="559.0"/>
  <unicode hex="007C"/>
  <outline>
    <contour>
      <point x="240.8095238095238" y="-240.0" type="line"/>
      <point x="317.73809523809524" y="-240.0" type="line"/>
      <point x="317.73809523809524" y="760.0" type="line"/>
      <point x="240.8095238095238" y="760.0" type="line"/>
    </contour>
  </outline>
</glyph>
<glyph name="braceright" format="2">
  <advance width="447.4761904761905"/>
  <unicode hex="007D"/>
  <outline>
    <contour>
      <point x="21.785714285714285" y="-123.9047619047619" type="line"/>
      <point x="128.28571428571428" y="-123.9047619047619" type="line" smooth="yes"/>
      <point x="247.95238095238096" y="-123.9047619047619"/>
      <point x="310.23809523809524" y="-66.35714285714286"/>
      <point x="310.23809523809524" y="25.738095238095237" type="curve" smooth="yes"/>
      <point x="310.23809523809524" y="195.64285714285714" type="line" smooth="yes"/>
      <point x="310.23809523809524" y="269.4523809523809"/>
      <point x="361.23809523809524" y="281.7142857142857"/>
      <point x="425.69047619047615" y="284.7142857142857" type="curve"/>
      <point x="425.69047619047615" y="353.3809523809524" type="line"/>
      <point x="361.23809523809524" y="355.3809523809524"/>
      <point x="310.23809523809524" y="369.1904761904762"/>
      <point x="310.23809523809524" y="441.45238095238096" type="curve" smooth="yes"/>
      <point x="310.23809523809524" y="612.9047619047619" type="line" smooth="yes"/>
      <point x="310.23809523809524" y="706.452380952381"/>
      <point x="247.95238095238096" y="760.0"/>
      <point x="128.28571428571428" y="760.0" type="curve" smooth="yes"/>
      <point x="21.785714285714285" y="760.0" type="line"/>
      <point x="21.785714285714285" y="703.1666666666666" type="line"/>
      <point x="64.6190476190476" y="703.1666666666666" type="line" smooth="yes"/>
      <point x="120.52380952380952" y="703.1666666666666"/>
      <point x="131.2380952380952" y="669.7142857142858"/>
      <point x="131.2380952380952" y="609.452380952381" type="curve" smooth="yes"/>
      <point x="131.2380952380952" y="439.45238095238096" type="line" smooth="yes"/>
      <point x="131.2380952380952" y="381.6428571428571"/>
      <point x="162.5952380952381" y="345.3809523809524"/>
      <point x="240.69047619047615" y="325.1904761904762" type="curve"/>
      <point x="240.69047619047615" y="314.4523809523809" type="line"/>
      <point x="164.6904761904762" y="292.7142857142857"/>
      <point x="131.2380952380952" y="256.4523809523809"/>
      <point x="131.2380952380952" y="198.64285714285714" type="curve" smooth="yes"/>
      <point x="131.2380952380952" y="28.190476190476193" type="line" smooth="yes"/>
      <point x="131.2380952380952" y="-32.61904761904762"/>
      <point x="120.52380952380952" y="-66.52380952380952"/>
      <point x="64.6190476190476" y="-66.52380952380952" type="curve" smooth="yes"/>
      <point x="21.785714285714285" y="-66.52380952380952" type="line"/>
    </contour>
  </outline>
</glyph>
<glyph name="asciitilde" format="2">
  <advance width="559.0"/>
  <unicode hex="007E"/>
  <outline>
    <contour>
      <point x="42.71428571428571" y="259.26190476190476" type="curve"/>
      <point x="121.19047619047619" y="259.26190476190476" type="line"/>
      <point x="121.64285714285714" y="343.0"/>
      <point x="142.1904761904762" y="375.26190476190476"/>
      <point x="178.35714285714283" y="375.26190476190476" type="curve" smooth="yes"/>
      <point x="200.54761904761907" y="375.26190476190476"/>
      <point x="211.64285714285714" y="362.42857142857144"/>
      <point x="253.26190476190476" y="324.8095238095238" type="curve" smooth="yes"/>
      <point x="306.90476190476187" y="276.26190476190476"/>
      <point x="335.6190476190476" y="259.26190476190476"/>
      <point x="384.09523809523813" y="259.26190476190476" type="curve" smooth="yes"/>
      <point x="483.0238095238095" y="259.26190476190476"/>
      <point x="511.83333333333337" y="332.95238095238096"/>
      <point x="515.2857142857142" y="453.73809523809524" type="curve"/>
      <point x="435.26190476190476" y="453.73809523809524" type="line"/>
      <point x="433.9047619047619" y="371.90476190476187"/>
      <point x="417.64285714285717" y="337.73809523809524"/>
      <point x="384.2857142857143" y="337.73809523809524" type="curve" smooth="yes"/>
      <point x="363.1904761904762" y="337.73809523809524"/>
      <point x="347.0" y="352.28571428571433"/>
      <point x="307.64285714285717" y="386.1904761904762" type="curve" smooth="yes"/>
      <point x="248.26190476190476" y="437.57142857142856"/>
      <point x="227.09523809523807" y="453.73809523809524"/>
      <point x="181.28571428571428" y="453.73809523809524" type="curve" smooth="yes"/>
      <point x="76.54761904761905" y="453.73809523809524"/>
      <point x="42.71428571428571" y="369.9523809523809"/>
    </contour>
  </outline>
</glyph>
<glyph name="twosuperior" format="2">
  <advance width="400.0"/>
  <unicode hex="00B2"/>
  <outline>
    <contour>
      <point x="29.333333333333332" y="387.0" type="line"/>
      <point x="363.76190476190476" y="387.0" type="line"/>
      <point x="368.3095238095238" y="537.5952380952381" type="line"/>
      <point x="330.2142857142857" y="537.5952380952381" type="line"/>
      <point x="324.6666666666667" y="507.8571428571429" type="line"/>
      <point x="321.2142857142857" y="489.95238095238096"/>
      <point x="310.1190476190476" y="478.14285714285717"/>
      <point x="283.76190476190476" y="478.14285714285717" type="curve"/>
      <point x="112.26190476190476" y="478.14285714285717" type="line"/>
      <point x="179.47619047619048" y="520.7857142857142" type="line"/>
      <point x="325.59523809523813" y="604.6666666666666"/>
      <point x="356.88095238095235" y="646.952380952381"/>
      <point x="356.88095238095235" y="710.8809523809524" type="curve" smooth="yes"/>
      <point x="356.88095238095235" y="776.4285714285713"/>
      <point x="310.88095238095235" y="825.0"/>
      <point x="193.02380952380952" y="825.0" type="curve" smooth="yes"/>
      <point x="86.78571428571429" y="825.0"/>
      <point x="34.595238095238095" y="785.7142857142857"/>
      <point x="34.595238095238095" y="736.6190476190476" type="curve" smooth="yes"/>
      <point x="34.595238095238095" y="695.8095238095239"/>
      <point x="69.64285714285714" y="679.3571428571429"/>
      <point x="132.8095238095238" y="679.3571428571429" type="curve"/>
      <point x="132.8095238095238" y="725.3571428571429"/>
      <point x="138.26190476190476" y="772.8809523809523"/>
      <point x="184.8095238095238" y="772.8809523809523" type="curve" smooth="yes"/>
      <point x="216.61904761904762" y="772.8809523809523"/>
      <point x="231.8095238095238" y="749.5238095238095"/>
      <point x="231.8095238095238" y="712.0" type="curve" smooth="yes"/>
      <point x="231.8095238095238" y="656.452380952381"/>
      <point x="204.5" y="614.4761904761905"/>
      <point x="131.1190476190476" y="555.3809523809524" type="curve" smooth="yes"/>
      <point x="29.333333333333332" y="473.23809523809524" type="line"/>
    </contour>
  </outline>
</glyph>
<glyph name="threesuperior" format="2">
  <advance width="400.0"/>
  <unicode hex="00B3"/>
  <outline>
    <contour>
      <point x="171.02380952380952" y="380.0" type="curve" smooth="yes"/>
      <point x="283.6904761904762" y="380.0"/>
      <point x="369.5" y="423.95238095238096"/>
      <point x="369.5" y="511.0" type="curve" smooth="yes"/>
      <point x="369.5" y="572.3809523809524"/>
      <point x="319.64285714285717" y="602.547619047619"/>
      <point x="255.57142857142856" y="612.0" type="curve"/>
      <point x="255.57142857142856" y="617.0" type="line"/>
      <point x="313.0952380952381" y="631.3571428571429"/>
      <point x="352.5" y="664.8095238095239"/>
      <point x="352.5" y="722.8095238095239" type="curve" smooth="yes"/>
      <point x="352.5" y="784.8095238095239"/>
      <point x="299.61904761904765" y="824.0"/>
      <point x="192.83333333333334" y="824.0" type="curve" smooth="yes"/>
      <point x="86.14285714285714" y="824.0"/>
      <point x="37.238095238095234" y="785.0952380952381"/>
      <point x="37.238095238095234" y="735.547619047619" type="curve" smooth="yes"/>
      <point x="37.238095238095234" y="700.547619047619"/>
      <point x="70.78571428571428" y="689.8095238095237"/>
      <point x="130.26190476190476" y="689.8095238095237" type="curve"/>
      <point x="130.26190476190476" y="735.8095238095237"/>
      <point x="137.88095238095238" y="774.0714285714286"/>
      <point x="180.42857142857144" y="774.0714285714286" type="curve" smooth="yes"/>
      <point x="211.69047619047618" y="774.0714285714286"/>
      <point x="226.88095238095235" y="751.6190476190476"/>
      <point x="226.88095238095235" y="714.452380952381" type="curve" smooth="yes"/>
      <point x="226.88095238095235" y="664.547619047619"/>
      <point x="201.71428571428572" y="635.1904761904763"/>
      <point x="151.71428571428572" y="635.1904761904763" type="curve" smooth="yes"/>
      <point x="116.52380952380952" y="635.1904761904763" type="line"/>
      <point x="116.52380952380952" y="582.1666666666666" type="line"/>
      <point x="151.71428571428572" y="582.1666666666666" type="line" smooth="yes"/>
      <point x="219.23809523809524" y="582.1666666666666"/>
      <point x="242.5" y="554.7142857142857"/>
      <point x="242.5" y="513.547619047619" type="curve" smooth="yes"/>
      <point x="242.5" y="457.1904761904762"/>
      <point x="208.78571428571428" y="437.0238095238095"/>
      <point x="164.35714285714286" y="437.0238095238095" type="curve" smooth="yes"/>
      <point x="118.0952380952381" y="437.0238095238095"/>
      <point x="92.47619047619048" y="468.73809523809524"/>
      <point x="92.47619047619048" y="518.1190476190476" type="curve"/>
      <point x="44.80952380952381" y="518.1190476190476"/>
      <point x="21.69047619047619" y="497.30952380952385"/>
      <point x="21.69047619047619" y="466.92857142857144" type="curve" smooth="yes"/>
      <point x="21.69047619047619" y="417.92857142857144"/>
      <point x="69.78571428571428" y="380.0"/>
    </contour>
  </outline>
</glyph>
<glyph name="multiply" format="2">
  <advance width="559.0"/>
  <unicode hex="00D7"/>
  <outline>
    <contour>
      <point x="139.66666666666666" y="163.83333333333334" type="line"/>
      <point x="279.0" y="304.7142857142857" type="line"/>
      <point x="419.3333333333333" y="163.83333333333334" type="line"/>
      <point x="472.61904761904765" y="217.11904761904762" type="line"/>
      <point x="332.2857142857143" y="358.0" type="line"/>
      <point x="472.61904761904765" y="498.8809523809524" type="line"/>
      <point x="418.33333333333337" y="553.1666666666666" type="line"/>
      <point x="279.0" y="412.8333333333333" type="line"/>
      <point x="139.66666666666666" y="552.1666666666666" type="line"/>
      <point x="84.83333333333333" y="498.8809523809524" type="line"/>
      <point x="224.16666666666666" y="359.0" type="line"/>
      <point x="84.83333333333333" y="218.11904761904762" type="line"/>
    </contour>
  </outline>
</glyph>
<glyph name="divide" format="2">
  <advance width="559.0"/>
  <unicode hex="00F7"/>
  <outline>
    <contour>
      <point x="65.0" y="319.8095238095238" type="line"/>
      <point x="494.0" y="319.8095238095238" type="line"/>
      <point x="494.0" y="395.1904761904762" type="line"/>
      <point x="65.0" y="395.1904761904762" type="line"/>
    </contour>
    <contour>
      <point x="280.0" y="104.80952380952381" type="curve" smooth="yes"/>
      <point x="312.0952380952381" y="104.80952380952381"/>
      <point x="337.64285714285717" y="121.35714285714286"/>
      <point x="337.64285714285717" y="168.0" type="curve" smooth="yes"/>
      <point x="337.64285714285717" y="215.64285714285714"/>
      <point x="312.0952380952381" y="231.1904761904762"/>
      <point x="280.0" y="231.1904761904762" type="curve" smooth="yes"/>
      <point x="246.35714285714286" y="231.1904761904762"/>
      <point x="221.80952380952382" y="215.64285714285714"/>
      <point x="221.80952380952382" y="168.0" type="curve" smooth="yes"/>
      <point x="221.80952380952382" y="121.35714285714286"/>
      <point x="246.35714285714286" y="104.80952380952381"/>
    </contour>
    <contour>
      <point x="280.0" y="483.8095238095238" type="curve" smooth="yes"/>
      <point x="312.0952380952381" y="483.8095238095238"/>
      <point x="337.64285714285717" y="500.3571428571429"/>
      <point x="337.64285714285717" y="547.0" type="curve" smooth="yes"/>
      <point x="337.64285714285717" y="594.6428571428572"/>
      <point x="312.0952380952381" y="610.1904761904761"/>
      <point x="280.0" y="610.1904761904761" type="curve" smooth="yes"/>
      <point x="246.35714285714286" y="610.1904761904761"/>
      <point x="221.80952380952382" y="594.6428571428572"/>
      <point x="221.80952380952382" y="547.0" type="curve" smooth="yes"/>
      <point x="221.80952380952382" y="500.3571428571429"/>
      <point x="246.35714285714286" y="483.8095238095238"/>
    </contour>
  </outline>
</glyph>
<glyph name="udatta-deva" format="2">
  <unicode hex="0951"/>
  <anchor x="0.0" y="574.5" name="_vedic"/>
  <outline>
    <contour>
      <point x="-43.28571428571429" y="951.9047619047619" type="line"/>
      <point x="43.28571428571429" y="951.9047619047619" type="line"/>
      <point x="43.28571428571429" y="1158.547619047619" type="line"/>
      <point x="-43.28571428571429" y="1158.547619047619" type="line"/>
    </contour>
  </outline>
</glyph>
<glyph name="anudatta-deva" format="2">
  <unicode hex="0952"/>
  <anchor x="0.0" y="0.0" name="_bottom"/>
  <outline>
    <contour>
      <point x="-188.0" y="-617.8095238095239" type="line"/>
      <point x="188.0" y="-617.8095238095239" type="line"/>
      <point x="188.0" y="-522.4285714285714" type="line"/>
      <point x="-188.0" y="-522.4285714285714" type="line"/>
    </contour>
  </outline>
</glyph>
<glyph name="danda-deva" format="2">
  <advance width="370.1666666666667"/>
  <unicode hex="0964"/>
  <outline>
    <contour>
      <point x="87.52380952380952" y="0.0" type="line"/>
      <point x="282.64285714285717" y="0.0" type="line"/>
      <point x="282.64285714285717" y="574.5" type="line"/>
      <point x="87.52380952380952" y="574.5" type="line"/>
    </contour>
  </outline>
</glyph>
<glyph name="dbldanda-deva" format="2">
  <advance width="690.0952380952382"/>
  <unicode hex="0965"/>
  <outline>
    <contour>
      <point x="407.45238095238096" y="0.0" type="line"/>
      <point x="602.5714285714286" y="0.0" type="line"/>
      <point x="602.5714285714286" y="574.5" type="line"/>
      <point x="407.45238095238096" y="574.5" type="line"/>
    </contour>
    <contour>
      <point x="87.52380952380952" y="0.0" type="line"/>
      <point x="282.64285714285717" y="0.0" type="line"/>
      <point x="282.64285714285717" y="574.5" type="line"/>
      <point x="87.52380952380952" y="574.5" type="line"/>
    </contour>
  </outline>
</glyph>
<glyph name="anusvara-tamil" format="2">
  <unicode hex="0B82"/>
  <note>
uni0B82
</note>
  <anchor x="0.0" y="574.5" name="_top"/>
  <outline>
    <contour>
      <point x="0.0" y="624.3809523809524" type="curve" smooth="yes"/>
      <point x="82.28571428571429" y="624.3809523809524"/>
      <point x="149.02380952380955" y="688.6666666666666"/>
      <point x="149.02380952380955" y="773.952380952381" type="curve" smooth="yes"/>
      <point x="149.02380952380955" y="859.7857142857143"/>
      <point x="82.28571428571429" y="923.5238095238096"/>
      <point x="0.0" y="923.5238095238096" type="curve" smooth="yes"/>
      <point x="-82.28571428571429" y="923.5238095238096"/>
      <point x="-149.02380952380955" y="859.7857142857143"/>
      <point x="-149.02380952380955" y="773.952380952381" type="curve" smooth="yes"/>
      <point x="-149.02380952380955" y="688.6666666666666"/>
      <point x="-82.28571428571429" y="624.3809523809524"/>
    </contour>
    <contour>
      <point x="0.0" y="707.952380952381" type="curve" smooth="yes"/>
      <point x="-34.0" y="707.952380952381"/>
      <point x="-63.54761904761905" y="736.952380952381"/>
      <point x="-63.54761904761905" y="773.952380952381" type="curve" smooth="yes"/>
      <point x="-63.54761904761905" y="809.952380952381"/>
      <point x="-34.0" y="838.952380952381"/>
      <point x="0.0" y="838.952380952381" type="curve" smooth="yes"/>
      <point x="34.0" y="838.952380952381"/>
      <point x="63.54761904761905" y="809.952380952381"/>
      <point x="63.54761904761905" y="773.952380952381" type="curve" smooth="yes"/>
      <point x="63.54761904761905" y="736.952380952381"/>
      <point x="34.0" y="707.952380952381"/>
    </contour>
  </outline>
</glyph>
<glyph name="visarga-tamil" format="2">
  <advance width="957.4285714285714"/>
  <unicode hex="0B83"/>
  <note>
uni0B83
</note>
  <outline>
    <contour>
      <point x="713.3333333333334" y="-5.0" type="curve" smooth="yes"/>
      <point x="836.3333333333334" y="-5.0"/>
      <point x="911.6190476190476" y="69.45238095238095"/>
      <point x="911.6190476190476" y="186.19047619047618" type="curve" smooth="yes"/>
      <point x="911.6190476190476" y="302.92857142857144"/>
      <point x="835.7857142857143" y="376.38095238095235"/>
      <point x="716.6190476190477" y="376.38095238095235" type="curve" smooth="yes"/>
      <point x="597.5" y="376.38095238095235"/>
      <point x="526.0238095238095" y="291.2857142857143"/>
      <point x="526.0238095238095" y="182.35714285714283" type="curve" smooth="yes"/>
      <point x="526.0238095238095" y="78.35714285714286"/>
      <point x="594.2142857142858" y="-5.0"/>
    </contour>
    <contour>
      <point x="233.47619047619045" y="-5.0" type="curve" smooth="yes"/>
      <point x="357.0238095238096" y="-5.0"/>
      <point x="431.30952380952385" y="69.45238095238095"/>
      <point x="431.30952380952385" y="186.19047619047618" type="curve" smooth="yes"/>
      <point x="431.30952380952385" y="302.92857142857144"/>
      <point x="355.92857142857144" y="376.38095238095235"/>
      <point x="237.3095238095238" y="376.38095238095235" type="curve" smooth="yes"/>
      <point x="117.73809523809524" y="376.38095238095235"/>
      <point x="46.261904761904766" y="291.2857142857143"/>
      <point x="46.261904761904766" y="182.35714285714283" type="curve" smooth="yes"/>
      <point x="46.261904761904766" y="78.35714285714286"/>
      <point x="113.90476190476191" y="-5.0"/>
    </contour>
    <contour>
      <point x="480.23809523809524" y="439.0952380952381" type="curve" smooth="yes"/>
      <point x="603.2380952380953" y="439.0952380952381"/>
      <point x="678.0714285714286" y="515.3571428571429"/>
      <point x="678.0714285714286" y="629.8333333333334" type="curve" smooth="yes"/>
      <point x="678.0714285714286" y="746.5714285714286"/>
      <point x="602.6904761904763" y="820.0238095238095"/>
      <point x="483.5238095238095" y="820.0238095238095" type="curve" smooth="yes"/>
      <point x="364.4047619047619" y="820.0238095238095"/>
      <point x="292.4761904761905" y="735.4761904761905"/>
      <point x="292.4761904761905" y="626.0" type="curve" smooth="yes"/>
      <point x="292.4761904761905" y="522.0"/>
      <point x="361.11904761904765" y="439.0952380952381"/>
    </contour>
    <contour>
      <point x="210.35714285714286" y="66.88095238095238" type="curve" smooth="yes"/>
      <point x="150.9047619047619" y="66.88095238095238"/>
      <point x="118.57142857142857" y="120.42857142857143"/>
      <point x="118.57142857142857" y="186.19047619047618" type="curve" smooth="yes"/>
      <point x="118.57142857142857" y="253.6904761904762"/>
      <point x="152.54761904761904" y="304.5"/>
      <point x="210.35714285714286" y="304.5" type="curve" smooth="yes"/>
      <point x="266.8809523809524" y="304.5"/>
      <point x="294.59523809523813" y="260.26190476190476"/>
      <point x="294.59523809523813" y="186.19047619047618" type="curve" smooth="yes"/>
      <point x="294.59523809523813" y="114.4047619047619"/>
      <point x="263.59523809523813" y="66.88095238095238"/>
    </contour>
    <contour>
      <point x="457.0238095238095" y="510.9761904761905" type="curve" smooth="yes"/>
      <point x="397.6666666666667" y="510.9761904761905"/>
      <point x="365.23809523809524" y="564.6190476190477"/>
      <point x="365.23809523809524" y="629.8333333333334" type="curve" smooth="yes"/>
      <point x="365.23809523809524" y="697.3333333333333"/>
      <point x="398.7619047619048" y="748.1428571428571"/>
      <point x="457.0238095238095" y="748.1428571428571" type="curve" smooth="yes"/>
      <point x="513.547619047619" y="748.1428571428571"/>
      <point x="540.8095238095237" y="703.9047619047619"/>
      <point x="540.8095238095237" y="629.8333333333334" type="curve" smooth="yes"/>
      <point x="540.8095238095237" y="558.047619047619"/>
      <point x="510.26190476190476" y="510.9761904761905"/>
    </contour>
    <contour>
      <point x="690.1190476190477" y="66.88095238095238" type="curve" smooth="yes"/>
      <point x="631.2142857142857" y="66.88095238095238"/>
      <point x="598.3333333333334" y="120.42857142857143"/>
      <point x="598.3333333333334" y="186.19047619047618" type="curve" smooth="yes"/>
      <point x="598.3333333333334" y="253.6904761904762"/>
      <point x="632.3095238095237" y="304.5"/>
      <point x="690.1190476190477" y="304.5" type="curve" smooth="yes"/>
      <point x="746.6428571428571" y="304.5"/>
      <point x="773.9047619047618" y="260.26190476190476"/>
      <point x="773.9047619047618" y="186.19047619047618" type="curve" smooth="yes"/>
      <point x="773.9047619047618" y="114.4047619047619"/>
      <point x="743.3571428571428" y="66.88095238095238"/>
    </contour>
  </outline>
</glyph>
<glyph name="a-tamil" format="2">
  <advance width="1443.904761904762"/>
  <unicode hex="0B85"/>
  <note>
uni0B85
</note>
  <anchor x="678.4761904761905" y="0.0" name="bottom"/>
  <anchor x="479.95238095238096" y="-172.90476190476193" name="nukta"/>
  <anchor x="680.4047619047619" y="574.5" name="top"/>
  <anchor x="680.4047619047619" y="574.5" name="vedic"/>
  <outline>
    <contour>
      <point x="1171.547619047619" y="-248.80952380952382" type="line"/>
      <point x="1362.7619047619048" y="-248.80952380952382" type="line"/>
      <point x="1362.7619047619048" y="574.5" type="line"/>
      <point x="1171.547619047619" y="574.5" type="line"/>
      <point x="1171.547619047619" y="155.69047619047618" type="line"/>
      <point x="127.45238095238095" y="155.69047619047618" type="line" smooth="yes"/>
      <point x="62.095238095238095" y="155.69047619047618"/>
      <point x="25.16666666666667" y="120.23809523809523"/>
      <point x="25.16666666666667" y="70.33333333333333" type="curve" smooth="yes"/>
      <point x="25.16666666666667" y="-65.14285714285715"/>
      <point x="226.3095238095238" y="-172.90476190476193"/>
      <point x="479.95238095238096" y="-172.90476190476193" type="curve" smooth="yes"/>
      <point x="836.7380952380952" y="-172.90476190476193"/>
      <point x="1059.4761904761906" y="-22.000000000000007"/>
      <point x="1059.4761904761906" y="232.16666666666666" type="curve" smooth="yes"/>
      <point x="1059.4761904761906" y="429.85714285714283"/>
      <point x="912.0952380952381" y="579.5"/>
      <point x="665.0714285714286" y="579.5" type="curve" smooth="yes"/>
      <point x="478.6190476190476" y="579.5"/>
      <point x="395.2857142857143" y="485.1904761904762"/>
      <point x="395.2857142857143" y="379.1904761904762" type="curve" smooth="yes"/>
      <point x="395.2857142857143" y="283.0714285714286"/>
      <point x="469.5" y="212.42857142857144"/>
      <point x="576.5" y="212.42857142857144" type="curve" smooth="yes"/>
      <point x="689.3809523809524" y="212.42857142857144"/>
      <point x="760.9047619047619" y="280.04761904761904"/>
      <point x="760.9047619047619" y="368.92857142857144" type="curve" smooth="yes"/>
      <point x="760.9047619047619" y="452.33333333333337"/>
      <point x="699.8333333333333" y="515.3571428571429"/>
      <point x="611.0952380952381" y="537.2619047619047" type="curve"/>
      <point x="528.547619047619" y="525.1428571428571" type="line"/>
      <point x="595.047619047619" y="497.35714285714283"/>
      <point x="643.9047619047619" y="451.35714285714283"/>
      <point x="643.9047619047619" y="387.64285714285717" type="curve" smooth="yes"/>
      <point x="643.9047619047619" y="343.73809523809524"/>
      <point x="613.9047619047619" y="302.26190476190476"/>
      <point x="558.4285714285714" y="302.26190476190476" type="curve" smooth="yes"/>
      <point x="516.047619047619" y="302.26190476190476"/>
      <point x="478.1428571428571" y="328.9047619047619"/>
      <point x="478.1428571428571" y="390.1904761904762" type="curve" smooth="yes"/>
      <point x="478.1428571428571" y="449.38095238095235"/>
      <point x="529.4047619047619" y="510.3809523809524"/>
      <point x="645.8809523809524" y="510.3809523809524" type="curve" smooth="yes"/>
      <point x="763.952380952381" y="510.3809523809524"/>
      <point x="875.4761904761905" y="440.90476190476187"/>
      <point x="875.4761904761905" y="254.40476190476193" type="curve" smooth="yes"/>
      <point x="875.4761904761905" y="-10.809523809523817"/>
      <point x="673.9285714285714" y="-103.78571428571429"/>
      <point x="454.92857142857144" y="-103.78571428571429" type="curve" smooth="yes"/>
      <point x="261.3809523809524" y="-103.78571428571429"/>
      <point x="107.95238095238096" y="-21.619047619047624"/>
      <point x="107.95238095238096" y="58.02380952380952" type="curve" smooth="yes"/>
      <point x="107.95238095238096" y="76.57142857142857"/>
      <point x="118.04761904761905" y="85.92857142857142"/>
      <point x="145.04761904761907" y="85.92857142857142" type="curve" smooth="yes"/>
      <point x="1171.547619047619" y="85.92857142857142" type="line"/>
    </contour>
  </outline>
</glyph>
<glyph name="aa-tamil" format="2">
  <advance width="1713.7142857142856"/>
  <unicode hex="0B86"/>
  <note>
uni0B86
</note>
  <anchor x="832.6904761904761" y="0.0" name="bottom"/>
  <anchor x="479.95238095238096" y="-172.90476190476193" name="nukta"/>
  <anchor x="834.7142857142858" y="574.5" name="top"/>
  <anchor x="834.6190476190477" y="574.5" name="vedic"/>
  <outline>
    <contour>
      <point x="1167.1666666666667" y="-477.5238095238095" type="curve" smooth="yes"/>
      <point x="1443.547619047619" y="-477.5238095238095"/>
      <point x="1687.8095238095239" y="-352.26190476190476"/>
      <point x="1687.8095238095239" y="-92.23809523809524" type="curve" smooth="yes"/>
      <point x="1687.8095238095239" y="32.35714285714286"/>
      <point x="1616.7619047619048" y="101.52380952380953"/>
      <point x="1516.5714285714287" y="101.52380952380953" type="curve" smooth="yes"/>
      <point x="1404.7380952380954" y="101.52380952380953"/>
      <point x="1330.8333333333335" y="25.476190476190478"/>
      <point x="1319.0" y="-122.33333333333333" type="curve"/>
      <point x="1362.2142857142858" y="-129.33333333333334" type="line"/>
      <point x="1361.1190476190477" y="-62.85714285714286"/>
      <point x="1398.0" y="-26.095238095238095"/>
      <point x="1438.6666666666667" y="-26.095238095238095" type="curve" smooth="yes"/>
      <point x="1481.6666666666667" y="-26.095238095238095"/>
      <point x="1505.1190476190477" y="-58.54761904761905"/>
      <point x="1505.1190476190477" y="-106.19047619047619" type="curve" smooth="yes"/>
      <point x="1505.1190476190477" y="-292.4047619047619"/>
      <point x="1351.8333333333335" y="-406.6666666666667"/>
      <point x="1154.1666666666665" y="-406.6666666666667" type="curve" smooth="yes"/>
      <point x="1045.2380952380952" y="-406.6666666666667"/>
      <point x="935.8333333333334" y="-372.66666666666663"/>
      <point x="935.8333333333334" y="-297.88095238095235" type="curve" smooth="yes"/>
      <point x="935.8333333333334" y="-247.8095238095238"/>
      <point x="976.5" y="-215.26190476190476"/>
      <point x="1044.6190476190477" y="-204.33333333333334" type="curve"/>
      <point x="1030.0714285714287" y="-138.3095238095238" type="line"/>
      <point x="920.3571428571429" y="-159.7857142857143"/>
      <point x="860.2380952380953" y="-210.26190476190476"/>
      <point x="860.2380952380953" y="-295.5238095238095" type="curve" smooth="yes"/>
      <point x="860.2380952380953" y="-413.95238095238096"/>
      <point x="992.452380952381" y="-477.5238095238095"/>
    </contour>
    <component base="a-tamil"/>
  </outline>
</glyph>
<glyph name="i-tamil" format="2">
  <advance width="1123.7380952380952"/>
  <unicode hex="0B87"/>
  <note>
uni0B87
</note>
  <anchor x="535.8809523809524" y="0.0" name="bottom"/>
  <anchor x="533.8809523809524" y="-295.33333333333337" name="nukta"/>
  <anchor x="558.3095238095239" y="869.5714285714286" name="top"/>
  <anchor x="541.8809523809524" y="574.5" name="vedic"/>
  <outline>
    <contour>
      <point x="253.38095238095238" y="-331.0238095238096" type="curve" smooth="yes"/>
      <point x="606.8095238095237" y="-331.0238095238096"/>
      <point x="893.4761904761905" y="-63.16666666666666"/>
      <point x="893.4761904761905" y="227.88095238095238" type="curve" smooth="yes"/>
      <point x="893.4761904761905" y="427.95238095238096"/>
      <point x="759.5" y="579.5"/>
      <point x="530.1190476190477" y="579.5" type="curve" smooth="yes"/>
      <point x="348.2142857142857" y="579.5"/>
      <point x="270.95238095238096" y="486.09523809523813"/>
      <point x="270.95238095238096" y="381.9047619047619" type="curve" smooth="yes"/>
      <point x="270.95238095238096" y="286.6904761904762"/>
      <point x="345.7142857142857" y="216.95238095238093"/>
      <point x="445.4761904761905" y="216.95238095238093" type="curve" smooth="yes"/>
      <point x="553.7380952380953" y="216.95238095238093"/>
      <point x="625.8095238095237" y="280.95238095238096"/>
      <point x="625.8095238095237" y="373.45238095238096" type="curve" smooth="yes"/>
      <point x="625.8095238095237" y="460.0238095238096"/>
      <point x="554.6904761904763" y="519.8809523809524"/>
      <point x="465.5" y="541.7857142857143" type="curve"/>
      <point x="394.2619047619048" y="529.2142857142857" type="line"/>
      <point x="463.92857142857144" y="500.9761904761905"/>
      <point x="507.8095238095238" y="452.7142857142857"/>
      <point x="507.8095238095238" y="389.45238095238096" type="curve" smooth="yes"/>
      <point x="507.8095238095238" y="343.2857142857143"/>
      <point x="479.26190476190476" y="305.8809523809524"/>
      <point x="426.4047619047619" y="305.8809523809524" type="curve" smooth="yes"/>
      <point x="385.92857142857144" y="305.8809523809524"/>
      <point x="350.2857142857143" y="332.5238095238095"/>
      <point x="350.2857142857143" y="390.19047619047615" type="curve" smooth="yes"/>
      <point x="350.2857142857143" y="449.3809523809524"/>
      <point x="394.4761904761905" y="510.83333333333337"/>
      <point x="511.0238095238096" y="510.83333333333337" type="curve" smooth="yes"/>
      <point x="652.2380952380952" y="510.83333333333337"/>
      <point x="712.7619047619048" y="403.07142857142856"/>
      <point x="712.7619047619048" y="228.71428571428572" type="curve" smooth="yes"/>
      <point x="712.7619047619048" y="-7.095238095238081"/>
      <point x="572.3333333333334" y="-256.42857142857144"/>
      <point x="253.92857142857144" y="-256.42857142857144" type="curve" smooth="yes"/>
      <point x="166.45238095238093" y="-256.42857142857144"/>
      <point x="117.66666666666666" y="-218.61904761904762"/>
      <point x="117.66666666666666" y="-151.97619047619048" type="curve" smooth="yes"/>
      <point x="117.66666666666666" y="-30.642857142857142"/>
      <point x="347.5" y="40.52380952380952"/>
      <point x="538.5" y="40.52380952380952" type="curve" smooth="yes"/>
      <point x="729.8095238095239" y="40.52380952380952"/>
      <point x="969.8095238095239" y="-21.428571428571427"/>
      <point x="969.8095238095239" y="-155.92857142857142" type="curve" smooth="yes"/>
      <point x="969.8095238095239" y="-226.04761904761907"/>
      <point x="912.047619047619" y="-256.42857142857144"/>
      <point x="828.2142857142858" y="-256.42857142857144" type="curve" smooth="yes"/>
      <point x="506.6428571428571" y="-256.42857142857144"/>
      <point x="138.38095238095238" y="47.42857142857143"/>
      <point x="138.38095238095238" y="352.35714285714283" type="curve" smooth="yes"/>
      <point x="138.38095238095238" y="598.0952380952381"/>
      <point x="322.59523809523813" y="728.4047619047619"/>
      <point x="557.952380952381" y="728.4047619047619" type="curve" smooth="yes"/>
      <point x="812.547619047619" y="728.4047619047619"/>
      <point x="997.547619047619" y="592.8095238095239"/>
      <point x="997.547619047619" y="327.5952380952381" type="curve" smooth="yes"/>
      <point x="997.547619047619" y="102.9047619047619" type="line"/>
      <point x="1076.3095238095239" y="102.9047619047619" type="line"/>
      <point x="1076.3095238095239" y="337.5952380952381" type="line" smooth="yes"/>
      <point x="1076.3095238095239" y="698.452380952381"/>
      <point x="868.7619047619048" y="869.5714285714286"/>
      <point x="558.3095238095239" y="869.5714285714286" type="curve" smooth="yes"/>
      <point x="261.2142857142857" y="869.5714285714286"/>
      <point x="53.142857142857146" y="681.1666666666667"/>
      <point x="53.142857142857146" y="401.14285714285717" type="curve" smooth="yes"/>
      <point x="53.142857142857146" y="12.285714285714278"/>
      <point x="494.23809523809524" y="-330.5714285714286"/>
      <point x="845.7857142857142" y="-330.5714285714286" type="curve" smooth="yes"/>
      <point x="969.5952380952382" y="-330.5714285714286"/>
      <point x="1056.142857142857" y="-271.2857142857143"/>
      <point x="1056.142857142857" y="-174.38095238095238" type="curve" smooth="yes"/>
      <point x="1056.142857142857" y="29.30952380952381"/>
      <point x="782.9285714285714" y="105.9047619047619"/>
      <point x="538.4047619047619" y="105.9047619047619" type="curve" smooth="yes"/>
      <point x="297.2142857142857" y="105.9047619047619"/>
      <point x="33.523809523809526" y="11.619047619047619"/>
      <point x="33.523809523809526" y="-155.90476190476193" type="curve" smooth="yes"/>
      <point x="33.523809523809526" y="-267.8333333333333"/>
      <point x="119.78571428571428" y="-331.0238095238096"/>
    </contour>
  </outline>
</glyph>
<glyph name="ii-tamil" format="2">
  <advance width="934.0952380952382"/>
  <unicode hex="0B88"/>
  <note>
uni0B88
</note>
  <anchor x="475.2142857142857" y="0.0" name="bottom"/>
  <anchor x="475.76190476190476" y="0.0" name="nukta"/>
  <anchor x="478.3095238095238" y="574.5" name="top"/>
  <anchor x="478.2142857142857" y="574.5" name="vedic"/>
  <outline>
    <contour>
      <point x="80.69047619047619" y="0.0" type="line"/>
      <point x="158.35714285714286" y="0.0" type="line"/>
      <point x="158.35714285714286" y="505.83333333333337" type="line"/>
      <point x="448.6904761904762" y="505.83333333333337" type="line"/>
      <point x="448.6904761904762" y="0.0" type="line"/>
      <point x="643.6190476190476" y="0.0" type="line"/>
      <point x="643.6190476190476" y="505.83333333333337" type="line"/>
      <point x="880.3571428571429" y="505.83333333333337" type="line"/>
      <point x="880.3571428571429" y="574.5" type="line"/>
      <point x="80.69047619047619" y="574.5" type="line"/>
    </contour>
    <contour>
      <point x="304.07142857142856" y="188.83333333333334" type="curve" smooth="yes"/>
      <point x="350.61904761904765" y="188.83333333333334"/>
      <point x="389.26190476190476" y="227.47619047619048"/>
      <point x="389.26190476190476" y="272.5714285714286" type="curve" smooth="yes"/>
      <point x="389.26190476190476" y="317.76190476190476"/>
      <point x="351.1666666666667" y="355.85714285714283"/>
      <point x="304.07142857142856" y="355.85714285714283" type="curve" smooth="yes"/>
      <point x="256.9761904761905" y="355.85714285714283"/>
      <point x="218.88095238095238" y="317.76190476190476"/>
      <point x="218.88095238095238" y="272.5714285714286" type="curve" smooth="yes"/>
      <point x="218.88095238095238" y="227.47619047619048"/>
      <point x="256.9761904761905" y="188.83333333333334"/>
    </contour>
    <contour>
      <point x="785.5952380952381" y="188.83333333333334" type="curve" smooth="yes"/>
      <point x="833.1428571428571" y="188.83333333333334"/>
      <point x="871.3333333333334" y="227.47619047619048"/>
      <point x="871.3333333333334" y="272.5714285714286" type="curve" smooth="yes"/>
      <point x="871.3333333333334" y="317.76190476190476"/>
      <point x="833.1428571428571" y="355.85714285714283"/>
      <point x="786.1428571428572" y="355.85714285714283" type="curve" smooth="yes"/>
      <point x="739.047619047619" y="355.85714285714283"/>
      <point x="700.4047619047619" y="317.76190476190476"/>
      <point x="700.4047619047619" y="272.5714285714286" type="curve" smooth="yes"/>
      <point x="700.4047619047619" y="227.47619047619048"/>
      <point x="739.047619047619" y="188.83333333333334"/>
    </contour>
  </outline>
</glyph>
<glyph name="u-tamil" format="2">
  <advance width="1030.547619047619"/>
  <unicode hex="0B89"/>
  <note>
uni0B89
</note>
  <anchor x="516.547619047619" y="0.0" name="bottom"/>
  <anchor x="516.547619047619" y="0.0" name="nukta"/>
  <anchor x="520.547619047619" y="574.5" name="top"/>
  <anchor x="519.547619047619" y="574.5" name="vedic"/>
  <outline>
    <contour>
      <point x="144.0952380952381" y="0.0" type="curve" smooth="yes"/>
      <point x="1023.7380952380953" y="0.0" type="line"/>
      <point x="1023.7380952380953" y="68.66666666666667" type="line"/>
      <point x="138.09523809523807" y="68.66666666666667" type="line" smooth="yes"/>
      <point x="120.28571428571428" y="68.66666666666667"/>
      <point x="106.73809523809524" y="79.38095238095238"/>
      <point x="106.73809523809524" y="98.83333333333333" type="curve" smooth="yes"/>
      <point x="106.73809523809524" y="118.73809523809524"/>
      <point x="120.28571428571428" y="129.54761904761904"/>
      <point x="138.09523809523807" y="129.54761904761904" type="curve" smooth="yes"/>
      <point x="419.1666666666667" y="129.54761904761904" type="line" smooth="yes"/>
      <point x="620.2857142857143" y="129.54761904761904"/>
      <point x="747.4047619047619" y="187.7857142857143"/>
      <point x="747.4047619047619" y="335.54761904761904" type="curve" smooth="yes"/>
      <point x="747.4047619047619" y="484.8809523809524"/>
      <point x="616.8095238095239" y="579.5"/>
      <point x="403.38095238095235" y="579.5" type="curve" smooth="yes"/>
      <point x="205.38095238095238" y="579.5"/>
      <point x="114.78571428571428" y="494.14285714285717"/>
      <point x="114.78571428571428" y="388.85714285714283" type="curve" smooth="yes"/>
      <point x="114.78571428571428" y="293.73809523809524"/>
      <point x="189.26190476190476" y="239.83333333333331"/>
      <point x="285.73809523809524" y="239.83333333333331" type="curve" smooth="yes"/>
      <point x="391.3095238095238" y="239.83333333333331"/>
      <point x="457.66666666666663" y="293.61904761904765"/>
      <point x="457.66666666666663" y="372.7619047619048" type="curve" smooth="yes"/>
      <point x="457.66666666666663" y="452.9761904761905"/>
      <point x="401.76190476190476" y="513.0"/>
      <point x="298.1666666666667" y="535.0714285714286" type="curve"/>
      <point x="230.0952380952381" y="529.5238095238095" type="line"/>
      <point x="305.5" y="497.4761904761905"/>
      <point x="344.92857142857144" y="457.23809523809524"/>
      <point x="344.92857142857144" y="398.7857142857143" type="curve" smooth="yes"/>
      <point x="344.92857142857144" y="352.5"/>
      <point x="313.2857142857143" y="325.6904761904762"/>
      <point x="269.54761904761904" y="325.6904761904762" type="curve" smooth="yes"/>
      <point x="228.38095238095238" y="325.6904761904762"/>
      <point x="196.54761904761904" y="352.40476190476187"/>
      <point x="196.54761904761904" y="398.95238095238096" type="curve" smooth="yes"/>
      <point x="196.54761904761904" y="459.9761904761905"/>
      <point x="247.5" y="510.92857142857144"/>
      <point x="365.14285714285717" y="510.92857142857144" type="curve" smooth="yes"/>
      <point x="481.4761904761905" y="510.92857142857144"/>
      <point x="563.952380952381" y="455.4761904761905"/>
      <point x="563.952380952381" y="347.64285714285717" type="curve" smooth="yes"/>
      <point x="563.952380952381" y="244.66666666666669"/>
      <point x="502.7857142857143" y="194.57142857142858"/>
      <point x="391.4285714285714" y="194.57142857142858" type="curve" smooth="yes"/>
      <point x="144.0952380952381" y="194.57142857142858" type="line" smooth="yes"/>
      <point x="74.6190476190476" y="194.57142857142858"/>
      <point x="33.523809523809526" y="159.73809523809524"/>
      <point x="33.523809523809526" y="98.28571428571428" type="curve" smooth="yes"/>
      <point x="33.523809523809526" y="36.73809523809524"/>
      <point x="74.6190476190476" y="0.0"/>
    </contour>
  </outline>
</glyph>
<glyph name="uu-tamil" format="2">
  <advance width="1924.5238095238096"/>
  <unicode hex="0B8A"/>
  <note>
uni0B8A
</note>
  <anchor x="968.7142857142858" y="0.0" name="bottom"/>
  <anchor x="968.7142857142857" y="0.0" name="nukta"/>
  <anchor x="971.1666666666666" y="574.5" name="top"/>
  <anchor x="971.7142857142858" y="574.5" name="vedic"/>
  <outline>
    <contour>
      <point x="144.0952380952381" y="0.0" type="curve" smooth="yes"/>
      <point x="1860.595238095238" y="0.0" type="line"/>
      <point x="1860.595238095238" y="68.66666666666667" type="line"/>
      <point x="138.09523809523807" y="68.66666666666667" type="line" smooth="yes"/>
      <point x="120.28571428571428" y="68.66666666666667"/>
      <point x="106.73809523809524" y="79.38095238095238"/>
      <point x="106.73809523809524" y="98.83333333333333" type="curve" smooth="yes"/>
      <point x="106.73809523809524" y="118.73809523809524"/>
      <point x="120.28571428571428" y="129.54761904761904"/>
      <point x="138.09523809523807" y="129.54761904761904" type="curve" smooth="yes"/>
      <point x="419.1666666666667" y="129.54761904761904" type="line" smooth="yes"/>
      <point x="620.2857142857143" y="129.54761904761904"/>
      <point x="747.4047619047619" y="187.7857142857143"/>
      <point x="747.4047619047619" y="335.54761904761904" type="curve" smooth="yes"/>
      <point x="747.4047619047619" y="484.8809523809524"/>
      <point x="616.8095238095239" y="579.5"/>
      <point x="403.38095238095235" y="579.5" type="curve" smooth="yes"/>
      <point x="205.38095238095238" y="579.5"/>
      <point x="114.78571428571428" y="494.14285714285717"/>
      <point x="114.78571428571428" y="388.85714285714283" type="curve" smooth="yes"/>
      <point x="114.78571428571428" y="293.73809523809524"/>
      <point x="189.26190476190476" y="239.83333333333331"/>
      <point x="285.73809523809524" y="239.83333333333331" type="curve" smooth="yes"/>
      <point x="391.3095238095238" y="239.83333333333331"/>
      <point x="457.66666666666663" y="293.61904761904765"/>
      <point x="457.66666666666663" y="372.7619047619048" type="curve" smooth="yes"/>
      <point x="457.66666666666663" y="452.9761904761905"/>
      <point x="401.76190476190476" y="513.0"/>
      <point x="298.1666666666667" y="535.0714285714286" type="curve"/>
      <point x="230.0952380952381" y="529.5238095238095" type="line"/>
      <point x="305.5" y="497.4761904761905"/>
      <point x="344.92857142857144" y="457.23809523809524"/>
      <point x="344.92857142857144" y="398.7857142857143" type="curve" smooth="yes"/>
      <point x="344.92857142857144" y="352.5"/>
      <point x="313.2857142857143" y="325.6904761904762"/>
      <point x="269.54761904761904" y="325.6904761904762" type="curve" smooth="yes"/>
      <point x="228.38095238095238" y="325.6904761904762"/>
      <point x="196.54761904761904" y="352.40476190476187"/>
      <point x="196.54761904761904" y="398.95238095238096" type="curve" smooth="yes"/>
      <point x="196.54761904761904" y="459.9761904761905"/>
      <point x="247.5" y="510.92857142857144"/>
      <point x="365.14285714285717" y="510.92857142857144" type="curve" smooth="yes"/>
      <point x="481.4761904761905" y="510.92857142857144"/>
      <point x="563.952380952381" y="455.4761904761905"/>
      <point x="563.952380952381" y="347.64285714285717" type="curve" smooth="yes"/>
      <point x="563.952380952381" y="244.66666666666669"/>
      <point x="502.7857142857143" y="194.57142857142858"/>
      <point x="391.4285714285714" y="194.57142857142858" type="curve" smooth="yes"/>
      <point x="144.0952380952381" y="194.57142857142858" type="line" smooth="yes"/>
      <point x="74.6190476190476" y="194.57142857142858"/>
      <point x="33.523809523809526" y="159.73809523809524"/>
      <point x="33.523809523809526" y="98.28571428571428" type="curve" smooth="yes"/>
      <point x="33.523809523809526" y="36.73809523809524"/>
      <point x="74.6190476190476" y="0.0"/>
    </contour>
    <contour>
      <point x="1044.7142857142858" y="123.45238095238096" type="curve" smooth="yes"/>
      <point x="1148.0" y="123.45238095238096"/>
      <point x="1229.857142857143" y="169.19047619047618"/>
      <point x="1229.857142857143" y="267.1190476190476" type="curve" smooth="yes"/>
      <point x="1229.857142857143" y="356.8809523809524"/>
      <point x="1161.7380952380954" y="405.23809523809524"/>
      <point x="1075.6666666666667" y="405.23809523809524" type="curve" smooth="yes"/>
      <point x="965.1666666666667" y="405.23809523809524"/>
      <point x="897.5" y="324.73809523809524"/>
      <point x="895.7857142857142" y="223.21428571428572" type="curve"/>
      <point x="940.9047619047619" y="202.92857142857142" type="line"/>
      <point x="944.1666666666667" y="274.4761904761905"/>
      <point x="984.6428571428571" y="333.8333333333333"/>
      <point x="1038.357142857143" y="333.8333333333333" type="curve" smooth="yes"/>
      <point x="1079.095238095238" y="333.8333333333333"/>
      <point x="1105.8095238095239" y="307.3809523809524"/>
      <point x="1105.8095238095239" y="267.64285714285717" type="curve" smooth="yes"/>
      <point x="1105.8095238095239" y="220.66666666666666"/>
      <point x="1068.642857142857" y="194.11904761904762"/>
      <point x="1018.3809523809524" y="194.11904761904762" type="curve" smooth="yes"/>
      <point x="957.7619047619048" y="194.11904761904762"/>
      <point x="895.7857142857143" y="239.71428571428572"/>
      <point x="895.7857142857143" y="341.3809523809524" type="curve" smooth="yes"/>
      <point x="895.7857142857143" y="449.7857142857143"/>
      <point x="978.4761904761905" y="511.3809523809524"/>
      <point x="1085.452380952381" y="511.3809523809524" type="curve" smooth="yes"/>
      <point x="1208.4761904761904" y="511.3809523809524"/>
      <point x="1293.4285714285713" y="430.54761904761904"/>
      <point x="1294.3333333333333" y="324.1666666666667" type="curve"/>
      <point x="1370.547619047619" y="324.1666666666667" type="line"/>
      <point x="1359.4285714285713" y="502.61904761904765"/>
      <point x="1230.0" y="579.5"/>
      <point x="1088.8095238095239" y="579.5" type="curve" smooth="yes"/>
      <point x="932.5952380952382" y="579.5"/>
      <point x="818.4761904761906" y="483.0"/>
      <point x="818.4761904761906" y="340.2857142857143" type="curve" smooth="yes"/>
      <point x="818.4761904761906" y="206.88095238095238"/>
      <point x="920.1666666666666" y="123.45238095238096"/>
    </contour>
    <contour>
      <point x="1294.3333333333333" y="125.0" type="line"/>
      <point x="1457.3571428571427" y="125.0" type="line"/>
      <point x="1457.3571428571427" y="510.76190476190476" type="line"/>
      <point x="1598.6190476190477" y="510.76190476190476" type="line"/>
      <point x="1598.6190476190477" y="125.0" type="line"/>
      <point x="1762.095238095238" y="125.0" type="line"/>
      <point x="1762.095238095238" y="510.76190476190476" type="line"/>
      <point x="1859.5" y="510.76190476190476" type="line"/>
      <point x="1859.5" y="574.5" type="line"/>
      <point x="1335.0" y="574.5" type="line"/>
      <point x="1335.0" y="370.3809523809524" type="line"/>
      <point x="1294.3333333333333" y="370.3809523809524" type="line"/>
    </contour>
  </outline>
</glyph>
<glyph name="e-tamil" format="2">
  <advance width="1033.904761904762"/>
  <unicode hex="0B8E"/>
  <note>
uni0B8E
</note>
  <anchor x="541.4285714285714" y="0.0" name="bottom"/>
  <anchor x="541.8809523809524" y="0.0" name="nukta"/>
  <anchor x="545.6190476190476" y="574.5" name="top"/>
  <anchor x="544.4285714285714" y="574.5" name="vedic"/>
  <outline>
    <contour>
      <point x="304.66666666666663" y="-5.0" type="curve" smooth="yes"/>
      <point x="443.8095238095238" y="-5.0"/>
      <point x="525.1904761904761" y="65.26190476190476"/>
      <point x="525.1904761904761" y="173.14285714285714" type="curve" smooth="yes"/>
      <point x="525.1904761904761" y="264.5238095238095"/>
      <point x="460.45238095238096" y="339.9761904761905"/>
      <point x="345.9047619047619" y="339.9761904761905" type="curve" smooth="yes"/>
      <point x="211.54761904761904" y="339.9761904761905"/>
      <point x="137.9047619047619" y="242.5952380952381"/>
      <point x="133.66666666666666" y="115.30952380952381" type="curve"/>
      <point x="182.6904761904762" y="89.73809523809524" type="line"/>
      <point x="187.23809523809524" y="180.3095238095238"/>
      <point x="228.11904761904762" y="236.33333333333334"/>
      <point x="288.5714285714286" y="236.33333333333334" type="curve" smooth="yes"/>
      <point x="332.6904761904762" y="236.33333333333334"/>
      <point x="363.9761904761905" y="205.92857142857144"/>
      <point x="363.9761904761905" y="161.47619047619048" type="curve" smooth="yes"/>
      <point x="363.9761904761905" y="113.92857142857143"/>
      <point x="330.5238095238095" y="75.78571428571429"/>
      <point x="267.2857142857143" y="75.78571428571429" type="curve" smooth="yes"/>
      <point x="189.45238095238096" y="75.78571428571429"/>
      <point x="124.66666666666667" y="151.07142857142856"/>
      <point x="124.66666666666667" y="261.61904761904765" type="curve" smooth="yes"/>
      <point x="124.66666666666667" y="415.4761904761905"/>
      <point x="229.64285714285714" y="505.83333333333337"/>
      <point x="457.80952380952385" y="505.83333333333337" type="curve" smooth="yes"/>
      <point x="674.9047619047619" y="505.83333333333337" type="line"/>
      <point x="674.9047619047619" y="0.0" type="line"/>
      <point x="872.5952380952381" y="0.0" type="line"/>
      <point x="872.5952380952381" y="505.83333333333337" type="line"/>
      <point x="1019.6428571428571" y="505.83333333333337" type="line"/>
      <point x="1019.6428571428571" y="574.5" type="line"/>
      <point x="446.3333333333333" y="574.5" type="line" smooth="yes"/>
      <point x="187.35714285714286" y="574.5"/>
      <point x="51.26190476190476" y="449.59523809523813"/>
      <point x="51.26190476190476" y="263.0714285714286" type="curve" smooth="yes"/>
      <point x="51.26190476190476" y="116.9047619047619"/>
      <point x="150.47619047619048" y="-5.0"/>
    </contour>
  </outline>
</glyph>
<glyph name="ai-tamil" format="2">
  <advance width="1118.2380952380952"/>
  <unicode hex="0B90"/>
  <note>
uni0B90
</note>
  <anchor x="567.3333333333334" y="0.0" name="bottom"/>
  <anchor x="559.6666666666666" y="-330.0238095238096" name="nukta"/>
  <anchor x="571.3809523809523" y="574.5" name="top"/>
  <anchor x="570.7380952380952" y="574.5" name="vedic"/>
  <outline>
    <contour>
      <point x="326.9047619047619" y="-330.0238095238096" type="curve" smooth="yes"/>
      <point x="453.11904761904765" y="-330.0238095238096"/>
      <point x="549.0714285714286" y="-289.5714285714286"/>
      <point x="575.1190476190477" y="-175.52380952380955" type="curve"/>
      <point x="596.1666666666667" y="-272.54761904761904"/>
      <point x="689.3809523809524" y="-330.0238095238096"/>
      <point x="819.5714285714287" y="-330.0238095238096" type="curve" smooth="yes"/>
      <point x="964.6904761904761" y="-330.0238095238096"/>
      <point x="1067.4285714285713" y="-257.54761904761904"/>
      <point x="1067.4285714285713" y="-117.8095238095238" type="curve" smooth="yes"/>
      <point x="1067.4285714285713" y="-48.14285714285714"/>
      <point x="1040.595238095238" y="9.952380952380954"/>
      <point x="993.1428571428572" y="69.11904761904762" type="curve"/>
      <point x="933.0952380952381" y="29.35714285714286" type="line"/>
      <point x="974.547619047619" y="-23.904761904761905"/>
      <point x="988.2857142857142" y="-60.35714285714286"/>
      <point x="988.2857142857142" y="-108.90476190476191" type="curve" smooth="yes"/>
      <point x="988.2857142857142" y="-206.85714285714286"/>
      <point x="920.4285714285714" y="-258.6190476190476"/>
      <point x="824.5" y="-258.6190476190476" type="curve" smooth="yes"/>
      <point x="717.9047619047618" y="-258.6190476190476"/>
      <point x="660.9285714285714" y="-192.90476190476193"/>
      <point x="660.9285714285714" y="-81.64285714285714" type="curve" smooth="yes"/>
      <point x="660.9285714285714" y="-23.428571428571427" type="line"/>
      <point x="493.09523809523813" y="-23.428571428571427" type="line"/>
      <point x="493.09523809523813" y="-93.57142857142858" type="line" smooth="yes"/>
      <point x="493.09523809523813" y="-196.1904761904762"/>
      <point x="444.42857142857144" y="-257.5238095238095"/>
      <point x="363.3809523809524" y="-257.5238095238095" type="curve" smooth="yes"/>
      <point x="282.3333333333333" y="-257.5238095238095"/>
      <point x="235.33333333333331" y="-211.28571428571428"/>
      <point x="235.33333333333331" y="-125.0952380952381" type="curve" smooth="yes"/>
      <point x="235.33333333333331" y="12.952380952380942"/>
      <point x="335.54761904761904" y="52.595238095238095"/>
      <point x="599.2857142857143" y="74.52380952380952" type="curve" smooth="yes"/>
      <point x="874.0714285714287" y="97.35714285714286"/>
      <point x="1067.4285714285716" y="160.38095238095238"/>
      <point x="1067.4285714285716" y="355.4761904761905" type="curve" smooth="yes"/>
      <point x="1067.4285714285716" y="500.0952380952381"/>
      <point x="968.547619047619" y="579.952380952381"/>
      <point x="804.2380952380953" y="579.952380952381" type="curve" smooth="yes"/>
      <point x="693.1666666666666" y="579.952380952381"/>
      <point x="609.3809523809524" y="538.4285714285714"/>
      <point x="581.0952380952381" y="444.42857142857144" type="curve"/>
      <point x="545.452380952381" y="535.3333333333334"/>
      <point x="450.6666666666667" y="579.952380952381"/>
      <point x="328.0238095238095" y="579.952380952381" type="curve" smooth="yes"/>
      <point x="166.35714285714286" y="579.952380952381"/>
      <point x="56.26190476190476" y="488.0714285714286"/>
      <point x="56.26190476190476" y="347.07142857142856" type="curve" smooth="yes"/>
      <point x="56.26190476190476" y="233.42857142857142"/>
      <point x="141.35714285714286" y="153.52380952380952"/>
      <point x="256.54761904761904" y="153.52380952380952" type="curve" smooth="yes"/>
      <point x="354.0" y="153.52380952380952"/>
      <point x="427.0238095238095" y="196.26190476190476"/>
      <point x="427.0238095238095" y="285.9047619047619" type="curve" smooth="yes"/>
      <point x="427.0238095238095" y="363.0"/>
      <point x="370.0238095238095" y="409.4523809523809"/>
      <point x="288.4047619047619" y="409.4523809523809" type="curve" smooth="yes"/>
      <point x="206.64285714285714" y="409.4523809523809"/>
      <point x="132.38095238095238" y="360.7857142857143"/>
      <point x="124.02380952380952" y="230.07142857142856" type="curve"/>
      <point x="167.5952380952381" y="215.88095238095238" type="line"/>
      <point x="175.33333333333331" y="310.45238095238096"/>
      <point x="213.30952380952382" y="338.40476190476187"/>
      <point x="251.73809523809524" y="338.40476190476187" type="curve" smooth="yes"/>
      <point x="282.88095238095235" y="338.40476190476187"/>
      <point x="306.1428571428571" y="317.8809523809524"/>
      <point x="306.1428571428571" y="283.71428571428567" type="curve" smooth="yes"/>
      <point x="306.1428571428571" y="243.19047619047618"/>
      <point x="275.33333333333337" y="225.38095238095238"/>
      <point x="235.9047619047619" y="225.38095238095238" type="curve" smooth="yes"/>
      <point x="179.57142857142856" y="225.38095238095238"/>
      <point x="130.76190476190476" y="269.73809523809524"/>
      <point x="130.76190476190476" y="347.07142857142856" type="curve" smooth="yes"/>
      <point x="130.76190476190476" y="450.14285714285717"/>
      <point x="218.57142857142856" y="508.64285714285717"/>
      <point x="322.3095238095238" y="508.64285714285717" type="curve" smooth="yes"/>
      <point x="427.6666666666667" y="508.64285714285717"/>
      <point x="493.09523809523813" y="461.0"/>
      <point x="493.09523809523813" y="362.0" type="curve" smooth="yes"/>
      <point x="493.09523809523813" y="209.33333333333331" type="line"/>
      <point x="660.9285714285714" y="209.33333333333331" type="line"/>
      <point x="660.9285714285714" y="374.0" type="line" smooth="yes"/>
      <point x="660.9285714285714" y="458.0"/>
      <point x="700.0238095238095" y="507.0"/>
      <point x="770.3809523809524" y="507.0" type="curve" smooth="yes"/>
      <point x="844.7142857142858" y="507.0"/>
      <point x="882.8095238095239" y="460.3809523809524"/>
      <point x="882.8095238095239" y="369.35714285714283" type="curve" smooth="yes"/>
      <point x="882.8095238095239" y="208.76190476190476"/>
      <point x="768.9761904761905" y="145.2857142857143"/>
      <point x="478.1904761904762" y="122.26190476190477" type="curve" smooth="yes"/>
      <point x="253.02380952380952" y="104.71428571428571"/>
      <point x="51.26190476190476" y="58.4047619047619"/>
      <point x="51.26190476190476" y="-121.4047619047619" type="curve" smooth="yes"/>
      <point x="51.26190476190476" y="-258.3809523809524"/>
      <point x="168.2142857142857" y="-330.0238095238096"/>
    </contour>
  </outline>
</glyph>
<glyph name="o-tamil" format="2">
  <advance width="1145.4285714285716"/>
  <unicode hex="0B92"/>
  <note>
uni0B92
</note>
  <anchor x="564.6190476190476" y="0.0" name="bottom"/>
  <anchor x="562.6190476190476" y="-335.0" name="nukta"/>
  <anchor x="557.6190476190476" y="574.5" name="top"/>
  <anchor x="557.6190476190476" y="574.5" name="vedic"/>
  <outline>
    <contour>
      <point x="416.28571428571433" y="-386.57142857142856" type="curve" smooth="yes"/>
      <point x="689.9761904761905" y="-386.57142857142856"/>
      <point x="692.9047619047619" y="-162.0"/>
      <point x="883.2857142857143" y="-162.0" type="curve" smooth="yes"/>
      <point x="960.0238095238095" y="-162.0" type="line"/>
      <point x="960.0238095238095" y="-89.42857142857143" type="line"/>
      <point x="853.2857142857143" y="-89.42857142857143" type="line" smooth="yes"/>
      <point x="650.9047619047619" y="-89.42857142857143"/>
      <point x="574.6904761904763" y="98.23809523809524"/>
      <point x="687.7857142857142" y="237.76190476190476" type="curve"/>
      <point x="693.7857142857142" y="234.21428571428572" type="line"/>
      <point x="655.4285714285714" y="122.90476190476191"/>
      <point x="693.2619047619048" y="-3.3571428571428568"/>
      <point x="866.8333333333333" y="-3.3571428571428568" type="curve" smooth="yes"/>
      <point x="1002.5952380952382" y="-3.3571428571428568"/>
      <point x="1094.6190476190477" y="75.90476190476191"/>
      <point x="1094.6190476190477" y="210.21428571428572" type="curve" smooth="yes"/>
      <point x="1094.6190476190477" y="452.5238095238095"/>
      <point x="838.5714285714286" y="580.5952380952381"/>
      <point x="533.452380952381" y="580.5952380952381" type="curve" smooth="yes"/>
      <point x="266.9285714285714" y="580.5952380952381"/>
      <point x="51.26190476190476" y="453.1666666666667"/>
      <point x="51.26190476190476" y="242.30952380952382" type="curve" smooth="yes"/>
      <point x="51.26190476190476" y="104.0952380952381"/>
      <point x="147.73809523809524" y="-3.3571428571428568"/>
      <point x="304.04761904761904" y="-3.3571428571428568" type="curve" smooth="yes"/>
      <point x="444.11904761904765" y="-3.3571428571428568"/>
      <point x="519.5714285714286" y="75.66666666666667"/>
      <point x="519.5714285714286" y="175.33333333333334" type="curve" smooth="yes"/>
      <point x="519.5714285714286" y="270.54761904761904"/>
      <point x="453.1904761904762" y="341.6190476190476"/>
      <point x="343.09523809523813" y="341.6190476190476" type="curve" smooth="yes"/>
      <point x="211.47619047619048" y="341.6190476190476"/>
      <point x="136.11904761904762" y="240.78571428571428"/>
      <point x="127.4047619047619" y="112.42857142857144" type="curve"/>
      <point x="175.97619047619048" y="87.40476190476191" type="line"/>
      <point x="180.52380952380952" y="178.59523809523807"/>
      <point x="226.40476190476193" y="237.42857142857142"/>
      <point x="286.8571428571429" y="237.42857142857142" type="curve" smooth="yes"/>
      <point x="330.8095238095238" y="237.42857142857142"/>
      <point x="360.54761904761904" y="205.38095238095238"/>
      <point x="360.54761904761904" y="161.47619047619048" type="curve" smooth="yes"/>
      <point x="360.54761904761904" y="113.92857142857143"/>
      <point x="328.73809523809524" y="76.8809523809524"/>
      <point x="268.3095238095238" y="76.8809523809524" type="curve" smooth="yes"/>
      <point x="191.0952380952381" y="76.8809523809524"/>
      <point x="124.11904761904762" y="140.66666666666669"/>
      <point x="124.11904761904762" y="240.66666666666669" type="curve" smooth="yes"/>
      <point x="124.11904761904762" y="420.38095238095235"/>
      <point x="322.64285714285717" y="514.547619047619"/>
      <point x="533.452380952381" y="514.547619047619" type="curve" smooth="yes"/>
      <point x="734.6190476190476" y="514.547619047619"/>
      <point x="910.952380952381" y="418.5714285714286"/>
      <point x="910.952380952381" y="234.28571428571428" type="curve" smooth="yes"/>
      <point x="910.952380952381" y="137.07142857142858"/>
      <point x="876.6428571428572" y="81.26190476190477"/>
      <point x="812.9761904761905" y="81.26190476190477" type="curve" smooth="yes"/>
      <point x="738.9285714285714" y="81.26190476190477"/>
      <point x="717.9047619047619" y="190.85714285714286"/>
      <point x="776.2619047619048" y="288.04761904761904" type="curve"/>
      <point x="700.5714285714286" y="340.61904761904765" type="line"/>
      <point x="517.6666666666667" y="194.28571428571428"/>
      <point x="531.1666666666667" y="-24.500000000000007"/>
      <point x="699.452380952381" y="-110.61904761904762" type="curve"/>
      <point x="699.452380952381" y="-115.61904761904762" type="line"/>
      <point x="538.6428571428571" y="-137.0"/>
      <point x="507.42857142857144" y="-308.7142857142857"/>
      <point x="364.16666666666663" y="-308.7142857142857" type="curve" smooth="yes"/>
      <point x="299.26190476190476" y="-308.7142857142857"/>
      <point x="260.9761904761905" y="-271.45238095238096"/>
      <point x="260.9761904761905" y="-218.07142857142858" type="curve" smooth="yes"/>
      <point x="260.9761904761905" y="-180.07142857142856"/>
      <point x="280.9761904761905" y="-148.80952380952382"/>
      <point x="327.6190476190476" y="-121.07142857142857" type="curve"/>
      <point x="290.3333333333333" y="-69.59523809523809" type="line"/>
      <point x="225.95238095238096" y="-110.42857142857143"/>
      <point x="194.57142857142858" y="-158.42857142857142"/>
      <point x="194.57142857142858" y="-213.8095238095238" type="curve" smooth="yes"/>
      <point x="194.57142857142858" y="-310.5714285714286"/>
      <point x="272.95238095238096" y="-386.57142857142856"/>
    </contour>
  </outline>
</glyph>
<glyph name="oo-tamil" format="2">
  <advance width="1145.4285714285716"/>
  <unicode hex="0B93"/>
  <note>
uni0B93
</note>
  <anchor x="568.3095238095239" y="0.0" name="bottom"/>
  <anchor x="566.3095238095239" y="-376.5238095238096" name="nukta"/>
  <anchor x="561.3095238095239" y="574.5" name="top"/>
  <anchor x="561.3095238095239" y="574.5" name="vedic"/>
  <outline>
    <contour>
      <point x="383.2619047619048" y="-424.23809523809524" type="curve" smooth="yes"/>
      <point x="707.9285714285714" y="-424.23809523809524"/>
      <point x="707.452380952381" y="-165.83333333333334"/>
      <point x="891.047619047619" y="-164.1904761904762" type="curve" smooth="yes"/>
      <point x="960.0238095238095" y="-163.64285714285714" type="line"/>
      <point x="960.0238095238095" y="-91.07142857142857" type="line"/>
      <point x="857.3571428571429" y="-91.07142857142857" type="line" smooth="yes"/>
      <point x="652.7142857142858" y="-91.07142857142857"/>
      <point x="576.0476190476192" y="101.57142857142857"/>
      <point x="681.452380952381" y="236.11904761904762" type="curve"/>
      <point x="687.9047619047619" y="232.11904761904762" type="line"/>
      <point x="651.3571428571429" y="120.80952380952381"/>
      <point x="693.2619047619048" y="-5.0"/>
      <point x="866.8333333333333" y="-5.0" type="curve" smooth="yes"/>
      <point x="1002.5952380952382" y="-5.0"/>
      <point x="1094.6190476190477" y="74.26190476190477"/>
      <point x="1094.6190476190477" y="208.57142857142858" type="curve" smooth="yes"/>
      <point x="1094.6190476190477" y="450.8809523809524"/>
      <point x="838.5714285714286" y="579.5"/>
      <point x="533.452380952381" y="579.5" type="curve" smooth="yes"/>
      <point x="266.9285714285714" y="579.5"/>
      <point x="51.26190476190476" y="451.5238095238096"/>
      <point x="51.26190476190476" y="241.21428571428572" type="curve" smooth="yes"/>
      <point x="51.26190476190476" y="103.0"/>
      <point x="147.73809523809524" y="-5.0"/>
      <point x="304.04761904761904" y="-5.0" type="curve" smooth="yes"/>
      <point x="444.11904761904765" y="-5.0"/>
      <point x="519.5714285714286" y="74.57142857142858"/>
      <point x="519.5714285714286" y="173.6904761904762" type="curve" smooth="yes"/>
      <point x="519.5714285714286" y="268.9047619047619"/>
      <point x="453.1904761904762" y="339.9761904761905"/>
      <point x="343.09523809523813" y="339.9761904761905" type="curve" smooth="yes"/>
      <point x="211.47619047619048" y="339.9761904761905"/>
      <point x="136.11904761904762" y="239.69047619047618"/>
      <point x="127.4047619047619" y="111.33333333333334" type="curve"/>
      <point x="175.97619047619048" y="85.76190476190477" type="line"/>
      <point x="180.52380952380952" y="176.95238095238093"/>
      <point x="226.40476190476193" y="236.33333333333334"/>
      <point x="286.8571428571429" y="236.33333333333334" type="curve" smooth="yes"/>
      <point x="330.8095238095238" y="236.33333333333334"/>
      <point x="360.54761904761904" y="204.28571428571428"/>
      <point x="360.54761904761904" y="159.83333333333334" type="curve" smooth="yes"/>
      <point x="360.54761904761904" y="112.83333333333334"/>
      <point x="328.73809523809524" y="75.78571428571429"/>
      <point x="268.3095238095238" y="75.78571428571429" type="curve" smooth="yes"/>
      <point x="191.0952380952381" y="75.78571428571429"/>
      <point x="124.11904761904762" y="139.57142857142858"/>
      <point x="124.11904761904762" y="239.02380952380952" type="curve" smooth="yes"/>
      <point x="124.11904761904762" y="418.73809523809524"/>
      <point x="322.64285714285717" y="513.452380952381"/>
      <point x="533.452380952381" y="513.452380952381" type="curve" smooth="yes"/>
      <point x="734.6190476190476" y="513.452380952381"/>
      <point x="910.952380952381" y="417.4761904761905"/>
      <point x="910.952380952381" y="232.64285714285714" type="curve" smooth="yes"/>
      <point x="910.952380952381" y="135.97619047619048"/>
      <point x="876.6428571428572" y="80.16666666666667"/>
      <point x="812.9761904761905" y="80.16666666666667" type="curve" smooth="yes"/>
      <point x="738.9285714285714" y="80.16666666666667"/>
      <point x="711.1190476190476" y="189.76190476190476"/>
      <point x="769.9285714285714" y="286.4047619047619" type="curve"/>
      <point x="694.2380952380953" y="339.5238095238096" type="line"/>
      <point x="509.9761904761905" y="191.38095238095238"/>
      <point x="535.1428571428571" y="-27.595238095238102"/>
      <point x="708.4285714285714" y="-113.71428571428571" type="curve"/>
      <point x="708.4285714285714" y="-118.71428571428571" type="line"/>
      <point x="566.3571428571429" y="-132.54761904761907"/>
      <point x="511.11904761904765" y="-347.73809523809524"/>
      <point x="336.35714285714283" y="-347.73809523809524" type="curve" smooth="yes"/>
      <point x="249.16666666666666" y="-347.73809523809524"/>
      <point x="206.33333333333334" y="-297.4047619047619"/>
      <point x="206.33333333333334" y="-241.83333333333331" type="curve" smooth="yes"/>
      <point x="206.33333333333334" y="-193.0"/>
      <point x="242.23809523809524" y="-159.64285714285717"/>
      <point x="285.23809523809524" y="-159.64285714285717" type="curve" smooth="yes"/>
      <point x="334.42857142857144" y="-159.64285714285717"/>
      <point x="369.9047619047619" y="-191.66666666666666"/>
      <point x="383.5238095238095" y="-252.57142857142856" type="curve"/>
      <point x="429.76190476190476" y="-232.04761904761907"/>
      <point x="467.3333333333333" y="-200.5952380952381"/>
      <point x="467.3333333333333" y="-151.1904761904762" type="curve" smooth="yes"/>
      <point x="467.3333333333333" y="-92.16666666666667"/>
      <point x="402.95238095238096" y="-57.523809523809526"/>
      <point x="335.2142857142857" y="-57.523809523809526" type="curve" smooth="yes"/>
      <point x="217.9047619047619" y="-57.523809523809526"/>
      <point x="139.11904761904762" y="-132.76190476190476"/>
      <point x="139.11904761904762" y="-232.0" type="curve" smooth="yes"/>
      <point x="139.11904761904762" y="-354.42857142857144"/>
      <point x="243.76190476190476" y="-424.23809523809524"/>
    </contour>
  </outline>
</glyph>
<glyph name="au-tamil" format="2">
  <advance width="2529.8809523809523"/>
  <unicode hex="0B94"/>
  <note>
uni0B94
</note>
  <anchor x="1279.2857142857142" y="0.0" name="bottom"/>
  <anchor x="1383.2857142857142" y="0.0" name="nukta"/>
  <anchor x="1272.2857142857142" y="574.5" name="top"/>
  <anchor x="1272.2857142857142" y="574.5" name="vedic"/>
  <outline>
    <contour>
      <point x="1425.6190476190477" y="-5.0" type="curve" smooth="yes"/>
      <point x="1564.7619047619048" y="-5.0"/>
      <point x="1646.2380952380954" y="65.26190476190476"/>
      <point x="1646.2380952380954" y="173.14285714285714" type="curve" smooth="yes"/>
      <point x="1646.2380952380954" y="264.5238095238095"/>
      <point x="1580.952380952381" y="339.9761904761905"/>
      <point x="1466.857142857143" y="339.9761904761905" type="curve" smooth="yes"/>
      <point x="1333.0476190476193" y="339.9761904761905"/>
      <point x="1259.404761904762" y="242.5952380952381"/>
      <point x="1255.1666666666665" y="115.30952380952381" type="curve"/>
      <point x="1304.1904761904761" y="89.73809523809524" type="line"/>
      <point x="1308.7380952380952" y="180.30952380952382"/>
      <point x="1349.0714285714287" y="236.33333333333334"/>
      <point x="1409.5238095238096" y="236.33333333333334" type="curve" smooth="yes"/>
      <point x="1454.1904761904761" y="236.33333333333334"/>
      <point x="1484.9285714285716" y="205.92857142857142"/>
      <point x="1484.9285714285716" y="161.47619047619048" type="curve" smooth="yes"/>
      <point x="1484.9285714285716" y="113.92857142857143"/>
      <point x="1452.0238095238094" y="75.78571428571429"/>
      <point x="1388.2380952380954" y="75.78571428571429" type="curve" smooth="yes"/>
      <point x="1310.952380952381" y="75.78571428571429"/>
      <point x="1245.6190476190477" y="151.07142857142856"/>
      <point x="1245.6190476190477" y="261.61904761904765" type="curve" smooth="yes"/>
      <point x="1245.6190476190477" y="403.5"/>
      <point x="1351.404761904762" y="505.9047619047619"/>
      <point x="1527.2142857142856" y="505.9047619047619" type="curve" smooth="yes"/>
      <point x="1676.5238095238096" y="505.9047619047619"/>
      <point x="1792.0238095238096" y="420.85714285714283"/>
      <point x="1792.0238095238096" y="292.2857142857143" type="curve"/>
      <point x="1868.357142857143" y="308.0238095238095" type="line"/>
      <point x="1849.642857142857" y="497.76190476190476"/>
      <point x="1686.857142857143" y="578.952380952381"/>
      <point x="1527.2619047619048" y="578.952380952381" type="curve" smooth="yes"/>
      <point x="1297.0714285714284" y="578.952380952381"/>
      <point x="1172.2142857142858" y="438.7142857142857"/>
      <point x="1172.2142857142858" y="263.0714285714286" type="curve" smooth="yes"/>
      <point x="1172.2142857142858" y="116.9047619047619"/>
      <point x="1271.9761904761906" y="-5.0"/>
    </contour>
    <contour>
      <point x="1792.0238095238096" y="0.0" type="line"/>
      <point x="1988.0714285714284" y="0.0" type="line"/>
      <point x="1988.0714285714284" y="505.83333333333337" type="line"/>
      <point x="2170.2380952380954" y="505.83333333333337" type="line"/>
      <point x="2170.2380952380954" y="0.0" type="line"/>
      <point x="2366.285714285714" y="0.0" type="line"/>
      <point x="2366.285714285714" y="505.83333333333337" type="line"/>
      <point x="2515.6190476190477" y="505.83333333333337" type="line"/>
      <point x="2515.6190476190477" y="574.5" type="line"/>
      <point x="1838.6190476190477" y="574.5" type="line"/>
      <point x="1838.6190476190477" y="335.38095238095235" type="line"/>
      <point x="1792.0238095238096" y="354.76190476190476" type="line"/>
    </contour>
    <component base="o-tamil"/>
  </outline>
</glyph>
<glyph name="nga-tamil" format="2">
  <advance width="1128.1190476190475"/>
  <unicode hex="0B99"/>
  <note>
uni0B99
</note>
  <anchor x="556.8571428571429" y="0.0" name="bottom"/>
  <anchor x="611.0" y="574.5" name="imatra"/>
  <anchor x="558.952380952381" y="0.0" name="nukta"/>
  <anchor x="575.7619047619048" y="574.5" name="top"/>
  <anchor x="563.3333333333334" y="574.5" name="vedic"/>
  <outline>
    <contour>
      <point x="80.69047619047619" y="0.0" type="line"/>
      <point x="157.92857142857142" y="0.0" type="line"/>
      <point x="157.92857142857142" y="505.83333333333337" type="line"/>
      <point x="298.1666666666667" y="505.83333333333337" type="line"/>
      <point x="298.1666666666667" y="175.0" type="line"/>
      <point x="476.2857142857143" y="175.0" type="line"/>
      <point x="476.2857142857143" y="225.76190476190476" type="line" smooth="yes"/>
      <point x="476.2857142857143" y="259.54761904761904"/>
      <point x="498.07142857142856" y="281.0"/>
      <point x="529.2380952380952" y="281.0" type="curve" smooth="yes"/>
      <point x="564.047619047619" y="281.0"/>
      <point x="584.8333333333334" y="253.54761904761907"/>
      <point x="584.8333333333334" y="201.0952380952381" type="curve" smooth="yes"/>
      <point x="584.8333333333334" y="126.71428571428572"/>
      <point x="537.6428571428572" y="68.66666666666667"/>
      <point x="435.6428571428571" y="68.66666666666667" type="curve" smooth="yes"/>
      <point x="298.1666666666667" y="68.66666666666667" type="line"/>
      <point x="298.1666666666667" y="0.0" type="line"/>
      <point x="1046.9761904761904" y="0.0" type="line"/>
      <point x="1046.9761904761904" y="574.5" type="line"/>
      <point x="852.4047619047619" y="574.5" type="line"/>
      <point x="852.4047619047619" y="68.66666666666667" type="line"/>
      <point x="622.8095238095239" y="68.66666666666667" type="line"/>
      <point x="696.1428571428572" y="87.78571428571429"/>
      <point x="765.4047619047619" y="144.61904761904765"/>
      <point x="765.4047619047619" y="241.5952380952381" type="curve" smooth="yes"/>
      <point x="765.4047619047619" y="330.8571428571429"/>
      <point x="704.6904761904763" y="392.85714285714283"/>
      <point x="607.2142857142857" y="392.85714285714283" type="curve" smooth="yes"/>
      <point x="545.8333333333333" y="392.85714285714283"/>
      <point x="504.57142857142856" y="365.2142857142857"/>
      <point x="481.73809523809524" y="336.57142857142856" type="curve"/>
      <point x="481.73809523809524" y="505.83333333333337" type="line"/>
      <point x="643.6666666666666" y="505.83333333333337" type="line"/>
      <point x="643.6666666666666" y="574.5" type="line"/>
      <point x="80.69047619047619" y="574.5" type="line"/>
    </contour>
  </outline>
</glyph>
<glyph name="ca-tamil" format="2">
  <advance width="805.2380952380952"/>
  <unicode hex="0B9A"/>
  <note>
uni0B9A
</note>
  <anchor x="401.9761904761905" y="0.0" name="bottom"/>
  <anchor x="607.7857142857143" y="574.5" name="imatra"/>
  <anchor x="404.1666666666667" y="0.0" name="nukta"/>
  <anchor x="490.4285714285714" y="574.5" name="top"/>
  <anchor x="432.2142857142857" y="574.5" name="vedic"/>
  <outline>
    <contour>
      <point x="294.95238095238096" y="-4.0" type="curve" smooth="yes"/>
      <point x="498.5238095238096" y="-4.0"/>
      <point x="595.5238095238095" y="101.5"/>
      <point x="595.5238095238095" y="238.5" type="curve" smooth="yes"/>
      <point x="595.5238095238095" y="271.09523809523813" type="line"/>
      <point x="754.952380952381" y="271.09523809523813" type="line"/>
      <point x="754.952380952381" y="340.3095238095238" type="line"/>
      <point x="595.5238095238095" y="340.3095238095238" type="line"/>
      <point x="595.5238095238095" y="505.28571428571433" type="line"/>
      <point x="754.952380952381" y="505.28571428571433" type="line"/>
      <point x="754.952380952381" y="574.5" type="line"/>
      <point x="183.83333333333334" y="574.5" type="line"/>
      <point x="183.83333333333334" y="305.23809523809524" type="line"/>
      <point x="261.1428571428571" y="305.23809523809524" type="line"/>
      <point x="261.1428571428571" y="505.28571428571433" type="line"/>
      <point x="401.8571428571429" y="505.28571428571433" type="line"/>
      <point x="401.8571428571429" y="340.3095238095238" type="line"/>
      <point x="253.11904761904762" y="340.3095238095238" type="line" smooth="yes"/>
      <point x="136.5" y="340.3095238095238"/>
      <point x="56.26190476190476" y="274.7857142857143"/>
      <point x="56.26190476190476" y="177.66666666666669" type="curve" smooth="yes"/>
      <point x="56.26190476190476" y="71.66666666666667"/>
      <point x="134.6904761904762" y="-4.0"/>
    </contour>
    <contour>
      <point x="257.23809523809524" y="73.04761904761905" type="curve" smooth="yes"/>
      <point x="176.57142857142856" y="73.04761904761905"/>
      <point x="132.0952380952381" y="112.47619047619048"/>
      <point x="132.0952380952381" y="175.02380952380955" type="curve" smooth="yes"/>
      <point x="132.0952380952381" y="230.47619047619048"/>
      <point x="173.28571428571428" y="271.09523809523813"/>
      <point x="258.45238095238096" y="271.09523809523813" type="curve" smooth="yes"/>
      <point x="401.8571428571429" y="271.09523809523813" type="line"/>
      <point x="401.8571428571429" y="223.57142857142856" type="line" smooth="yes"/>
      <point x="401.8571428571429" y="124.02380952380952"/>
      <point x="345.2380952380952" y="73.04761904761905"/>
    </contour>
  </outline>
</glyph>
<glyph name="ja-tamil" format="2">
  <advance width="1117.7857142857142"/>
  <unicode hex="0B9C"/>
  <note>
uni0B9C
</note>
  <anchor x="564.5952380952381" y="0.0" name="bottom"/>
  <anchor x="556.9285714285714" y="-330.0238095238096" name="nukta"/>
  <anchor x="574.5476190476192" y="574.5" name="top"/>
  <anchor x="568.0" y="574.5" name="vedic"/>
  <outline>
    <contour>
      <point x="304.5238095238095" y="-330.0238095238096" type="curve" smooth="yes"/>
      <point x="565.4761904761905" y="-330.0238095238096"/>
      <point x="573.0714285714286" y="-28.11904761904762"/>
      <point x="771.7380952380952" y="-28.11904761904762" type="curve" smooth="yes"/>
      <point x="844.3809523809524" y="-28.11904761904762"/>
      <point x="886.2619047619047" y="-73.47619047619048"/>
      <point x="886.2619047619047" y="-135.83333333333331" type="curve" smooth="yes"/>
      <point x="886.2619047619047" y="-206.28571428571428"/>
      <point x="838.5" y="-251.97619047619048"/>
      <point x="765.2619047619047" y="-251.97619047619048" type="curve" smooth="yes"/>
      <point x="730.0714285714287" y="-251.97619047619048"/>
      <point x="698.8095238095239" y="-241.42857142857144"/>
      <point x="659.3809523809523" y="-218.26190476190476" type="curve"/>
      <point x="630.6190476190477" y="-271.40476190476187" type="line"/>
      <point x="696.1428571428571" y="-315.4761904761905"/>
      <point x="757.2142857142857" y="-330.0238095238096"/>
      <point x="826.7142857142857" y="-330.0238095238096" type="curve" smooth="yes"/>
      <point x="966.4761904761905" y="-330.0238095238096"/>
      <point x="1066.9761904761904" y="-262.5952380952381"/>
      <point x="1066.9761904761904" y="-139.88095238095238" type="curve" smooth="yes"/>
      <point x="1066.9761904761904" y="-18.0"/>
      <point x="980.0714285714286" y="50.11904761904762"/>
      <point x="842.2619047619048" y="50.11904761904762" type="curve" smooth="yes"/>
      <point x="540.3333333333334" y="50.11904761904762"/>
      <point x="539.9285714285714" y="-249.3095238095238"/>
      <point x="350.0238095238095" y="-249.3095238095238" type="curve" smooth="yes"/>
      <point x="283.42857142857144" y="-249.3095238095238"/>
      <point x="235.33333333333334" y="-198.80952380952382"/>
      <point x="235.33333333333334" y="-124.54761904761904" type="curve" smooth="yes"/>
      <point x="235.33333333333334" y="6.714285714285701"/>
      <point x="328.76190476190476" y="58.785714285714285"/>
      <point x="599.7380952380953" y="82.52380952380952" type="curve" smooth="yes"/>
      <point x="884.9285714285713" y="107.61904761904762"/>
      <point x="1066.9761904761904" y="167.45238095238093"/>
      <point x="1066.9761904761904" y="356.8333333333333" type="curve" smooth="yes"/>
      <point x="1066.9761904761904" y="499.1904761904762"/>
      <point x="969.0" y="579.952380952381"/>
      <point x="805.1428571428571" y="579.952380952381" type="curve" smooth="yes"/>
      <point x="698.5952380952381" y="579.952380952381"/>
      <point x="609.3809523809524" y="538.4285714285714"/>
      <point x="581.0952380952381" y="444.42857142857144" type="curve"/>
      <point x="545.452380952381" y="535.3333333333334"/>
      <point x="459.26190476190476" y="579.952380952381"/>
      <point x="336.61904761904765" y="579.952380952381" type="curve" smooth="yes"/>
      <point x="173.14285714285714" y="579.952380952381"/>
      <point x="56.26190476190476" y="488.0714285714286"/>
      <point x="56.26190476190476" y="347.07142857142856" type="curve" smooth="yes"/>
      <point x="56.26190476190476" y="231.16666666666666"/>
      <point x="138.64285714285714" y="153.52380952380952"/>
      <point x="256.54761904761904" y="153.52380952380952" type="curve" smooth="yes"/>
      <point x="354.0" y="153.52380952380952"/>
      <point x="427.9285714285714" y="194.0"/>
      <point x="427.9285714285714" y="285.9047619047619" type="curve" smooth="yes"/>
      <point x="427.9285714285714" y="366.1666666666667"/>
      <point x="370.92857142857144" y="409.4523809523809"/>
      <point x="291.11904761904765" y="409.4523809523809" type="curve" smooth="yes"/>
      <point x="210.26190476190476" y="409.4523809523809"/>
      <point x="136.45238095238096" y="358.9761904761905"/>
      <point x="129.45238095238096" y="230.07142857142856" type="curve"/>
      <point x="172.11904761904762" y="215.88095238095238" type="line"/>
      <point x="181.66666666666666" y="313.61904761904765"/>
      <point x="219.1904761904762" y="338.40476190476187"/>
      <point x="256.26190476190476" y="338.40476190476187" type="curve" smooth="yes"/>
      <point x="281.07142857142856" y="338.40476190476187"/>
      <point x="304.3333333333333" y="321.04761904761904"/>
      <point x="304.3333333333333" y="287.7857142857143" type="curve" smooth="yes"/>
      <point x="304.3333333333333" y="246.80952380952382"/>
      <point x="274.42857142857144" y="225.38095238095238"/>
      <point x="235.9047619047619" y="225.38095238095238" type="curve" smooth="yes"/>
      <point x="176.85714285714286" y="225.38095238095238"/>
      <point x="135.28571428571428" y="269.73809523809524"/>
      <point x="135.28571428571428" y="347.07142857142856" type="curve" smooth="yes"/>
      <point x="135.28571428571428" y="447.8809523809524"/>
      <point x="223.0952380952381" y="508.64285714285717"/>
      <point x="326.83333333333337" y="508.64285714285717" type="curve" smooth="yes"/>
      <point x="432.1904761904762" y="508.64285714285717"/>
      <point x="493.09523809523813" y="461.0"/>
      <point x="493.09523809523813" y="362.0" type="curve" smooth="yes"/>
      <point x="493.09523809523813" y="209.33333333333331" type="line"/>
      <point x="660.9285714285714" y="209.33333333333331" type="line"/>
      <point x="660.9285714285714" y="374.0" type="line" smooth="yes"/>
      <point x="660.9285714285714" y="458.0"/>
      <point x="702.2857142857143" y="507.0"/>
      <point x="772.6428571428571" y="507.0" type="curve" smooth="yes"/>
      <point x="844.2619047619048" y="507.0"/>
      <point x="882.3571428571429" y="462.64285714285717"/>
      <point x="882.3571428571429" y="368.4523809523809" type="curve" smooth="yes"/>
      <point x="882.3571428571429" y="221.35714285714286"/>
      <point x="791.1428571428572" y="148.38095238095238"/>
      <point x="478.1904761904762" y="123.0952380952381" type="curve" smooth="yes"/>
      <point x="263.88095238095235" y="106.0"/>
      <point x="51.26190476190476" y="68.85714285714286"/>
      <point x="51.26190476190476" y="-115.1904761904762" type="curve" smooth="yes"/>
      <point x="51.26190476190476" y="-252.35714285714286"/>
      <point x="156.85714285714286" y="-330.0238095238096"/>
    </contour>
  </outline>
</glyph>
<glyph name="tta-tamil" format="2">
  <advance width="991.047619047619"/>
  <unicode hex="0B9F"/>
  <note>
uni0B9F
</note>
  <anchor x="498.8095238095238" y="0.0" name="bottom"/>
  <anchor x="498.8095238095238" y="0.0" name="nukta"/>
  <anchor x="561.7857142857143" y="574.5" name="top"/>
  <anchor x="532.2380952380952" y="574.5" name="vedic"/>
  <outline>
    <contour>
      <point x="80.69047619047619" y="0.0" type="line"/>
      <point x="983.7857142857143" y="0.0" type="line"/>
      <point x="983.7857142857143" y="68.66666666666667" type="line"/>
      <point x="274.7142857142857" y="68.66666666666667" type="line"/>
      <point x="274.7142857142857" y="574.5" type="line"/>
      <point x="80.69047619047619" y="574.5" type="line"/>
    </contour>
  </outline>
</glyph>
<glyph name="nna-tamil" format="2">
  <advance width="1984.2857142857144"/>
  <unicode hex="0BA3"/>
  <note>
uni0BA3
</note>
  <anchor x="1054.0" y="0.0" name="bottom"/>
  <anchor x="1835.047619047619" y="574.5" name="imatra"/>
  <anchor x="1054.0" y="0.0" name="nukta"/>
  <anchor x="1043.452380952381" y="574.5" name="top"/>
  <anchor x="1015.6190476190477" y="574.5" name="vedic"/>
  <outline>
    <contour>
      <point x="803.047619047619" y="-4.4523809523809526" type="curve" smooth="yes"/>
      <point x="935.7380952380953" y="-4.4523809523809526"/>
      <point x="1016.7619047619047" y="83.04761904761905"/>
      <point x="1016.7619047619047" y="219.23809523809524" type="curve" smooth="yes"/>
      <point x="1016.7619047619047" y="450.7619047619048"/>
      <point x="776.1666666666666" y="580.047619047619"/>
      <point x="496.76190476190476" y="580.047619047619" type="curve" smooth="yes"/>
      <point x="251.45238095238093" y="580.047619047619"/>
      <point x="51.26190476190476" y="460.0238095238095"/>
      <point x="51.26190476190476" y="246.33333333333334" type="curve" smooth="yes"/>
      <point x="51.26190476190476" y="103.33333333333334"/>
      <point x="153.64285714285714" y="-5.0"/>
      <point x="305.1190476190476" y="-5.0" type="curve" smooth="yes"/>
      <point x="444.26190476190476" y="-5.0"/>
      <point x="525.1904761904761" y="68.0"/>
      <point x="525.1904761904761" y="175.88095238095238" type="curve" smooth="yes"/>
      <point x="525.1904761904761" y="267.26190476190476"/>
      <point x="460.45238095238096" y="339.9761904761905"/>
      <point x="346.3571428571429" y="339.9761904761905" type="curve" smooth="yes"/>
      <point x="209.2857142857143" y="339.9761904761905"/>
      <point x="132.47619047619048" y="236.71428571428572"/>
      <point x="134.11904761904762" y="115.30952380952381" type="curve"/>
      <point x="183.14285714285717" y="89.73809523809524" type="line"/>
      <point x="187.69047619047618" y="180.30952380952382"/>
      <point x="228.57142857142858" y="236.33333333333334"/>
      <point x="289.0238095238095" y="236.33333333333334" type="curve" smooth="yes"/>
      <point x="333.1428571428571" y="236.33333333333334"/>
      <point x="364.4285714285714" y="205.92857142857142"/>
      <point x="364.4285714285714" y="161.47619047619048" type="curve" smooth="yes"/>
      <point x="364.4285714285714" y="113.92857142857143"/>
      <point x="330.9761904761905" y="75.78571428571429"/>
      <point x="267.73809523809524" y="75.78571428571429" type="curve" smooth="yes"/>
      <point x="191.71428571428572" y="75.78571428571429"/>
      <point x="124.66666666666667" y="137.5"/>
      <point x="124.66666666666667" y="245.78571428571428" type="curve" smooth="yes"/>
      <point x="124.66666666666667" y="409.38095238095235"/>
      <point x="277.7142857142857" y="508.64285714285717"/>
      <point x="476.2857142857143" y="508.64285714285717" type="curve" smooth="yes"/>
      <point x="688.2142857142857" y="508.64285714285717"/>
      <point x="847.2142857142857" y="396.5714285714286"/>
      <point x="847.2142857142857" y="207.11904761904762" type="curve" smooth="yes"/>
      <point x="847.2142857142857" y="131.33333333333334"/>
      <point x="816.3095238095239" y="81.33333333333334"/>
      <point x="761.4047619047618" y="81.33333333333334" type="curve" smooth="yes"/>
      <point x="709.3333333333334" y="81.33333333333334"/>
      <point x="676.4285714285714" y="132.04761904761907"/>
      <point x="676.4285714285714" y="213.76190476190476" type="curve" smooth="yes"/>
      <point x="676.4285714285714" y="382.0238095238095"/>
      <point x="845.8571428571429" y="509.1904761904762"/>
      <point x="1030.7857142857142" y="509.1904761904762" type="curve" smooth="yes"/>
      <point x="1211.2380952380952" y="509.1904761904762"/>
      <point x="1342.1666666666665" y="384.7857142857143"/>
      <point x="1342.1666666666665" y="204.92857142857144" type="curve" smooth="yes"/>
      <point x="1342.1666666666665" y="129.76190476190476"/>
      <point x="1313.1666666666667" y="81.33333333333334"/>
      <point x="1259.452380952381" y="81.33333333333334" type="curve" smooth="yes"/>
      <point x="1206.4761904761904" y="81.33333333333334"/>
      <point x="1174.6666666666667" y="128.04761904761904"/>
      <point x="1174.6666666666667" y="206.47619047619048" type="curve" smooth="yes"/>
      <point x="1174.6666666666667" y="386.92857142857144"/>
      <point x="1325.5238095238094" y="505.83333333333337"/>
      <point x="1578.0238095238096" y="505.83333333333337" type="curve" smooth="yes"/>
      <point x="1970.0238095238094" y="505.83333333333337" type="line"/>
      <point x="1970.0238095238094" y="574.5" type="line"/>
      <point x="1576.952380952381" y="574.5" type="line" smooth="yes"/>
      <point x="1284.1190476190475" y="574.5"/>
      <point x="1101.9047619047617" y="412.2619047619048"/>
      <point x="1101.9047619047617" y="212.92857142857142" type="curve" smooth="yes"/>
      <point x="1101.9047619047617" y="87.6904761904762"/>
      <point x="1164.0714285714284" y="-5.0"/>
      <point x="1300.5714285714287" y="-5.0" type="curve" smooth="yes"/>
      <point x="1434.1666666666667" y="-5.0"/>
      <point x="1512.2619047619048" y="79.30952380952381"/>
      <point x="1512.2619047619048" y="219.42857142857144" type="curve" smooth="yes"/>
      <point x="1512.2619047619048" y="441.0"/>
      <point x="1305.0714285714284" y="579.5"/>
      <point x="1046.7380952380952" y="579.5" type="curve" smooth="yes"/>
      <point x="812.2857142857143" y="579.5"/>
      <point x="602.5714285714286" y="412.4761904761905"/>
      <point x="602.5714285714286" y="217.85714285714286" type="curve" smooth="yes"/>
      <point x="602.5714285714286" y="87.69047619047619"/>
      <point x="666.9047619047619" y="-4.4523809523809526"/>
    </contour>
    <contour>
      <point x="1625.7380952380954" y="0.0" type="line"/>
      <point x="1823.4285714285716" y="0.0" type="line"/>
      <point x="1823.4285714285716" y="540.4047619047619" type="line"/>
      <point x="1625.7380952380954" y="540.4047619047619" type="line"/>
    </contour>
  </outline>
</glyph>
<glyph name="pa-tamil" format="2">
  <advance width="993.3809523809523"/>
  <unicode hex="0BAA"/>
  <note>
uni0BAA
</note>
  <anchor x="499.9761904761905" y="0.0" name="bottom"/>
  <anchor x="902.6904761904763" y="574.5" name="imatra"/>
  <anchor x="499.9761904761905" y="0.0" name="nukta"/>
  <anchor x="499.26190476190476" y="574.5" name="top"/>
  <anchor x="498.88095238095235" y="574.5" name="vedic"/>
  <outline>
    <contour>
      <point x="80.69047619047619" y="0.0" type="line"/>
      <point x="912.2380952380953" y="0.0" type="line"/>
      <point x="912.2380952380953" y="574.5" type="line"/>
      <point x="718.2142857142858" y="574.5" type="line"/>
      <point x="718.2142857142858" y="68.66666666666667" type="line"/>
      <point x="274.0" y="68.66666666666667" type="line"/>
      <point x="274.0" y="574.5" type="line"/>
      <point x="80.69047619047619" y="574.5" type="line"/>
    </contour>
  </outline>
</glyph>
<glyph name="ma-tamil" format="2">
  <advance width="991.4285714285714"/>
  <unicode hex="0BAE"/>
  <note>
uni0BAE
</note>
  <anchor x="487.0" y="0.0" name="bottom"/>
  <anchor x="925.7142857142858" y="574.5" name="imatra"/>
  <anchor x="487.54761904761904" y="0.0" name="nukta"/>
  <anchor x="516.3571428571429" y="574.5" name="top"/>
  <anchor x="507.9285714285714" y="574.5" name="vedic"/>
  <outline>
    <contour>
      <point x="80.69047619047619" y="0.0" type="line"/>
      <point x="763.0238095238096" y="0.0" type="line" smooth="yes"/>
      <point x="880.4761904761905" y="0.0"/>
      <point x="935.7142857142858" y="82.0"/>
      <point x="935.7142857142858" y="233.0" type="curve" smooth="yes"/>
      <point x="935.7142857142858" y="458.0"/>
      <point x="831.6190476190477" y="579.952380952381"/>
      <point x="674.5714285714286" y="579.952380952381" type="curve" smooth="yes"/>
      <point x="531.047619047619" y="579.952380952381"/>
      <point x="459.54761904761904" y="501.8571428571429"/>
      <point x="459.54761904761904" y="374.0" type="curve" smooth="yes"/>
      <point x="459.54761904761904" y="68.66666666666667" type="line"/>
      <point x="275.26190476190476" y="68.66666666666667" type="line"/>
      <point x="275.26190476190476" y="574.5" type="line"/>
      <point x="80.69047619047619" y="574.5" type="line"/>
    </contour>
    <contour>
      <point x="653.7619047619048" y="68.66666666666667" type="line"/>
      <point x="653.7619047619048" y="385.0" type="line" smooth="yes"/>
      <point x="653.7619047619048" y="465.0"/>
      <point x="673.8809523809524" y="499.0"/>
      <point x="723.1428571428571" y="499.0" type="curve" smooth="yes"/>
      <point x="786.1428571428571" y="499.0"/>
      <point x="861.2380952380952" y="417.0"/>
      <point x="861.2380952380952" y="236.0" type="curve" smooth="yes"/>
      <point x="861.2380952380952" y="125.0"/>
      <point x="832.4761904761905" y="68.66666666666667"/>
      <point x="758.0238095238095" y="68.66666666666667" type="curve" smooth="yes"/>
    </contour>
  </outline>
</glyph>
<glyph name="ya-tamil" format="2">
  <advance width="1112.547619047619"/>
  <unicode hex="0BAF"/>
  <note>
uni0BAF
</note>
  <anchor x="599.1190476190476" y="0.0" name="bottom"/>
  <anchor x="1021.4047619047619" y="574.5" name="imatra"/>
  <anchor x="596.9285714285713" y="0.0" name="nukta"/>
  <anchor x="556.8095238095239" y="574.5" name="top"/>
  <anchor x="554.0" y="574.5" name="vedic"/>
  <outline>
    <contour>
      <point x="265.90476190476187" y="-11.642857142857142" type="curve" smooth="yes"/>
      <point x="355.33333333333337" y="-11.642857142857142"/>
      <point x="399.0714285714286" y="24.857142857142854"/>
      <point x="428.85714285714283" y="62.45238095238095" type="curve"/>
      <point x="428.85714285714283" y="0.0" type="line"/>
      <point x="1031.404761904762" y="0.0" type="line"/>
      <point x="1031.404761904762" y="574.5" type="line"/>
      <point x="837.2857142857142" y="574.5" type="line"/>
      <point x="837.2857142857142" y="68.66666666666667" type="line"/>
      <point x="599.1190476190476" y="68.66666666666667" type="line"/>
      <point x="599.1190476190476" y="574.5" type="line"/>
      <point x="410.28571428571433" y="574.5" type="line"/>
      <point x="410.28571428571433" y="145.54761904761907" type="line" smooth="yes"/>
      <point x="410.28571428571433" y="102.57142857142857"/>
      <point x="378.38095238095235" y="75.6904761904762"/>
      <point x="339.04761904761904" y="75.6904761904762" type="curve" smooth="yes"/>
      <point x="298.6904761904762" y="75.6904761904762"/>
      <point x="271.16666666666663" y="96.57142857142857"/>
      <point x="271.16666666666663" y="152.35714285714286" type="curve" smooth="yes"/>
      <point x="271.16666666666663" y="574.5" type="line"/>
      <point x="77.04761904761905" y="574.5" type="line"/>
      <point x="77.04761904761905" y="172.02380952380952" type="line" smooth="yes"/>
      <point x="77.04761904761905" y="58.35714285714286"/>
      <point x="152.26190476190476" y="-11.642857142857142"/>
    </contour>
  </outline>
</glyph>
<glyph name="ra-tamil" format="2">
  <advance width="704.1428571428571"/>
  <unicode hex="0BB0"/>
  <note>
uni0BB0
</note>
  <anchor x="347.73809523809524" y="0.0" name="bottom"/>
  <anchor x="593.5714285714286" y="574.5" name="imatra"/>
  <anchor x="347.73809523809524" y="-248.80952380952382" name="nukta"/>
  <anchor x="364.2142857142857" y="574.5" name="top"/>
  <anchor x="385.2857142857143" y="574.5" name="vedic"/>
  <outline>
    <contour>
      <point x="135.11904761904765" y="-288.2142857142857" type="line"/>
      <point x="542.7380952380953" y="23.857142857142854" type="line"/>
      <point x="542.7380952380953" y="505.83333333333337" type="line"/>
      <point x="689.8809523809524" y="505.83333333333337" type="line"/>
      <point x="689.8809523809524" y="574.5" type="line"/>
      <point x="83.42857142857142" y="574.5" type="line"/>
      <point x="83.42857142857142" y="0.0" type="line"/>
      <point x="161.0952380952381" y="0.0" type="line"/>
      <point x="161.0952380952381" y="505.83333333333337" type="line"/>
      <point x="348.3571428571429" y="505.83333333333337" type="line"/>
      <point x="348.3571428571429" y="-26.214285714285715" type="line"/>
      <point x="88.83333333333334" y="-226.35714285714286" type="line"/>
    </contour>
  </outline>
</glyph>
<glyph name="la-tamil" format="2">
  <advance width="1191.7619047619048"/>
  <unicode hex="0BB2"/>
  <note>
uni0BB2
</note>
  <anchor x="593.1428571428571" y="0.0" name="bottom"/>
  <anchor x="591.5" y="0.0" name="nukta"/>
  <anchor x="601.9047619047619" y="574.5" name="top"/>
  <anchor x="592.8809523809524" y="574.5" name="vedic"/>
  <outline>
    <contour>
      <point x="304.6666666666667" y="-5.0" type="curve" smooth="yes"/>
      <point x="443.8095238095238" y="-5.0"/>
      <point x="525.1904761904761" y="68.0"/>
      <point x="525.1904761904761" y="175.88095238095238" type="curve" smooth="yes"/>
      <point x="525.1904761904761" y="267.26190476190476"/>
      <point x="460.45238095238096" y="339.9761904761905"/>
      <point x="345.9047619047619" y="339.9761904761905" type="curve" smooth="yes"/>
      <point x="211.54761904761907" y="339.9761904761905"/>
      <point x="137.9047619047619" y="242.5952380952381"/>
      <point x="133.66666666666666" y="115.30952380952381" type="curve"/>
      <point x="182.6904761904762" y="89.73809523809524" type="line"/>
      <point x="187.23809523809524" y="180.30952380952382"/>
      <point x="228.11904761904762" y="236.33333333333334"/>
      <point x="288.5714285714286" y="236.33333333333334" type="curve" smooth="yes"/>
      <point x="332.69047619047615" y="236.33333333333334"/>
      <point x="363.9761904761904" y="205.92857142857142"/>
      <point x="363.9761904761904" y="161.47619047619048" type="curve" smooth="yes"/>
      <point x="363.9761904761904" y="113.92857142857143"/>
      <point x="330.5238095238095" y="75.78571428571429"/>
      <point x="267.28571428571433" y="75.78571428571429" type="curve" smooth="yes"/>
      <point x="189.45238095238096" y="75.78571428571429"/>
      <point x="124.66666666666667" y="151.07142857142858"/>
      <point x="124.66666666666667" y="261.6190476190476" type="curve" smooth="yes"/>
      <point x="124.66666666666667" y="407.57142857142856"/>
      <point x="228.11904761904762" y="504.26190476190476"/>
      <point x="390.8333333333333" y="504.26190476190476" type="curve" smooth="yes"/>
      <point x="555.6428571428571" y="504.26190476190476"/>
      <point x="628.4285714285714" y="406.6428571428571"/>
      <point x="628.4285714285714" y="269.4285714285714" type="curve" smooth="yes"/>
      <point x="628.4285714285714" y="204.6904761904762" type="line" smooth="yes"/>
      <point x="628.4285714285714" y="76.92857142857143"/>
      <point x="711.2380952380953" y="-5.0"/>
      <point x="865.0" y="-5.0" type="curve" smooth="yes"/>
      <point x="1033.952380952381" y="-5.0"/>
      <point x="1135.5" y="125.35714285714288"/>
      <point x="1135.5" y="308.5714285714286" type="curve" smooth="yes"/>
      <point x="1135.5" y="400.57142857142856"/>
      <point x="1103.1190476190475" y="485.9523809523809"/>
      <point x="1029.1190476190477" y="577.952380952381" type="curve"/>
      <point x="969.2619047619048" y="535.9285714285714" type="line"/>
      <point x="1035.2619047619048" y="452.92857142857144"/>
      <point x="1062.642857142857" y="390.57142857142856"/>
      <point x="1062.642857142857" y="296.5714285714286" type="curve" smooth="yes"/>
      <point x="1062.642857142857" y="169.45238095238093"/>
      <point x="991.6666666666666" y="73.52380952380953"/>
      <point x="907.8571428571429" y="73.52380952380953" type="curve" smooth="yes"/>
      <point x="847.7857142857143" y="73.52380952380953"/>
      <point x="824.3809523809524" y="114.52380952380953"/>
      <point x="824.3809523809524" y="193.6904761904762" type="curve" smooth="yes"/>
      <point x="824.3809523809524" y="281.07142857142856" type="line" smooth="yes"/>
      <point x="824.3809523809524" y="468.64285714285717"/>
      <point x="663.4047619047619" y="579.5"/>
      <point x="433.8333333333333" y="579.5" type="curve" smooth="yes"/>
      <point x="197.33333333333331" y="579.5"/>
      <point x="51.26190476190476" y="449.61904761904765"/>
      <point x="51.26190476190476" y="263.07142857142856" type="curve" smooth="yes"/>
      <point x="51.26190476190476" y="116.9047619047619"/>
      <point x="150.47619047619045" y="-5.0"/>
    </contour>
  </outline>
</glyph>
<glyph name="va-tamil" format="2">
  <advance width="1255.047619047619"/>
  <unicode hex="0BB5"/>
  <note>
uni0BB5
</note>
  <anchor x="654.2857142857142" y="0.0" name="bottom"/>
  <anchor x="1004.4047619047619" y="574.5" name="imatra"/>
  <anchor x="649.3571428571428" y="0.0" name="nukta"/>
  <anchor x="648.6666666666666" y="574.5" name="top"/>
  <anchor x="622.2142857142858" y="574.5" name="vedic"/>
  <outline>
    <contour>
      <point x="304.6666666666667" y="-5.0" type="curve" smooth="yes"/>
      <point x="443.8095238095238" y="-5.0"/>
      <point x="525.1904761904761" y="68.0"/>
      <point x="525.1904761904761" y="175.88095238095238" type="curve" smooth="yes"/>
      <point x="525.1904761904761" y="267.26190476190476"/>
      <point x="460.45238095238096" y="339.9761904761905"/>
      <point x="345.9047619047619" y="339.9761904761905" type="curve" smooth="yes"/>
      <point x="211.54761904761907" y="339.9761904761905"/>
      <point x="137.9047619047619" y="242.5952380952381"/>
      <point x="133.66666666666666" y="115.30952380952381" type="curve"/>
      <point x="182.6904761904762" y="89.73809523809524" type="line"/>
      <point x="187.23809523809524" y="180.30952380952382"/>
      <point x="228.11904761904762" y="236.33333333333334"/>
      <point x="288.5714285714286" y="236.33333333333334" type="curve" smooth="yes"/>
      <point x="332.69047619047615" y="236.33333333333334"/>
      <point x="363.9761904761904" y="205.92857142857142"/>
      <point x="363.9761904761904" y="161.47619047619048" type="curve" smooth="yes"/>
      <point x="363.9761904761904" y="113.92857142857143"/>
      <point x="330.5238095238095" y="75.78571428571429"/>
      <point x="267.28571428571433" y="75.78571428571429" type="curve" smooth="yes"/>
      <point x="189.45238095238096" y="75.78571428571429"/>
      <point x="124.66666666666667" y="151.07142857142858"/>
      <point x="124.66666666666667" y="261.6190476190476" type="curve" smooth="yes"/>
      <point x="124.66666666666667" y="400.5"/>
      <point x="228.45238095238096" y="505.3571428571429"/>
      <point x="401.61904761904765" y="505.3571428571429" type="curve" smooth="yes"/>
      <point x="552.5238095238096" y="505.3571428571429"/>
      <point x="665.047619047619" y="414.1190476190476"/>
      <point x="665.047619047619" y="264.09523809523813" type="curve" smooth="yes"/>
      <point x="665.047619047619" y="177.8095238095238"/>
      <point x="637.3333333333334" y="104.85714285714286"/>
      <point x="587.3809523809524" y="47.285714285714285" type="curve"/>
      <point x="610.6666666666666" y="0.0" type="line"/>
      <point x="1173.904761904762" y="0.0" type="line"/>
      <point x="1173.904761904762" y="574.5" type="line"/>
      <point x="980.3333333333334" y="574.5" type="line"/>
      <point x="980.3333333333334" y="68.66666666666667" type="line"/>
      <point x="734.8809523809524" y="68.66666666666667" type="line"/>
      <point x="810.0714285714286" y="131.02380952380952"/>
      <point x="848.3571428571429" y="200.61904761904762"/>
      <point x="848.3571428571429" y="289.76190476190476" type="curve" smooth="yes"/>
      <point x="848.3571428571429" y="468.6666666666667"/>
      <point x="671.7142857142858" y="579.5"/>
      <point x="446.54761904761904" y="579.5" type="curve" smooth="yes"/>
      <point x="192.28571428571428" y="579.5"/>
      <point x="51.26190476190476" y="444.1904761904762"/>
      <point x="51.26190476190476" y="263.07142857142856" type="curve" smooth="yes"/>
      <point x="51.26190476190476" y="116.9047619047619"/>
      <point x="150.47619047619045" y="-5.0"/>
    </contour>
  </outline>
</glyph>
<glyph name="sa-tamil" format="2">
  <advance width="1554.642857142857"/>
  <unicode hex="0BB8"/>
  <note>
uni0BB8
</note>
  <anchor x="784.7619047619048" y="0.0" name="bottom"/>
  <anchor x="784.7619047619048" y="0.0" name="nukta"/>
  <anchor x="776.8571428571429" y="574.5" name="top"/>
  <anchor x="777.0952380952381" y="574.5" name="vedic"/>
  <outline>
    <contour>
      <point x="633.4285714285714" y="0.0" type="line"/>
      <point x="830.0238095238095" y="0.0" type="line"/>
      <point x="830.0238095238095" y="415.4047619047619" type="line" smooth="yes"/>
      <point x="830.0238095238095" y="476.73809523809524"/>
      <point x="859.2857142857143" y="508.54761904761904"/>
      <point x="913.5238095238095" y="508.54761904761904" type="curve" smooth="yes"/>
      <point x="966.4047619047619" y="508.54761904761904"/>
      <point x="990.4047619047619" y="470.9047619047619"/>
      <point x="990.4047619047619" y="423.4761904761905" type="curve" smooth="yes"/>
      <point x="990.4047619047619" y="204.6904761904762" type="line" smooth="yes"/>
      <point x="990.4047619047619" y="76.92857142857143"/>
      <point x="1073.2142857142858" y="-5.5476190476190474"/>
      <point x="1226.9761904761906" y="-5.5476190476190474" type="curve" smooth="yes"/>
      <point x="1395.9285714285713" y="-5.5476190476190474"/>
      <point x="1498.3809523809525" y="125.45238095238095"/>
      <point x="1498.3809523809525" y="308.5714285714286" type="curve" smooth="yes"/>
      <point x="1498.3809523809525" y="400.57142857142856"/>
      <point x="1466.904761904762" y="485.95238095238096"/>
      <point x="1392.904761904762" y="577.952380952381" type="curve"/>
      <point x="1332.142857142857" y="535.4761904761905" type="line"/>
      <point x="1398.1428571428573" y="452.4761904761905"/>
      <point x="1424.6190476190477" y="390.1190476190476"/>
      <point x="1424.6190476190477" y="296.11904761904765" type="curve" smooth="yes"/>
      <point x="1424.6190476190477" y="168.54761904761904"/>
      <point x="1353.642857142857" y="72.97619047619048"/>
      <point x="1270.2857142857142" y="72.97619047619048" type="curve" smooth="yes"/>
      <point x="1209.7619047619048" y="72.97619047619048"/>
      <point x="1186.8095238095239" y="113.97619047619048"/>
      <point x="1186.8095238095239" y="193.14285714285714" type="curve" smooth="yes"/>
      <point x="1186.8095238095239" y="380.26190476190476" type="line" smooth="yes"/>
      <point x="1186.8095238095239" y="514.7142857142858"/>
      <point x="1073.8095238095239" y="578.4047619047619"/>
      <point x="933.6904761904761" y="578.4047619047619" type="curve" smooth="yes"/>
      <point x="806.5714285714286" y="578.4047619047619"/>
      <point x="698.0238095238095" y="520.9285714285714"/>
      <point x="698.0238095238095" y="417.4047619047619" type="curve" smooth="yes"/>
      <point x="698.0238095238095" y="353.5238095238095" type="line"/>
      <point x="633.4285714285714" y="353.5238095238095" type="line"/>
    </contour>
    <contour>
      <point x="310.4761904761905" y="-5.0" type="curve" smooth="yes"/>
      <point x="450.16666666666663" y="-5.0"/>
      <point x="529.7380952380952" y="65.26190476190476"/>
      <point x="529.7380952380952" y="173.14285714285714" type="curve" smooth="yes"/>
      <point x="529.7380952380952" y="264.5238095238095"/>
      <point x="465.8095238095238" y="339.9761904761905"/>
      <point x="351.8095238095238" y="339.9761904761905" type="curve" smooth="yes"/>
      <point x="207.04761904761904" y="339.9761904761905"/>
      <point x="142.28571428571428" y="234.38095238095238"/>
      <point x="139.11904761904762" y="114.85714285714286" type="curve"/>
      <point x="187.6904761904762" y="89.73809523809524" type="line"/>
      <point x="192.23809523809524" y="173.97619047619048"/>
      <point x="226.78571428571428" y="236.33333333333334"/>
      <point x="294.92857142857144" y="236.33333333333334" type="curve" smooth="yes"/>
      <point x="339.04761904761904" y="236.33333333333334"/>
      <point x="368.9761904761905" y="205.92857142857142"/>
      <point x="368.9761904761905" y="161.47619047619048" type="curve" smooth="yes"/>
      <point x="368.9761904761905" y="113.92857142857143"/>
      <point x="336.42857142857144" y="75.78571428571429"/>
      <point x="273.1904761904762" y="75.78571428571429" type="curve" smooth="yes"/>
      <point x="195.3571428571429" y="75.78571428571429"/>
      <point x="129.66666666666666" y="151.52380952380952"/>
      <point x="129.66666666666666" y="262.0714285714286" type="curve" smooth="yes"/>
      <point x="129.66666666666666" y="410.73809523809524"/>
      <point x="239.85714285714286" y="504.0952380952381"/>
      <point x="387.40476190476187" y="504.0952380952381" type="curve" smooth="yes"/>
      <point x="544.1904761904761" y="504.0952380952381"/>
      <point x="633.4285714285714" y="435.69047619047615"/>
      <point x="633.4285714285714" y="289.0238095238095" type="curve"/>
      <point x="727.3809523809523" y="288.4761904761905" type="line"/>
      <point x="718.6190476190476" y="486.7142857142857"/>
      <point x="578.3571428571429" y="579.4047619047619"/>
      <point x="397.4047619047619" y="579.4047619047619" type="curve" smooth="yes"/>
      <point x="189.78571428571428" y="579.4047619047619"/>
      <point x="56.26190476190476" y="452.2857142857143"/>
      <point x="56.26190476190476" y="263.0714285714286" type="curve" smooth="yes"/>
      <point x="56.26190476190476" y="116.9047619047619"/>
      <point x="156.38095238095238" y="-5.0"/>
    </contour>
  </outline>
</glyph>
<glyph name="aaMatra-tamil" format="2">
  <advance width="695.8571428571429"/>
  <unicode hex="0BBE"/>
  <note>
uni0BBE
</note>
  <anchor x="368.0" y="0.0" name="bottom"/>
  <anchor x="367.0" y="0.0" name="nukta"/>
  <anchor x="361.0" y="574.5" name="top"/>
  <anchor x="361.0" y="574.5" name="vedic"/>
  <outline>
    <contour>
      <point x="80.69047619047619" y="0.0" type="line"/>
      <point x="158.35714285714286" y="0.0" type="line"/>
      <point x="158.35714285714286" y="505.83333333333337" type="line"/>
      <point x="346.07142857142856" y="505.83333333333337" type="line"/>
      <point x="346.07142857142856" y="0.0" type="line"/>
      <point x="539.9285714285714" y="0.0" type="line"/>
      <point x="539.9285714285714" y="505.83333333333337" type="line"/>
      <point x="681.5952380952381" y="505.83333333333337" type="line"/>
      <point x="681.5952380952381" y="574.5" type="line"/>
      <point x="80.69047619047619" y="574.5" type="line"/>
    </contour>
  </outline>
</glyph>
<glyph name="iMatra-tamil" format="2">
  <advance width="244.90476190476193"/>
  <unicode hex="0BBF"/>
  <note>
uni0BBF
</note>
  <anchor x="-175.16666666666666" y="891.0" name="top"/>
  <outline>
    <contour>
      <point x="80.07142857142857" y="0.0" type="line"/>
      <point x="159.92857142857144" y="0.0" type="line"/>
      <point x="159.92857142857144" y="566.0238095238095" type="line" smooth="yes"/>
      <point x="159.92857142857144" y="782.7380952380952"/>
      <point x="8.190476190476186" y="891.0"/>
      <point x="-175.16666666666666" y="891.0" type="curve" smooth="yes"/>
      <point x="-345.6904761904762" y="891.0"/>
      <point x="-442.7619047619048" y="795.7380952380952"/>
      <point x="-442.7619047619048" y="682.5" type="curve" smooth="yes"/>
      <point x="-442.7619047619048" y="578.9285714285714"/>
      <point x="-372.92857142857144" y="514.8095238095239"/>
      <point x="-255.78571428571428" y="514.8095238095239" type="curve" smooth="yes"/>
      <point x="-253.7857142857143" y="514.8095238095239" type="line"/>
      <point x="-253.7857142857143" y="573.952380952381" type="line"/>
      <point x="-255.78571428571428" y="573.952380952381" type="line" smooth="yes"/>
      <point x="-305.04761904761904" y="573.952380952381"/>
      <point x="-346.04761904761904" y="600.6666666666666"/>
      <point x="-346.04761904761904" y="650.2142857142858" type="curve" smooth="yes"/>
      <point x="-346.04761904761904" y="704.547619047619"/>
      <point x="-287.42857142857144" y="749.2142857142857"/>
      <point x="-177.40476190476193" y="749.2142857142857" type="curve" smooth="yes"/>
      <point x="-35.78571428571429" y="749.2142857142857"/>
      <point x="80.07142857142857" y="676.5238095238095"/>
      <point x="80.07142857142857" y="516.7142857142857" type="curve" smooth="yes"/>
    </contour>
  </outline>
</glyph>
<glyph name="iiMatra-tamil" format="2">
  <unicode hex="0BC0"/>
  <note>
uni0BC0
</note>
  <anchor x="0.0" y="574.5" name="_imatra"/>
  <anchor x="17.333333333333332" y="926.452380952381" name="top"/>
  <outline>
    <contour>
      <point x="-38.38095238095238" y="505.83333333333337" type="curve" smooth="yes"/>
      <point x="0.0" y="505.83333333333337" type="line"/>
      <point x="0.0" y="574.5" type="line"/>
      <point x="-33.45238095238095" y="574.5" type="line" smooth="yes"/>
      <point x="-110.35714285714286" y="574.5"/>
      <point x="-168.6904761904762" y="618.2142857142857"/>
      <point x="-168.6904761904762" y="705.0714285714286" type="curve" smooth="yes"/>
      <point x="-168.6904761904762" y="791.8809523809523"/>
      <point x="-98.40476190476191" y="853.8571428571428"/>
      <point x="2.952380952380949" y="853.8571428571428" type="curve" smooth="yes"/>
      <point x="63.02380952380952" y="853.8571428571428"/>
      <point x="106.92857142857142" y="822.2380952380952"/>
      <point x="106.92857142857142" y="767.6190476190476" type="curve" smooth="yes"/>
      <point x="106.92857142857142" y="730.4285714285713"/>
      <point x="81.47619047619048" y="700.6190476190476"/>
      <point x="38.38095238095237" y="700.6190476190476" type="curve" smooth="yes"/>
      <point x="-36.857142857142854" y="700.6190476190476"/>
      <point x="-55.5" y="792.5"/>
      <point x="-9.500000000000004" y="878.952380952381" type="curve"/>
      <point x="-66.14285714285714" y="883.5" type="line"/>
      <point x="-144.14285714285714" y="759.952380952381"/>
      <point x="-93.16666666666667" y="610.5714285714286"/>
      <point x="71.42857142857143" y="610.5714285714286" type="curve" smooth="yes"/>
      <point x="166.45238095238096" y="610.5714285714286"/>
      <point x="241.85714285714286" y="662.0238095238095"/>
      <point x="241.85714285714286" y="753.8809523809524" type="curve" smooth="yes"/>
      <point x="241.85714285714286" y="862.6190476190476"/>
      <point x="147.38095238095238" y="926.452380952381"/>
      <point x="17.333333333333332" y="926.452380952381" type="curve" smooth="yes"/>
      <point x="-139.45238095238096" y="926.452380952381"/>
      <point x="-246.54761904761904" y="828.7619047619047"/>
      <point x="-246.54761904761904" y="709.5238095238095" type="curve" smooth="yes"/>
      <point x="-246.54761904761904" y="582.8333333333334"/>
      <point x="-167.26190476190476" y="505.83333333333337"/>
    </contour>
  </outline>
</glyph>
<glyph name="uMatra-tamil" format="2">
  <advance width="615.2619047619048"/>
  <unicode hex="0BC1"/>
  <note>
uni0BC1
</note>
  <anchor x="250.0952380952381" y="574.5" name="top"/>
  <outline>
    <contour>
      <point x="369.6190476190476" y="228.92857142857142" type="curve" smooth="yes"/>
      <point x="492.90476190476187" y="228.92857142857142"/>
      <point x="593.8809523809524" y="294.9761904761905"/>
      <point x="593.8809523809524" y="426.9047619047619" type="curve" smooth="yes"/>
      <point x="593.8809523809524" y="574.5" type="line"/>
      <point x="-310.95238095238096" y="574.5" type="line"/>
      <point x="-250.2857142857143" y="505.83333333333337" type="line"/>
      <point x="399.4761904761904" y="505.83333333333337" type="line"/>
      <point x="399.4761904761904" y="407.42857142857144" type="line" smooth="yes"/>
      <point x="399.4761904761904" y="340.6190476190476"/>
      <point x="363.23809523809524" y="311.6904761904762"/>
      <point x="318.5" y="311.6904761904762" type="curve" smooth="yes"/>
      <point x="265.7857142857143" y="311.6904761904762"/>
      <point x="237.16666666666666" y="349.5238095238096"/>
      <point x="237.16666666666666" y="427.5" type="curve" smooth="yes"/>
      <point x="237.16666666666666" y="534.0" type="line"/>
      <point x="160.30952380952382" y="534.0" type="line"/>
      <point x="160.30952380952382" y="435.0238095238095" type="line" smooth="yes"/>
      <point x="160.30952380952382" y="300.5238095238095"/>
      <point x="238.54761904761904" y="228.92857142857142"/>
    </contour>
  </outline>
</glyph>
<glyph name="uuMatra-tamil" format="2">
  <advance width="985.1666666666666"/>
  <unicode hex="0BC2"/>
  <note>
uni0BC2
</note>
  <anchor x="487.1190476190476" y="791.3095238095239" name="top"/>
  <outline>
    <contour>
      <point x="435.45238095238096" y="8.904761904761905" type="curve" smooth="yes"/>
      <point x="698.8571428571428" y="8.904761904761905"/>
      <point x="920.047619047619" y="144.83333333333331"/>
      <point x="920.047619047619" y="400.92857142857144" type="curve" smooth="yes"/>
      <point x="920.047619047619" y="647.7619047619047"/>
      <point x="741.0952380952382" y="791.3095238095239"/>
      <point x="487.1190476190476" y="791.3095238095239" type="curve" smooth="yes"/>
      <point x="257.42857142857144" y="791.3095238095239"/>
      <point x="139.54761904761904" y="657.5"/>
      <point x="139.54761904761904" y="528.5238095238095" type="curve" smooth="yes"/>
      <point x="139.54761904761904" y="437.2142857142857" type="line" smooth="yes"/>
      <point x="139.54761904761904" y="300.5238095238095"/>
      <point x="215.6904761904762" y="228.92857142857142"/>
      <point x="347.3095238095238" y="228.92857142857142" type="curve" smooth="yes"/>
      <point x="470.23809523809524" y="228.92857142857142"/>
      <point x="572.6666666666666" y="294.26190476190476"/>
      <point x="572.6666666666666" y="429.09523809523813" type="curve" smooth="yes"/>
      <point x="572.6666666666666" y="574.5" type="line"/>
      <point x="-339.7142857142857" y="574.5" type="line"/>
      <point x="-289.6904761904762" y="505.83333333333337" type="line"/>
      <point x="377.71428571428567" y="505.83333333333337" type="line"/>
      <point x="377.71428571428567" y="409.61904761904765" type="line" smooth="yes"/>
      <point x="377.71428571428567" y="340.6190476190476"/>
      <point x="342.57142857142856" y="311.6904761904762"/>
      <point x="297.8333333333333" y="311.6904761904762" type="curve" smooth="yes"/>
      <point x="245.66666666666666" y="311.6904761904762"/>
      <point x="215.95238095238093" y="350.6190476190476"/>
      <point x="215.95238095238093" y="429.6904761904762" type="curve" smooth="yes"/>
      <point x="215.95238095238093" y="528.5238095238095" type="line" smooth="yes"/>
      <point x="215.95238095238093" y="618.5238095238095"/>
      <point x="308.45238095238096" y="708.547619047619"/>
      <point x="453.16666666666663" y="708.547619047619" type="curve" smooth="yes"/>
      <point x="634.6666666666666" y="708.547619047619"/>
      <point x="719.3571428571429" y="598.4047619047619"/>
      <point x="719.3571428571429" y="410.4761904761905" type="curve" smooth="yes"/>
      <point x="719.3571428571429" y="209.54761904761904"/>
      <point x="606.0" y="89.95238095238096"/>
      <point x="419.0238095238095" y="89.95238095238096" type="curve" smooth="yes"/>
      <point x="280.73809523809524" y="89.95238095238096"/>
      <point x="167.3095238095238" y="134.73809523809524"/>
      <point x="78.38095238095238" y="248.1904761904762" type="curve"/>
      <point x="22.166666666666657" y="199.7857142857143" type="line"/>
      <point x="121.92857142857142" y="73.23809523809524"/>
      <point x="255.23809523809524" y="8.904761904761905"/>
    </contour>
  </outline>
</glyph>
<glyph name="eMatra-tamil" format="2">
  <advance width="912.6666666666666"/>
  <unicode hex="0BC6"/>
  <note>
uni0BC6
</note>
  <outline>
    <contour>
      <point x="360.92857142857144" y="-5.0" type="curve" smooth="yes"/>
      <point x="498.9761904761905" y="-5.0"/>
      <point x="581.547619047619" y="65.26190476190476"/>
      <point x="581.547619047619" y="173.14285714285714" type="curve" smooth="yes"/>
      <point x="581.547619047619" y="267.6904761904762"/>
      <point x="516.2619047619048" y="343.14285714285717"/>
      <point x="401.7142857142857" y="343.14285714285717" type="curve" smooth="yes"/>
      <point x="264.73809523809524" y="343.14285714285717"/>
      <point x="191.09523809523807" y="242.5952380952381"/>
      <point x="187.3095238095238" y="115.30952380952382" type="curve"/>
      <point x="235.8809523809524" y="89.73809523809524" type="line"/>
      <point x="240.42857142857144" y="180.30952380952382"/>
      <point x="281.3095238095238" y="239.5"/>
      <point x="345.38095238095235" y="239.5" type="curve" smooth="yes"/>
      <point x="389.5" y="239.5"/>
      <point x="420.7857142857143" y="209.09523809523807"/>
      <point x="420.7857142857143" y="161.47619047619048" type="curve" smooth="yes"/>
      <point x="420.7857142857143" y="113.92857142857143"/>
      <point x="387.3333333333333" y="75.78571428571429"/>
      <point x="324.0952380952381" y="75.78571428571429" type="curve" smooth="yes"/>
      <point x="216.33333333333334" y="75.78571428571429"/>
      <point x="132.95238095238096" y="202.88095238095238"/>
      <point x="132.95238095238096" y="376.42857142857144" type="curve" smooth="yes"/>
      <point x="132.95238095238096" y="588.0714285714287"/>
      <point x="280.07142857142856" y="722.3809523809524"/>
      <point x="465.0238095238095" y="722.3809523809524" type="curve" smooth="yes"/>
      <point x="631.1666666666666" y="722.3809523809524"/>
      <point x="748.3809523809524" y="643.1190476190476"/>
      <point x="748.3809523809524" y="389.8809523809524" type="curve" smooth="yes"/>
      <point x="748.3809523809524" y="0.0" type="line"/>
      <point x="827.6904761904763" y="0.0" type="line"/>
      <point x="827.6904761904763" y="450.5238095238095" type="line" smooth="yes"/>
      <point x="827.6904761904763" y="740.2619047619048"/>
      <point x="695.5952380952381" y="869.5714285714286"/>
      <point x="469.66666666666663" y="869.5714285714286" type="curve" smooth="yes"/>
      <point x="203.59523809523807" y="869.5714285714286"/>
      <point x="56.26190476190476" y="651.047619047619"/>
      <point x="56.26190476190476" y="382.4047619047619" type="curve" smooth="yes"/>
      <point x="56.26190476190476" y="166.9047619047619"/>
      <point x="176.33333333333334" y="-5.0"/>
    </contour>
  </outline>
</glyph>
<glyph name="eeMatra-tamil" format="2">
  <advance width="710.7619047619047"/>
  <unicode hex="0BC7"/>
  <note>
uni0BC7
</note>
  <outline>
    <contour>
      <point x="441.9047619047619" y="-5.0" type="curve" smooth="yes"/>
      <point x="574.9761904761905" y="-5.0"/>
      <point x="666.1428571428571" y="58.92857142857143"/>
      <point x="666.1428571428571" y="173.14285714285714" type="curve" smooth="yes"/>
      <point x="666.1428571428571" y="267.6904761904762"/>
      <point x="600.8571428571429" y="343.1428571428571"/>
      <point x="486.7619047619048" y="343.1428571428571" type="curve" smooth="yes"/>
      <point x="349.3333333333333" y="343.1428571428571"/>
      <point x="273.35714285714283" y="235.3095238095238"/>
      <point x="274.09523809523813" y="98.97619047619048" type="curve"/>
      <point x="323.2142857142857" y="73.40476190476191" type="line"/>
      <point x="323.14285714285717" y="173.1190476190476"/>
      <point x="365.3571428571429" y="239.5"/>
      <point x="429.4285714285714" y="239.5" type="curve" smooth="yes"/>
      <point x="474.0952380952381" y="239.5"/>
      <point x="504.8333333333333" y="209.0952380952381"/>
      <point x="504.8333333333333" y="161.47619047619048" type="curve" smooth="yes"/>
      <point x="504.8333333333333" y="108.5"/>
      <point x="465.59523809523813" y="75.78571428571429"/>
      <point x="405.4285714285714" y="75.78571428571429" type="curve" smooth="yes"/>
      <point x="281.3095238095238" y="75.78571428571429"/>
      <point x="131.30952380952382" y="194.16666666666666"/>
      <point x="131.30952380952382" y="431.1904761904762" type="curve" smooth="yes"/>
      <point x="131.30952380952382" y="667.2142857142857"/>
      <point x="281.3095238095238" y="809.1428571428571"/>
      <point x="405.4285714285714" y="809.1428571428571" type="curve" smooth="yes"/>
      <point x="465.59523809523813" y="809.1428571428571"/>
      <point x="504.8333333333333" y="776.9761904761905"/>
      <point x="504.8333333333333" y="723.9047619047619" type="curve" smooth="yes"/>
      <point x="504.8333333333333" y="675.8333333333334"/>
      <point x="474.0952380952381" y="645.4285714285714"/>
      <point x="429.4285714285714" y="645.4285714285714" type="curve" smooth="yes"/>
      <point x="365.3571428571429" y="645.4285714285714"/>
      <point x="323.14285714285717" y="712.3571428571429"/>
      <point x="323.2142857142857" y="811.9761904761905" type="curve"/>
      <point x="274.09523809523813" y="786.4047619047618" type="line"/>
      <point x="273.35714285714283" y="650.0714285714286"/>
      <point x="349.3333333333333" y="541.7857142857143"/>
      <point x="486.7619047619048" y="541.7857142857143" type="curve" smooth="yes"/>
      <point x="600.8571428571429" y="541.7857142857143"/>
      <point x="666.1428571428571" y="617.6904761904763"/>
      <point x="666.1428571428571" y="711.7857142857143" type="curve" smooth="yes"/>
      <point x="666.1428571428571" y="826.0"/>
      <point x="574.9761904761905" y="889.9285714285714"/>
      <point x="441.9047619047619" y="889.9285714285714" type="curve" smooth="yes"/>
      <point x="238.04761904761904" y="889.9285714285714"/>
      <point x="56.26190476190476" y="703.9285714285714"/>
      <point x="56.26190476190476" y="431.73809523809524" type="curve" smooth="yes"/>
      <point x="56.26190476190476" y="158.54761904761907"/>
      <point x="238.04761904761904" y="-5.0"/>
    </contour>
  </outline>
</glyph>
<glyph name="aiMatra-tamil" format="2">
  <advance width="1462.6904761904761"/>
  <unicode hex="0BC8"/>
  <note>
uni0BC8
</note>
  <outline>
    <contour>
      <point x="1159.0714285714284" y="-20.547619047619047" type="line"/>
      <point x="1314.6904761904761" y="25.619047619047613"/>
      <point x="1411.8809523809523" y="111.78571428571428"/>
      <point x="1411.8809523809523" y="266.88095238095235" type="curve" smooth="yes"/>
      <point x="1411.8809523809523" y="468.1666666666667"/>
      <point x="1224.2142857142858" y="579.5"/>
      <point x="1013.5" y="579.5" type="curve" smooth="yes"/>
      <point x="785.8333333333334" y="579.5"/>
      <point x="602.5714285714286" y="414.2857142857143"/>
      <point x="602.5714285714286" y="216.95238095238093" type="curve" smooth="yes"/>
      <point x="602.5714285714286" y="87.23809523809524"/>
      <point x="666.9047619047619" y="-4.904761904761905"/>
      <point x="803.047619047619" y="-4.904761904761905" type="curve" smooth="yes"/>
      <point x="935.7380952380953" y="-4.904761904761905"/>
      <point x="1016.7619047619047" y="82.59523809523809"/>
      <point x="1016.7619047619047" y="218.78571428571428" type="curve" smooth="yes"/>
      <point x="1016.7619047619047" y="449.8571428571429"/>
      <point x="776.1666666666666" y="579.5952380952381"/>
      <point x="496.76190476190476" y="579.5952380952381" type="curve" smooth="yes"/>
      <point x="251.45238095238093" y="579.5952380952381"/>
      <point x="51.26190476190476" y="459.11904761904765"/>
      <point x="51.26190476190476" y="245.8809523809524" type="curve" smooth="yes"/>
      <point x="51.26190476190476" y="102.88095238095238"/>
      <point x="153.64285714285714" y="-5.452380952380952"/>
      <point x="305.1190476190476" y="-5.452380952380952" type="curve" smooth="yes"/>
      <point x="444.26190476190476" y="-5.452380952380952"/>
      <point x="525.1904761904761" y="67.0952380952381"/>
      <point x="525.1904761904761" y="175.42857142857144" type="curve" smooth="yes"/>
      <point x="525.1904761904761" y="266.3571428571429"/>
      <point x="460.45238095238096" y="339.0714285714286"/>
      <point x="346.3571428571429" y="339.0714285714286" type="curve" smooth="yes"/>
      <point x="209.2857142857143" y="339.0714285714286"/>
      <point x="132.47619047619048" y="235.80952380952382"/>
      <point x="134.11904761904762" y="114.40476190476191" type="curve"/>
      <point x="183.14285714285717" y="88.83333333333333" type="line"/>
      <point x="187.69047619047618" y="179.85714285714286"/>
      <point x="228.57142857142858" y="235.88095238095238"/>
      <point x="289.0238095238095" y="235.88095238095238" type="curve" smooth="yes"/>
      <point x="333.1428571428571" y="235.88095238095238"/>
      <point x="364.4285714285714" y="205.02380952380952"/>
      <point x="364.4285714285714" y="160.57142857142858" type="curve" smooth="yes"/>
      <point x="364.4285714285714" y="113.02380952380952"/>
      <point x="330.9761904761905" y="75.33333333333334"/>
      <point x="267.73809523809524" y="75.33333333333334" type="curve" smooth="yes"/>
      <point x="191.71428571428572" y="75.33333333333334"/>
      <point x="124.66666666666667" y="137.04761904761907"/>
      <point x="124.66666666666667" y="245.33333333333331" type="curve" smooth="yes"/>
      <point x="124.66666666666667" y="408.92857142857144"/>
      <point x="277.7142857142857" y="508.1904761904762"/>
      <point x="476.2857142857143" y="508.1904761904762" type="curve" smooth="yes"/>
      <point x="688.2142857142857" y="508.1904761904762"/>
      <point x="847.2142857142857" y="396.11904761904765"/>
      <point x="847.2142857142857" y="206.21428571428572" type="curve" smooth="yes"/>
      <point x="847.2142857142857" y="130.42857142857144"/>
      <point x="816.3095238095239" y="80.42857142857143"/>
      <point x="761.4047619047618" y="80.42857142857143" type="curve" smooth="yes"/>
      <point x="709.3333333333334" y="80.42857142857143"/>
      <point x="676.4285714285714" y="131.14285714285714"/>
      <point x="676.4285714285714" y="213.30952380952382" type="curve" smooth="yes"/>
      <point x="676.4285714285714" y="381.57142857142856"/>
      <point x="826.2380952380952" y="508.09523809523813"/>
      <point x="987.7619047619047" y="508.09523809523813" type="curve" smooth="yes"/>
      <point x="1148.7857142857142" y="508.09523809523813"/>
      <point x="1242.4285714285713" y="413.40476190476187"/>
      <point x="1242.4285714285713" y="269.8095238095238" type="curve" smooth="yes"/>
      <point x="1242.4285714285713" y="160.8095238095238"/>
      <point x="1198.3095238095236" y="87.04761904761905"/>
      <point x="1127.047619047619" y="29.11904761904762" type="curve"/>
    </contour>
  </outline>
</glyph>
<glyph name="halant-tamil" format="2">
  <unicode hex="0BCD"/>
  <note>
uni0BCD
</note>
  <anchor x="0.0" y="574.5" name="_top"/>
  <outline>
    <contour>
      <point x="0.0" y="649.4047619047619" type="curve" smooth="yes"/>
      <point x="53.285714285714285" y="649.4047619047619"/>
      <point x="97.66666666666667" y="692.1428571428572"/>
      <point x="97.66666666666667" y="743.9761904761905" type="curve" smooth="yes"/>
      <point x="97.66666666666667" y="794.8095238095239"/>
      <point x="53.83333333333333" y="838.0952380952381"/>
      <point x="0.5476190476190478" y="838.0952380952381" type="curve" smooth="yes"/>
      <point x="-53.285714285714285" y="838.0952380952381"/>
      <point x="-97.11904761904762" y="794.8095238095239"/>
      <point x="-97.11904761904762" y="743.9761904761905" type="curve" smooth="yes"/>
      <point x="-97.11904761904762" y="692.1428571428572"/>
      <point x="-53.83333333333333" y="649.4047619047619"/>
    </contour>
  </outline>
</glyph>
<glyph name="om-tamil" format="2">
  <advance width="1145.4285714285716"/>
  <unicode hex="0BD0"/>
  <note>
uni0BD0
</note>
  <outline>
    <contour>
      <point x="398.26190476190476" y="-407.6666666666667" type="curve" smooth="yes"/>
      <point x="735.5714285714286" y="-407.6666666666667"/>
      <point x="726.3095238095237" y="-175.14285714285717"/>
      <point x="899.3571428571429" y="-175.14285714285717" type="curve" smooth="yes"/>
      <point x="963.2857142857143" y="-175.14285714285717" type="line"/>
      <point x="963.2857142857143" y="-104.76190476190477" type="line"/>
      <point x="858.952380952381" y="-104.76190476190477" type="line" smooth="yes"/>
      <point x="653.3095238095237" y="-104.76190476190477"/>
      <point x="575.1428571428572" y="101.28571428571428"/>
      <point x="681.452380952381" y="238.66666666666666" type="curve"/>
      <point x="687.9047619047619" y="234.66666666666666" type="line"/>
      <point x="651.3571428571429" y="123.35714285714286"/>
      <point x="693.2619047619048" y="3.428571428571426"/>
      <point x="866.8333333333333" y="3.428571428571426" type="curve" smooth="yes"/>
      <point x="1002.5952380952382" y="3.428571428571426"/>
      <point x="1094.6190476190477" y="82.69047619047619"/>
      <point x="1094.6190476190477" y="215.64285714285714" type="curve" smooth="yes"/>
      <point x="1094.6190476190477" y="457.95238095238096"/>
      <point x="838.5714285714286" y="580.5952380952381"/>
      <point x="533.452380952381" y="580.5952380952381" type="curve" smooth="yes"/>
      <point x="266.92857142857144" y="580.5952380952381"/>
      <point x="51.26190476190476" y="454.9761904761905"/>
      <point x="51.26190476190476" y="254.73809523809524" type="curve" smooth="yes"/>
      <point x="51.26190476190476" y="117.88095238095238"/>
      <point x="147.73809523809524" y="9.88095238095238"/>
      <point x="304.04761904761904" y="9.88095238095238" type="curve" smooth="yes"/>
      <point x="444.11904761904765" y="9.88095238095238"/>
      <point x="519.5714285714286" y="89.45238095238096"/>
      <point x="519.5714285714286" y="184.38095238095238" type="curve" smooth="yes"/>
      <point x="519.5714285714286" y="281.5238095238095"/>
      <point x="453.1904761904762" y="353.14285714285717"/>
      <point x="343.09523809523813" y="353.14285714285717" type="curve" smooth="yes"/>
      <point x="211.47619047619048" y="353.14285714285717"/>
      <point x="136.11904761904762" y="254.57142857142858"/>
      <point x="127.4047619047619" y="126.21428571428572" type="curve"/>
      <point x="175.97619047619048" y="101.19047619047619" type="line"/>
      <point x="180.52380952380952" y="192.38095238095235"/>
      <point x="226.40476190476193" y="248.95238095238093"/>
      <point x="286.8571428571429" y="248.95238095238093" type="curve" smooth="yes"/>
      <point x="330.8095238095238" y="248.95238095238093"/>
      <point x="360.54761904761904" y="216.9047619047619"/>
      <point x="360.54761904761904" y="173.35714285714286" type="curve" smooth="yes"/>
      <point x="360.54761904761904" y="127.71428571428572"/>
      <point x="328.73809523809524" y="90.66666666666669"/>
      <point x="268.3095238095238" y="90.66666666666669" type="curve" smooth="yes"/>
      <point x="191.0952380952381" y="90.66666666666669"/>
      <point x="124.11904761904762" y="154.45238095238093"/>
      <point x="124.11904761904762" y="252.54761904761904" type="curve" smooth="yes"/>
      <point x="124.11904761904762" y="422.64285714285717"/>
      <point x="322.6428571428571" y="514.547619047619"/>
      <point x="533.452380952381" y="514.547619047619" type="curve" smooth="yes"/>
      <point x="734.6190476190477" y="514.547619047619"/>
      <point x="910.952380952381" y="424.0"/>
      <point x="910.952380952381" y="239.71428571428572" type="curve" smooth="yes"/>
      <point x="910.952380952381" y="143.85714285714286"/>
      <point x="876.6428571428572" y="88.04761904761905"/>
      <point x="812.9761904761905" y="88.04761904761905" type="curve" smooth="yes"/>
      <point x="738.9285714285714" y="88.04761904761905"/>
      <point x="711.1190476190476" y="191.7619047619048"/>
      <point x="769.9285714285714" y="288.95238095238096" type="curve"/>
      <point x="694.2380952380953" y="341.5238095238095" type="line"/>
      <point x="511.95238095238096" y="200.26190476190476"/>
      <point x="534.5952380952381" y="-48.28571428571429"/>
      <point x="713.8809523809524" y="-131.42857142857144" type="curve"/>
      <point x="713.8809523809524" y="-136.42857142857144" type="line"/>
      <point x="573.2857142857143" y="-152.71428571428572"/>
      <point x="585.2142857142857" y="-331.35714285714283"/>
      <point x="348.59523809523813" y="-331.35714285714283" type="curve" smooth="yes"/>
      <point x="202.40476190476193" y="-331.35714285714283"/>
      <point x="139.54761904761904" y="-244.0952380952381"/>
      <point x="163.38095238095238" y="-144.9047619047619" type="curve"/>
      <point x="96.33333333333331" y="-129.16666666666669" type="line"/>
      <point x="63.523809523809526" y="-280.5238095238095"/>
      <point x="176.14285714285714" y="-407.6666666666667"/>
    </contour>
    <contour>
      <point x="226.1904761904762" y="-263.64285714285717" type="line"/>
      <point x="281.57142857142856" y="-263.64285714285717" type="line"/>
      <point x="281.57142857142856" y="-106.64285714285714" type="line"/>
      <point x="226.1904761904762" y="-106.64285714285714" type="line"/>
    </contour>
    <contour>
      <point x="246.2857142857143" y="-263.64285714285717" type="line"/>
      <point x="476.95238095238096" y="-263.64285714285717" type="line"/>
      <point x="476.95238095238096" y="-215.35714285714286" type="line"/>
      <point x="246.2857142857143" y="-215.35714285714286" type="line"/>
    </contour>
    <contour>
      <point x="337.57142857142856" y="-263.64285714285717" type="line"/>
      <point x="390.40476190476187" y="-263.64285714285717" type="line"/>
      <point x="390.40476190476187" y="-177.38095238095238" type="line" smooth="yes"/>
      <point x="390.40476190476187" y="-162.83333333333334"/>
      <point x="399.85714285714283" y="-149.83333333333334"/>
      <point x="417.76190476190476" y="-149.83333333333334" type="curve" smooth="yes"/>
      <point x="437.2142857142857" y="-149.83333333333334"/>
      <point x="446.2142857142857" y="-162.83333333333334"/>
      <point x="446.2142857142857" y="-177.38095238095238" type="curve" smooth="yes"/>
      <point x="446.2142857142857" y="-263.64285714285717" type="line"/>
      <point x="502.04761904761904" y="-263.64285714285717" type="line"/>
      <point x="502.04761904761904" y="-185.38095238095238" type="line" smooth="yes"/>
      <point x="502.04761904761904" y="-124.1904761904762"/>
      <point x="459.95238095238096" y="-104.09523809523809"/>
      <point x="417.76190476190476" y="-104.09523809523809" type="curve" smooth="yes"/>
      <point x="376.6666666666667" y="-104.09523809523809"/>
      <point x="337.57142857142856" y="-124.1904761904762"/>
      <point x="337.57142857142856" y="-185.38095238095238" type="curve" smooth="yes"/>
    </contour>
    <contour>
      <point x="365.1190476190476" y="-87.57142857142857" type="curve" smooth="yes"/>
      <point x="385.2142857142857" y="-87.57142857142857"/>
      <point x="401.2142857142857" y="-71.57142857142857"/>
      <point x="401.2142857142857" y="-53.47619047619048" type="curve" smooth="yes"/>
      <point x="401.2142857142857" y="-34.92857142857143"/>
      <point x="385.2142857142857" y="-18.833333333333336"/>
      <point x="365.1190476190476" y="-18.833333333333336" type="curve" smooth="yes"/>
      <point x="345.1190476190476" y="-18.833333333333336"/>
      <point x="329.0238095238095" y="-34.92857142857143"/>
      <point x="329.0238095238095" y="-53.47619047619048" type="curve" smooth="yes"/>
      <point x="329.0238095238095" y="-71.57142857142857"/>
      <point x="345.1190476190476" y="-87.57142857142857"/>
    </contour>
  </outline>
</glyph>
<glyph name="zero-tamil" format="2">
  <advance width="686.1666666666666"/>
  <unicode hex="0BE6"/>
  <note>
uni0BE6
</note>
  <outline>
    <contour>
      <point x="333.4761904761905" y="-5.0" type="curve" smooth="yes"/>
      <point x="522.5" y="-5.0"/>
      <point x="635.3571428571429" y="114.19047619047619"/>
      <point x="635.3571428571429" y="287.4761904761905" type="curve" smooth="yes"/>
      <point x="635.3571428571429" y="465.76190476190476"/>
      <point x="519.8809523809524" y="580.047619047619"/>
      <point x="338.95238095238096" y="580.047619047619" type="curve" smooth="yes"/>
      <point x="155.28571428571428" y="580.047619047619"/>
      <point x="51.26190476190476" y="449.0"/>
      <point x="51.26190476190476" y="282.0" type="curve" smooth="yes"/>
      <point x="51.26190476190476" y="125.0"/>
      <point x="149.8095238095238" y="-5.0"/>
    </contour>
    <contour>
      <point x="299.4761904761905" y="74.61904761904762" type="curve" smooth="yes"/>
      <point x="183.30952380952382" y="74.61904761904762"/>
      <point x="123.66666666666667" y="169.3095238095238"/>
      <point x="123.66666666666667" y="287.4761904761905" type="curve" smooth="yes"/>
      <point x="123.66666666666667" y="411.1904761904762"/>
      <point x="186.04761904761907" y="499.88095238095235"/>
      <point x="299.4761904761905" y="499.88095238095235" type="curve" smooth="yes"/>
      <point x="404.0" y="499.88095238095235"/>
      <point x="460.73809523809524" y="425.8095238095238"/>
      <point x="460.73809523809524" y="287.4761904761905" type="curve" smooth="yes"/>
      <point x="460.73809523809524" y="154.23809523809524"/>
      <point x="397.1904761904762" y="74.61904761904762"/>
    </contour>
  </outline>
</glyph>
